<svg width="196" height="217" viewBox="0 0 196 217" fill="none" xmlns="http://www.w3.org/2000/svg">
<g clip-path="url(#clip0)">
<path d="M71.3025 39.639C63.8498 38.2731 56.331 37.2964 48.7767 36.7127H47.8233L40.0635 21.4157C44.4178 20.8412 48.8443 21.1886 53.0557 22.4355L66.3583 28.3326L64.6068 18.4893H70.0609C71.6467 20.039 72.9255 21.8743 73.83 23.8987C75.0208 26.3454 76.0215 28.8803 76.8231 31.4807C77.599 35.4712 75.8254 39.639 71.3025 39.639Z" fill="#EDEDED"/>
<path opacity="0.1" d="M71.3021 39.6391C63.8495 38.2732 56.3307 37.2964 48.7764 36.7127L49.9958 30.6161C55.2503 35.4934 63.2984 37.8212 72.7433 37.1118C76.335 35.0722 75.4481 29.7737 73.7853 23.8101C74.9761 26.2568 75.9768 28.7916 76.7784 31.392C77.5987 35.4712 75.825 39.6391 71.3021 39.6391Z" fill="#1D1D1B"/>
<path d="M26.0742 47.5314L22.7485 166.271C29.7546 153.502 39.9533 150.221 52.9898 155.497L55.6282 92.2916L52.2582 73.2258L51.1496 49.9478L26.0742 47.5314Z" fill="#9D9D9C"/>
<path d="M21.8833 15.8733C19.1279 19.1553 17.3056 23.1177 16.6074 27.3457C15.9092 31.5736 16.3607 35.9115 17.9147 39.905C23.3466 53.5171 30.5965 28.0443 30.5965 28.0443L21.8833 15.8733Z" fill="#1D1D1B"/>
<path d="M38.2236 182.566C37.7256 184.837 37.7256 187.189 38.2236 189.461C38.6692 190.636 39.3914 191.687 40.3292 192.525C41.267 193.362 42.3928 193.961 43.6112 194.271C47.2473 197.043 48.7771 201.743 53.2113 203.095C58.4658 204.669 61.6584 202.607 61.2372 199.481C60.5055 194.094 54.4085 191.678 51.5041 185.448L48.8657 179.218H39.5096L38.2236 182.566Z" fill="#1D1D1B"/>
<path d="M31.3726 106.148L37.8022 140.4C35.8954 148.159 39.0437 167.668 36.6714 183.63C37.1149 190.503 51.7699 190.791 51.9916 185.492C51.6843 170.798 52.4996 156.101 54.4304 141.53C58.7094 128.583 57.6452 99.7628 49.2646 75.6424L32.3703 84.3772L31.3726 106.148Z" fill="#305A82"/>
<path d="M15.3871 193.385C14.0049 196.42 13.6847 199.833 14.4781 203.073C18.2472 207.241 23.3465 215.576 33.7004 214.978C37.8685 214.202 39.0436 212.162 37.4695 209.014C35.8953 205.866 30.6408 202.496 28.3793 196.488L25.7853 191.212L15.3871 193.385Z" fill="#1D1D1B"/>
<path d="M51.1487 81.5173C50.6712 86.3933 49.4836 91.1733 47.6235 95.7058C44.8965 102.179 40.9722 107.057 36.1833 107.7C35.6512 127.364 37.2031 147.605 31.7491 154.765C28.6673 170.572 27.071 185.803 29.3989 197.952C26.9158 202.009 17.5374 201.543 14.7439 196.865C14.4279 196.338 14.203 195.761 14.0788 195.158C13.3028 174.097 10.0658 157.692 17.227 146.186L12.5933 108.808C10.1101 95.5063 12.2829 88.8554 19.2446 82.3598C20.0649 81.606 20.9739 80.8301 21.9273 80.1428L50.4393 78.99L51.1487 81.5173Z" fill="#3F76AB"/>
<path d="M58.9979 58.8157C58.9605 59.8746 58.6989 60.9136 58.2303 61.864C57.7618 62.8144 57.0971 63.6546 56.2799 64.3292C55.4628 65.0038 54.5118 65.4975 53.4899 65.7776C52.4679 66.0577 51.3982 66.1179 50.3512 65.9543C50.3512 69.8561 49.1318 75.3098 50.3512 78.9234C48.378 83.6012 45.784 87.2148 40.5959 88.545C35.4079 89.8752 25.0762 88.7667 19.1566 82.3597C20.1543 75.1103 17.6933 65.7991 15.1214 57.9732C13.1482 51.9653 11.0863 46.822 10.5542 44.339C15.3029 38.5299 20.8662 33.4374 27.0716 29.2194C33.1243 25.0072 35.94 19.62 42.8574 22.2138C49.7748 24.8076 50.5951 38.5971 53.1448 44.0508C55.6944 49.5045 58.9979 53.2068 58.9979 58.8157Z" fill="#F39200"/>
<path opacity="0.15" d="M25.5855 107.079C21.4617 122.331 20.8853 132.795 24.9426 149.844C16.3402 161.438 16.0741 176.137 16.3402 197.309L14.7661 196.799C14.45 196.271 14.2252 195.694 14.1009 195.092C13.3028 174.097 10.0658 157.692 17.227 146.186L12.5933 108.808C10.1101 95.5062 12.2829 88.8554 19.2446 82.3597C20.2423 75.1103 17.7813 65.7991 15.2095 57.9732L21.506 56.377L28.3126 67.2622C33.5893 76.1301 47.3353 74.423 47.9118 65.3113L50.4393 65.9986C50.4393 69.8339 49.2198 75.2876 50.4393 78.9012L51.2374 81.4951C50.7599 86.371 49.5723 91.1511 47.7122 95.6836C43.4997 106.791 36.538 111.424 25.5855 107.079Z" fill="#1D1D1B"/>
<path d="M35.7624 171.215C29.998 171.058 24.3196 169.778 19.0454 167.446C16.1442 166.27 13.5901 164.375 11.6236 161.939C9.65712 159.504 8.34289 156.608 7.80469 153.524C11.9507 137.562 11.3299 118.053 10.5539 96.8143C9.64488 80.5862 19.6884 73.4033 14.4782 54.537C13.4574 51.034 12.1447 47.6227 10.5539 44.339C13.4805 40.016 20.5974 33.9193 26.0736 27.1355C23.3244 36.0033 27.4704 47.7309 34.6981 58.5275C36.7266 63.2422 38.2933 68.1424 39.3762 73.1594V73.6915C39.731 75.465 40.0414 77.2386 40.2852 79.0565C44.4977 107.234 37.2035 139.912 35.7624 171.215Z" fill="#EDEDED"/>
<path d="M61.059 146.851C59.3297 154.544 58.4428 161.926 51.1485 163.567C47.7342 131.465 52.4123 110.981 52.6783 87.3701C52.6783 85.8404 52.6783 84.3107 52.6783 82.7588C52.6783 82.0272 52.6783 81.2735 52.6783 80.5419C52.6783 79.8103 52.6783 79.4556 52.6783 78.9013C52.6783 78.3471 52.6783 77.9259 52.6783 77.416C52.6783 76.9061 52.6783 76.7066 52.6783 76.3518C52.6783 75.9971 52.6783 75.2434 52.5675 74.6891C52.4345 72.4722 52.2349 70.2552 51.991 68.0383C51.991 67.3732 51.8358 66.7303 51.7472 66.0874C51.0247 60.1206 49.9662 54.1993 48.5767 48.3517C45.0377 39.383 39.9161 31.123 33.4561 23.9653C38.8214 18.9771 46.7587 21.0167 50.8603 26.5148C49.6409 42.0334 57.0904 46.157 59.2853 56.8427C59.5627 57.994 59.5688 59.194 59.3034 60.3482C59.0379 61.5023 58.508 62.579 57.7555 63.4935C56.9889 64.3927 56.004 65.0797 54.8954 65.4888L54.7624 77.3495C57.1791 83.2022 57.9772 91.3163 58.3541 100.627C58.598 114.483 58.2876 130.933 61.059 146.851Z" fill="#EDEDED"/>
<path d="M72.7876 22.5463C72.7866 22.7817 72.7415 23.0148 72.6546 23.2336C72.8098 24.076 72.5438 24.4307 71.7456 24.1425C71.0191 23.8927 70.3801 23.4386 69.9054 22.8345L67.2449 19.4869L62.6333 16.8266C63.337 15.9311 64.3319 15.31 65.4455 15.0711C66.5591 14.8322 67.7212 14.9905 68.7303 15.5186C69.6807 16.1076 70.4783 16.9128 71.0583 17.8686C71.8121 19.2652 72.6989 20.4846 72.4329 21.3713C72.6301 21.7012 72.7442 22.074 72.7655 22.4577L72.7876 22.5463Z" fill="#FFBB7D"/>
<path opacity="0.15" d="M72.7876 22.5463C72.7866 22.7817 72.7415 23.0148 72.6546 23.2336C72.8098 24.076 72.5438 24.4308 71.7456 24.1426C71.0191 23.8928 70.3801 23.4386 69.9054 22.8346L67.2449 19.487L62.6333 16.8266C62.8162 16.4595 63.0836 16.1411 63.4134 15.8974C63.7433 15.6536 64.1262 15.4916 64.5308 15.4245C64.9354 15.3574 65.3502 15.3873 65.741 15.5115C66.1319 15.6358 66.4877 15.8509 66.7793 16.1394C67.4222 15.4521 68.7968 15.7846 68.9964 15.7403C69.2181 16.3167 69.5285 19.8417 69.8389 20.4181C70.1888 21.0728 70.6545 21.6587 71.2135 22.1473C71.7899 22.5907 72.2999 22.9454 72.7211 22.502L72.7876 22.5463Z" fill="#1D1D1B"/>
<path d="M63.8305 13.3016L61.6134 15.5186L61.0591 18.578C61.0591 19.753 62.5224 19.6421 63.0323 18.578L63.8305 16.6936L65.6485 15.4299L66.8457 15.962L66.5132 17.5582L65.0277 19.2209C64.9079 19.3597 64.8447 19.5385 64.8505 19.7217C64.8562 19.905 64.9306 20.0794 65.0589 20.2104C65.1871 20.3415 65.3599 20.4196 65.543 20.4293C65.7261 20.439 65.9062 20.3796 66.0476 20.2629L68.7303 18.4893L69.0628 14.6761C67.5193 13.6506 65.6787 13.1671 63.8305 13.3016Z" fill="#FFBB7D"/>
<path opacity="0.1" d="M40.64 78.9234L40.1079 77.0611C34.2104 76.2187 28.712 76.4182 24.2113 79.2781C15.1655 85.4191 14.6999 101.98 16.2297 113.774C13.0149 134.392 12.5271 154.81 19.0454 167.446C16.1442 166.27 13.5901 164.375 11.6236 161.939C9.65712 159.504 8.34289 156.608 7.80469 153.524C11.9507 137.562 11.3299 118.053 10.5539 96.8142C9.64488 80.5861 19.6884 73.4032 14.4782 54.5369L17.5378 50.5242C24.1891 60.7 27.4482 74.9107 39.3762 73.115V73.647L40.64 78.9234Z" fill="#1D1D1B"/>
<path d="M10.5094 44.3389C4.76488 54.6344 1.37273 66.0745 0.576807 77.8371C-0.997336 86.8823 0.709833 103.354 4.81147 112.067C5.55151 111.347 6.46559 110.832 7.46434 110.572C8.46309 110.312 9.51232 110.315 10.5094 110.581C11.1746 98.4769 11.9949 86.7271 10.5094 80.4531L19.6439 60.5005C25.9183 46.7998 15.6531 37.6881 10.5094 44.3389Z" fill="#EDEDED"/>
<path d="M21.6174 119.981C21.3054 120.147 20.9491 120.211 20.599 120.163C20.2489 120.115 19.9226 119.959 19.6664 119.715C18.1366 118.119 16.5403 116.855 14.5005 117.498C14.1282 118.321 14.0652 119.249 14.3232 120.114V120.336C15.2258 123.219 16.4609 125.986 18.0035 128.583C18.0916 128.763 18.1176 128.967 18.0775 129.164C18.0374 129.36 17.9334 129.538 17.7818 129.669C17.5749 129.817 17.3268 129.897 17.0724 129.897C16.8179 129.897 16.5698 129.817 16.3629 129.669C16.3629 130.49 15.4095 130.8 14.7001 130.068L13.6358 128.916C13.525 129.847 12.3943 129.581 12.0395 128.916L10.0441 126.366C8.68102 124.981 7.53714 123.396 6.65197 121.666L6.2529 120.89C5.31899 118.028 4.85478 115.033 4.87829 112.022C5.56559 109.584 7.73835 109.229 10.5762 110.559L13.9684 112.311C17.1167 113.863 18.713 116.057 22.083 118.806C22.3047 119.205 22.1717 119.715 21.6174 119.981Z" fill="#FFBB7D"/>
<path opacity="0.15" d="M17.7369 129.581C17.5299 129.729 17.2819 129.808 17.0274 129.808C16.773 129.808 16.5249 129.729 16.3179 129.581C16.3179 130.401 15.3646 130.711 14.6551 129.98L13.5909 128.827C13.48 129.758 12.3493 129.492 11.9946 128.827L10.0435 126.366C8.68041 124.981 7.53653 123.396 6.65137 121.666C7.49328 121.934 8.38465 122.01 9.2596 121.887C10.1346 121.764 10.9707 121.446 11.7064 120.957C13.1031 124.349 15.7193 128.96 17.7369 129.581Z" fill="black"/>
<path opacity="0.15" d="M21.5946 119.981C21.2859 120.145 20.9334 120.208 20.5871 120.16C20.2409 120.112 19.9184 119.957 19.6657 119.715C18.1359 118.119 16.5396 116.856 14.4998 117.498C14.1275 118.321 14.0646 119.25 14.3225 120.114L13.48 116.501C17.2269 115.725 19.8209 119.272 21.5946 119.981Z" fill="black"/>
<path opacity="0.1" d="M54.6738 65.4222C55.7208 64.9025 56.6847 64.2301 57.5339 63.427C56.7673 64.3261 55.7824 65.0132 54.6738 65.4222Z" fill="#1D1D1B"/>
<path opacity="0.1" d="M58.0436 100.605C56.7134 94.7967 55.1392 89.5204 52.6783 87.3034C52.6783 85.7516 52.6783 84.2219 52.6783 82.6922C52.6783 81.9606 52.6783 81.2068 52.6783 80.4752C52.6783 79.7436 52.6783 79.3889 52.6783 78.8347C52.6783 78.2804 52.6783 77.8371 52.6783 77.3493C52.6783 76.8616 52.6783 76.6177 52.6783 76.2852C52.6783 75.9526 52.6783 75.1767 52.5674 74.6225C52.4344 72.4055 52.257 70.1886 51.991 67.9716C51.991 67.3065 51.8358 66.6636 51.7471 66.0207C52.7975 66.1005 53.8509 65.9096 54.8067 65.4665L54.6736 77.3272C56.8686 83.1799 57.6446 91.294 58.0436 100.605Z" fill="#1D1D1B"/>
<path d="M32.5918 24.2534C41.0605 34.7829 47.2239 46.973 50.6834 60.035L48.1559 35.6485L44.3868 36.5131L46.2713 33.6976L34.2768 23.3666L32.5918 24.2534Z" fill="#DADADA"/>
<path d="M27.8466 20.263C26.9154 23.411 26.1172 27.8006 24.9643 31.0595C24.277 34.7618 31.1501 42.1443 35.7173 41.8339C38.9543 41.191 38.8877 34.8727 39.3755 31.0595L27.8466 20.263Z" fill="#FFBB7D"/>
<path d="M26.162 27.0468C21.6169 30.5274 21.1957 37.8876 22.6812 46.9993H26.6054L23.3241 50.4578C29.399 53.9384 34.4096 62.7618 39.1099 72.2282C36.9593 52.586 22.5703 36.8235 26.162 27.0468Z" fill="#DADADA"/>
<path opacity="0.1" d="M28.5122 20.2408C28.5122 30.993 33.545 46.423 40.1077 43.807C44.7857 41.9226 40.1077 34.0524 40.1077 26.6699L28.5122 20.2408Z" fill="#1D1D1B"/>
<path d="M28.8232 25.2954C32.0601 29.3524 35.4745 32.8109 41.2833 31.9462C43.5004 31.6359 45.3849 28.4878 45.2076 15.8068C44.9578 11.5629 43.453 7.48884 40.8842 4.10133C39.3909 2.4626 37.4776 1.26371 35.3516 0.634549C33.2256 0.00538564 30.9679 -0.0300649 28.8232 0.532038C27.3945 0.771911 26.0282 1.29509 24.8047 2.07079C23.5812 2.8465 22.5252 3.85905 21.6989 5.04889C20.8726 6.23872 20.2926 7.5818 19.993 8.9991C19.6935 10.4164 19.6805 11.8793 19.9548 13.3017C21.4402 21.8591 25.1428 25.0294 28.8232 25.2954Z" fill="#FFBB7D"/>
<path d="M26.7615 24.5194C27.9342 24.0983 28.9122 23.2624 29.5107 22.1695C30.6352 20.0047 31.228 17.6033 31.24 15.1639C37.1597 14.5653 43.4119 10.2423 43.4119 8.24701C43.1459 5.49799 41.4609 2.99283 36.4281 0.997578C33.9368 -0.0717574 31.1659 -0.304067 28.5313 0.335535C25.8968 0.975137 23.5409 2.45213 21.8173 4.5447C15.5208 11.3507 21.1966 23.3666 26.6063 25.5392L26.7615 24.5194Z" fill="#3C3C3B"/>
<path d="M46.0937 13.7895C45.5838 12.3928 44.4309 14.4102 42.9011 16.0064C42.6411 16.2879 42.4779 16.6453 42.4355 17.0262C41.923 17.1769 41.4821 17.5075 41.1939 17.9573C41.0387 17.6913 40.3958 17.9573 40.1519 17.9573C38.1343 19.1988 35.5847 19.6422 35.5625 21.3714C35.5625 25.4063 42.4577 24.0096 41.3935 18.4229C41.625 18.0602 41.979 17.7927 42.3912 17.6691V17.7356C42.7903 20.6842 44.6083 20.1299 45.7833 18.2234C46.1345 17.5444 46.3431 16.8009 46.3965 16.0385C46.4499 15.276 46.3469 14.5107 46.0937 13.7895ZM40.7283 21.5266C40.3168 22.2935 39.6263 22.873 38.7995 23.145C38.432 23.274 38.0389 23.3132 37.6532 23.2592C37.2675 23.2052 36.9003 23.0596 36.5824 22.8346C36.3633 22.6378 36.1917 22.3939 36.0804 22.1213C35.969 21.8487 35.9208 21.5545 35.9394 21.2606C35.9394 20.4181 36.8706 19.9304 38.3782 19.2432C39.0212 18.9328 39.6863 18.5781 40.3293 18.2234C40.9722 17.8686 41.1053 18.2234 41.1718 18.5116C41.3849 19.5374 41.2278 20.6056 40.7283 21.5266ZM45.6281 17.7356C45.3216 18.4126 44.7884 18.9614 44.1205 19.2875C43.145 19.5979 42.7016 18.312 42.6572 17.0705C42.6706 16.6845 42.8197 16.3155 43.0785 16.0286C43.4776 15.6517 43.8766 15.2305 44.2314 14.8314C44.5861 14.4324 45.096 13.7451 45.4729 13.6343C45.8499 13.5234 45.739 13.6343 45.8277 13.856C46.2709 15.1255 46.1993 16.5182 45.6281 17.7356Z" fill="#1D1D1B"/>
<path d="M35.7843 21.46L26.6942 21.6596L26.4946 21.2383L35.9173 20.6619L35.7843 21.46Z" fill="#1D1D1B"/>
<path d="M28.1137 22.901C27.7017 22.2515 27.1934 21.6684 26.606 21.1718C26.0289 20.6731 25.2842 20.4117 24.5219 20.4402C24.3204 20.4468 24.1231 20.4999 23.9455 20.5954C23.756 20.7173 23.6 20.8845 23.4916 21.082C23.3832 21.2794 23.3258 21.5008 23.3247 21.726C23.3274 22.1871 23.4334 22.6416 23.6351 23.0562C23.9565 23.8924 24.4558 24.6489 25.0984 25.2732C25.7408 25.8706 26.5725 26.2236 27.4485 26.2708C27.7905 26.2911 28.1284 26.1889 28.4019 25.9826C28.5916 25.7981 28.7161 25.5568 28.7566 25.2953C28.8456 24.4452 28.6165 23.5923 28.1137 22.901Z" fill="#FFBB7D"/>
<path opacity="0.2" d="M69.507 34.3184C68.0279 35.0613 66.3955 35.4482 64.7403 35.4482C63.085 35.4482 61.4526 35.0613 59.9735 34.3184C58.2885 33.3429 57.7564 31.9906 58.1555 30.7491C58.5213 29.9106 59.1628 29.2222 59.9735 28.7982C61.4526 28.0553 63.085 27.6684 64.7403 27.6684C66.3955 27.6684 68.0279 28.0553 69.507 28.7982C70.2387 29.1951 70.8394 29.7958 71.2364 30.5274C71.294 30.648 71.3385 30.7743 71.3694 30.9043C71.7241 32.1014 71.1034 33.3873 69.507 34.3184Z" fill="#9D9D9C"/>
<path opacity="0.5" d="M69.507 34.3184C68.0279 35.0613 66.3955 35.4482 64.7403 35.4482C63.085 35.4482 61.4526 35.0613 59.9735 34.3184C58.2885 33.343 57.7564 31.9906 58.1555 30.7491L62.9001 18.445V13.6121C63.2548 12.2597 66.3144 12.1489 66.5805 13.6121V18.445L71.2364 30.5274L71.3694 30.9043C71.7241 32.1015 71.1034 33.3873 69.507 34.3184Z" fill="#DADADA"/>
<path d="M70.9478 31.0373L68.509 24.6969H60.8821L58.532 30.7713V30.9043C58.1551 32.0128 58.7759 33.1213 60.1948 33.9859C61.6155 34.6995 63.1833 35.0712 64.7731 35.0712C66.363 35.0712 67.9308 34.6995 69.3515 33.9859C70.7039 33.2543 71.3247 32.1015 70.9478 31.0373Z" fill="#3480A7"/>
<path d="M66.1367 12.7031C65.7035 12.4848 65.2251 12.3711 64.7399 12.3711C64.2548 12.3711 63.7764 12.4848 63.3432 12.7031C63.1625 12.7804 63.0068 12.9063 62.8933 13.0668C62.7798 13.2272 62.713 13.4159 62.7002 13.612C62.6992 13.8079 62.7702 13.9972 62.8997 14.1441C63.0105 14.3077 63.1638 14.438 63.3432 14.521C63.7719 14.7538 64.2521 14.8758 64.7399 14.8758C65.2278 14.8758 65.708 14.7538 66.1367 14.521C66.3123 14.4323 66.4643 14.3031 66.5801 14.1441C66.7097 13.9972 66.7807 13.8079 66.7797 13.612C66.7645 13.4166 66.6967 13.2289 66.5835 13.0689C66.4703 12.9089 66.3159 12.7825 66.1367 12.7031ZM64.7399 14.4988C64.3161 14.5029 63.8977 14.404 63.5205 14.2106C63.2323 14.0332 63.0771 13.8337 63.0771 13.612C63.0771 13.3903 63.2323 13.1908 63.5205 13.0134C63.9031 12.8381 64.3191 12.7473 64.7399 12.7473C65.1608 12.7473 65.5767 12.8381 65.9593 13.0134C66.2254 13.1908 66.4028 13.3903 66.4028 13.612C66.4028 13.8337 66.2254 14.0332 65.9593 14.2106C65.5822 14.404 65.1638 14.5029 64.7399 14.4988Z" fill="#C6C6C6"/>
<path d="M67.4887 26.6034C66.6468 27.0164 65.7215 27.2311 64.7838 27.2311C63.8461 27.2311 62.9208 27.0164 62.0789 26.6034C61.1034 26.0492 60.7487 25.2511 61.0147 24.5417C61.2326 24.0561 61.6074 23.6579 62.0789 23.411C62.9324 22.9838 63.8737 22.7614 64.8281 22.7614C65.7826 22.7614 66.7239 22.9838 67.5773 23.411C67.9979 23.6421 68.3439 23.9881 68.575 24.4087C68.5839 24.4823 68.5839 24.5567 68.575 24.6303C68.6505 25.0341 68.5834 25.4516 68.3853 25.8115C68.1872 26.1713 67.8702 26.4512 67.4887 26.6034Z" fill="#48B6EC"/>
<path opacity="0.5" d="M63.5425 14.92V18.5558L58.7979 30.8599C58.8038 30.9115 58.8038 30.9635 58.7979 31.0151C58.4653 31.9906 59.0196 32.966 60.3499 33.742L60.6603 33.9193L64.2963 18.8219V15.1196C64.0329 15.1129 63.7747 15.0446 63.5425 14.92Z" fill="white"/>
<path d="M66.5132 14.1442V15.6517L66.7792 15.8734L66.5132 17.5583L65.0277 19.221C64.9079 19.3598 64.8447 19.5386 64.8505 19.7218C64.8562 19.9051 64.9306 20.0795 65.0589 20.2105C65.1871 20.3416 65.3599 20.4197 65.543 20.4294C65.7261 20.4391 65.9062 20.3797 66.0476 20.263L68.7303 18.4894L69.0628 14.6762C68.7303 14.1885 67.3557 14.3437 66.5132 14.1442Z" fill="#FFBB7D"/>
</g>
<g clip-path="url(#clip1)">
<path d="M125 196.262L125.267 103.191C125.301 103.638 125.454 104.068 125.711 104.434C125.968 104.8 126.319 105.089 126.725 105.269L126.458 198.319C126.057 198.137 125.711 197.851 125.455 197.49C125.198 197.128 125.042 196.705 125 196.262V196.262Z" fill="#9D9D9C"/>
<path d="M194.563 105.248L164.228 123.077L164.022 216.169L194.337 198.319C194.741 198.138 195.088 197.849 195.342 197.483C195.595 197.117 195.745 196.687 195.774 196.241L196.041 103.17C196.008 103.621 195.852 104.053 195.591 104.42C195.33 104.786 194.974 105.073 194.563 105.248Z" fill="#DADADA"/>
<path d="M157.245 123.077L156.978 216.148L126.458 198.319L126.705 105.248L157.245 123.077Z" fill="#EDEDED"/>
<path d="M164.227 123.077L164.022 216.169C162.937 216.727 161.737 217.018 160.52 217.018C159.303 217.018 158.103 216.727 157.019 216.169L157.286 123.098C158.362 123.651 159.552 123.937 160.759 123.933C161.966 123.93 163.155 123.636 164.227 123.077Z" fill="#9D9D9C"/>
<path d="M194.542 101.154C195.086 101.154 195.609 101.373 195.994 101.763C196.379 102.153 196.596 102.681 196.596 103.232C196.596 103.783 196.379 104.312 195.994 104.702C195.609 105.091 195.086 105.31 194.542 105.31L164.228 123.077C163.148 123.64 161.951 123.934 160.736 123.934C159.521 123.934 158.324 123.64 157.245 123.077L126.725 105.248C126.18 105.248 125.658 105.029 125.273 104.639C124.888 104.25 124.671 103.721 124.671 103.17C124.671 102.619 124.888 102.09 125.273 101.701C125.658 101.311 126.18 101.092 126.725 101.092L157.06 83.2632C158.145 82.7048 159.345 82.4138 160.562 82.4138C161.779 82.4138 162.979 82.7048 164.063 83.2632L194.542 101.154Z" fill="#F6F6F6"/>
<path d="M152.295 151.129V152.688L152.274 156.968V161.706L131.326 149.488L140.383 144.168L152.295 151.129Z" fill="#BCBCBC"/>
<path d="M152.336 137.352L152.295 151.129L140.383 144.168L140.404 135.316V130.412L141.924 131.305L148.557 135.15L151.679 136.978L152.336 137.352Z" fill="#DADADA"/>
<path d="M140.403 130.391V144.168L131.326 149.487V125.134L138.76 129.477L140.403 130.391Z" fill="#A8A8A8"/>
<path d="M180.063 12.7585C190.948 19.117 190.989 29.3821 180.207 35.7614C169.424 42.1407 151.844 42.0991 140.958 35.7614C130.073 29.4236 130.032 19.1378 140.835 12.7585C151.638 6.3792 169.198 6.42076 180.063 12.7585Z" fill="#7BEFFF"/>
<g opacity="0.15">
<path opacity="0.15" d="M176.879 93.8401C185.957 99.1388 186.019 107.762 176.879 113.061C167.74 118.36 153.158 118.381 144.018 113.061C134.879 107.742 134.879 99.1388 143.916 93.8401C152.952 88.5413 167.781 88.5205 176.879 93.8401Z" fill="#1D1D1B"/>
</g>
<path d="M178.666 95.2738V101.321C178.666 104.022 176.9 106.723 173.388 108.781C169.412 110.83 165.014 111.898 160.552 111.898C156.09 111.898 151.691 110.83 147.715 108.781C144.142 106.703 142.355 103.96 142.355 101.217V95.0868C142.355 97.8297 144.142 100.573 147.715 102.651C151.691 104.7 156.09 105.768 160.552 105.768C165.014 105.768 169.412 104.7 173.388 102.651C176.9 100.593 178.666 97.8921 178.666 95.2738Z" fill="#EDEDED"/>
<path d="M178.666 95.1284V95.4401C178.46 96.9976 177.867 98.4771 176.945 99.7413C176.022 101.005 174.799 102.013 173.388 102.671C169.409 104.711 165.012 105.773 160.552 105.773C156.092 105.773 151.694 104.711 147.715 102.671C144.162 100.593 142.376 97.8713 142.355 95.1492V94.8375C142.555 93.286 143.141 91.8112 144.056 90.5504C144.972 89.2896 146.189 88.2839 147.592 87.627C151.568 85.578 155.967 84.5099 160.428 84.5099C164.89 84.5099 169.289 85.578 173.265 87.627C176.859 89.7049 178.646 92.4063 178.666 95.1284Z" fill="#DADADA"/>
<path d="M175.565 95.1283V95.3985C175.398 96.6897 174.909 97.9167 174.143 98.9638C173.378 100.011 172.362 100.843 171.19 101.383C167.892 103.083 164.243 103.97 160.541 103.97C156.84 103.97 153.19 103.083 149.892 101.383C148.676 100.83 147.626 99.9631 146.847 98.8686C146.068 97.7741 145.588 96.4911 145.456 95.1491V94.8997C145.627 93.6072 146.118 92.3793 146.882 91.3296C147.647 90.2799 148.661 89.4423 149.831 88.8945C153.129 87.194 156.778 86.3076 160.48 86.3076C164.181 86.3076 167.83 87.194 171.129 88.8945C172.346 89.4453 173.397 90.3121 174.177 91.4069C174.956 92.5018 175.435 93.7857 175.565 95.1283Z" fill="#9D9D9C"/>
<path d="M132.784 73.8709V73.393C132.948 69.3826 135.639 65.4137 140.835 62.3591C151.638 56.0006 169.198 56.0006 180.063 62.3591C185.505 65.5176 188.278 69.6735 188.278 73.8294V74.3073C187.952 81.5621 184.859 88.4067 179.651 93.4035C174.442 98.4002 167.522 101.16 160.344 101.104C153.166 101.047 146.289 98.1787 141.158 93.1006C136.027 88.0225 133.04 81.13 132.825 73.8709H132.784Z" fill="#5FDCED"/>
<path d="M188.274 73.9255C188.299 64.9511 175.896 57.6409 160.572 57.5976C145.248 57.5543 132.805 64.7944 132.781 73.7687C132.756 82.743 145.158 90.0533 160.483 90.0966C175.807 90.1399 188.249 82.8998 188.274 73.9255Z" fill="#7BEFFF"/>
<path d="M187.518 59.9487V72.7073C187.518 76.7178 184.889 80.749 179.672 83.8036C169.178 90.0374 152.069 90.0374 141.492 83.8036C136.132 80.7282 133.482 76.5723 133.482 72.5203V59.7617C133.482 63.9176 136.132 67.9281 141.451 71.0242C152.028 77.258 169.116 77.258 179.631 71.0242C184.889 67.9696 187.497 63.9384 187.518 59.9487Z" fill="#48C8D9"/>
<path d="M179.549 48.6447C190.127 54.8785 190.188 64.8527 179.673 71.0242C169.157 77.1957 152.07 77.258 141.492 71.0242C130.915 64.7903 130.854 54.837 141.431 48.6447C152.008 42.4524 168.972 42.4732 179.549 48.6447Z" fill="#7BEFFF"/>
<path d="M188.257 49.6629V61.9021C188.257 66.058 185.567 70.2139 180.207 73.31C169.404 79.6685 151.844 79.6685 140.979 73.31C135.495 70.11 132.764 65.9333 132.764 61.7358V49.4967C132.764 53.6526 135.475 57.8085 140.979 61.0709C151.864 67.4294 169.424 67.4294 180.227 61.0709C185.567 57.8708 188.257 53.7149 188.257 49.6629Z" fill="#5FDCED"/>
<path d="M180.063 38.0887C190.948 44.4473 190.989 54.7123 180.207 61.0708C169.424 67.4294 151.844 67.4294 140.958 61.0708C130.073 54.7123 130.032 44.4473 140.835 38.0887C151.638 31.7302 169.198 31.7302 180.063 38.0887Z" fill="#7BEFFF"/>
<path d="M187.518 35.2835V48.0421C187.518 52.0733 184.889 56.0837 179.672 59.1591C169.177 65.393 152.069 65.393 141.492 59.1591C136.172 56.0422 133.523 51.9694 133.523 47.8966V35.1172C133.503 39.1692 136.172 43.3251 141.43 46.4005C152.007 52.6343 169.095 52.6343 179.61 46.4005C184.889 43.3251 187.497 39.3147 187.518 35.2835Z" fill="#48C8D9"/>
<path d="M179.549 24.021C190.126 30.2548 190.187 40.2082 179.672 46.4005C169.156 52.5928 152.069 52.6343 141.492 46.4005C130.914 40.1666 130.853 30.1925 141.43 24.021C152.007 17.8495 168.971 17.8495 179.549 24.021Z" fill="#7BEFFF"/>
<path d="M188.257 24.3327V36.5718C188.257 40.7277 185.546 44.8836 180.186 47.9798C169.383 54.3383 151.823 54.3383 140.958 47.9798L140.178 47.481C138.661 46.5161 137.279 45.3489 136.07 44.0109C134.071 41.9713 132.917 39.2358 132.846 36.364V24.1665C132.924 27.0204 134.069 29.7381 136.05 31.7718C137.265 33.131 138.661 34.3128 140.198 35.2835L140.958 35.7614C151.843 42.0992 169.403 42.0992 180.186 35.7614C185.567 32.6029 188.257 28.4678 188.257 24.3327Z" fill="#5FDCED"/>
<path d="M180.063 12.7585C190.948 19.117 190.989 29.3821 180.207 35.7614C169.424 42.1407 151.844 42.0991 140.958 35.7614C130.073 29.4236 130.032 19.1378 140.835 12.7585C151.638 6.3792 169.198 6.42076 180.063 12.7585Z" fill="#7BEFFF"/>
<path opacity="0.75" d="M145.538 95.9388C142.764 94.0907 140.456 91.6118 138.797 88.7001C137.139 85.7884 136.177 82.5247 135.988 79.1698C135.988 79.1698 135.988 59.2007 135.988 44.0524C135.988 39.8965 135.988 37.6524 135.988 35.2004C135.988 35.0825 136.022 34.9671 136.086 34.8687C136.15 34.7702 136.242 34.693 136.349 34.6465C136.456 34.6 136.574 34.5864 136.689 34.6073C136.804 34.6282 136.91 34.6827 136.994 34.764C137.789 35.5305 138.648 36.2258 139.561 36.842C139.753 36.9635 139.912 37.1317 140.024 37.3314C140.135 37.531 140.195 37.7557 140.198 37.9848C140.198 40.8108 140.198 43.1797 140.198 47.5434C140.198 63.128 140.198 83.3672 140.198 83.4296C140.344 88.134 142.253 92.6063 145.538 95.9388Z" fill="white"/>
<path d="M178.276 25.2262C177.954 26.616 177.327 27.9147 176.442 29.0262C175.556 30.1376 174.435 31.0334 173.162 31.6471C169.258 33.6546 164.941 34.7009 160.562 34.7009C156.182 34.7009 151.865 33.6546 147.961 31.6471C146.668 31.0331 145.529 30.131 144.629 29.0082C143.729 27.8854 143.092 26.5712 142.765 25.1639C142.314 22.1924 144.018 19.1378 147.879 16.8521C151.783 14.8446 156.1 13.7982 160.479 13.7982C164.858 13.7982 169.176 14.8446 173.079 16.8521C177.002 19.1586 178.727 22.234 178.276 25.2262Z" fill="#5FDCED"/>
<path d="M178.276 25.2262C177.954 26.616 177.327 27.9147 176.442 29.0262C175.556 30.1376 174.435 31.0334 173.162 31.6471C169.258 33.6546 164.941 34.7009 160.562 34.7009C156.182 34.7009 151.865 33.6546 147.961 31.6471C146.668 31.0331 145.529 30.131 144.629 29.0082C143.729 27.8854 143.092 26.5712 142.765 25.1639C142.314 22.1924 144.018 19.1378 147.879 16.8521C151.783 14.8446 156.1 13.7982 160.479 13.7982C164.858 13.7982 169.176 14.8446 173.079 16.8521C177.002 19.1586 178.727 22.234 178.276 25.2262Z" fill="#48C8D9"/>
<path d="M178.275 25.2262C177.953 26.6159 177.327 27.9146 176.441 29.0261C175.556 30.1376 174.435 31.0333 173.161 31.647C169.258 33.6545 164.94 34.7009 160.561 34.7009C156.182 34.7009 151.865 33.6545 147.961 31.647C146.668 31.0331 145.528 30.1309 144.629 29.0081C143.729 27.8854 143.092 26.5711 142.765 25.1638C143.084 23.7729 143.71 22.4729 144.596 21.361C145.481 20.2492 146.604 19.3542 147.879 18.743C151.783 16.7355 156.1 15.6891 160.479 15.6891C164.858 15.6891 169.175 16.7355 173.079 18.743C174.37 19.3607 175.507 20.264 176.407 21.3862C177.306 22.5084 177.945 23.8207 178.275 25.2262Z" fill="#5FDCED"/>
<path d="M178.275 25.2262C177.953 26.6159 177.327 27.9146 176.441 29.0261C175.556 30.1376 174.435 31.0333 173.161 31.647C169.258 33.6545 164.94 34.7009 160.561 34.7009C156.182 34.7009 151.865 33.6545 147.961 31.647C146.668 31.0331 145.528 30.1309 144.629 29.0081C143.729 27.8854 143.092 26.5711 142.765 25.1638C143.084 23.7729 143.71 22.4729 144.596 21.361C145.481 20.2492 146.604 19.3542 147.879 18.743C151.783 16.7355 156.1 15.6891 160.479 15.6891C164.858 15.6891 169.175 16.7355 173.079 18.743C174.37 19.3607 175.507 20.264 176.407 21.3862C177.306 22.5084 177.945 23.8207 178.275 25.2262Z" fill="#5FDCED"/>
<path d="M148.66 206.61L134.981 198.61C134.551 198.335 134.192 197.959 133.934 197.514C133.677 197.07 133.529 196.569 133.502 196.054V157.799C133.502 156.843 134.16 156.469 134.981 156.947L148.66 164.927C149.084 165.211 149.438 165.593 149.691 166.04C149.944 166.487 150.09 166.989 150.118 167.503V205.758C150.118 206.693 149.46 207.088 148.66 206.61Z" fill="white"/>
<path d="M143.731 147.721C144.096 147.843 144.413 148.079 144.638 148.394C144.863 148.709 144.985 149.088 144.985 149.477C144.985 149.866 144.863 150.245 144.638 150.56C144.413 150.875 144.096 151.111 143.731 151.233C142.799 151.714 141.768 151.966 140.722 151.966C139.676 151.966 138.645 151.714 137.713 151.233C137.348 151.111 137.03 150.875 136.805 150.56C136.58 150.245 136.459 149.866 136.459 149.477C136.459 149.088 136.58 148.709 136.805 148.394C137.03 148.079 137.348 147.843 137.713 147.721C138.647 147.249 139.677 147.004 140.722 147.004C141.766 147.004 142.796 147.249 143.731 147.721Z" fill="white"/>
<path d="M152.295 152.688V156.968C151.453 157.252 150.563 157.364 149.678 157.296C148.793 157.228 147.93 156.983 147.14 156.573C146.775 156.451 146.457 156.216 146.232 155.901C146.007 155.585 145.886 155.206 145.886 154.817C145.886 154.429 146.007 154.05 146.232 153.734C146.457 153.419 146.775 153.184 147.14 153.062C147.931 152.653 148.794 152.41 149.68 152.346C150.565 152.281 151.455 152.398 152.295 152.688Z" fill="white"/>
<path d="M150.632 136.396V139.576C150.619 139.714 150.57 139.846 150.491 139.959C150.412 140.072 150.304 140.162 150.18 140.22C149.839 140.393 149.463 140.484 149.081 140.484C148.699 140.484 148.323 140.393 147.982 140.22C147.858 140.162 147.75 140.072 147.671 139.959C147.592 139.846 147.543 139.714 147.53 139.576V134.589L150.632 136.396Z" fill="#1D71B8"/>
<path d="M141.102 130.827V133.944C141.092 134.081 141.045 134.212 140.965 134.322C140.885 134.432 140.776 134.517 140.65 134.568C140.319 134.758 139.942 134.852 139.562 134.838C139.168 134.86 138.775 134.766 138.432 134.568C138.305 134.514 138.195 134.425 138.116 134.311C138.036 134.197 137.989 134.063 137.98 133.924V128.999L139.582 129.913L141.102 130.827Z" fill="#E6332A"/>
<path d="M137.323 120.604L138.022 120.209C138.226 120.085 138.46 120.019 138.699 120.019C138.938 120.019 139.172 120.085 139.377 120.209C139.912 120.564 140.357 121.039 140.678 121.598C140.999 122.157 141.186 122.785 141.225 123.43C141.249 123.666 141.211 123.904 141.113 124.119C141.016 124.335 140.863 124.52 140.671 124.656L139.932 125.072C140.122 124.939 140.274 124.757 140.371 124.545C140.469 124.334 140.508 124.099 140.486 123.866C140.447 123.221 140.259 122.594 139.938 122.035C139.618 121.476 139.172 121 138.638 120.645C138.441 120.522 138.217 120.454 137.986 120.446C137.755 120.439 137.527 120.493 137.323 120.604Z" fill="#FF6159"/>
<path d="M137.323 120.604C137.53 120.507 137.759 120.468 137.987 120.49C138.214 120.512 138.431 120.594 138.617 120.729C139.151 121.083 139.597 121.559 139.918 122.118C140.239 122.677 140.426 123.304 140.465 123.949C140.488 124.18 140.45 124.412 140.357 124.624C140.263 124.835 140.116 125.018 139.931 125.155C139.72 125.251 139.488 125.29 139.258 125.268C139.027 125.246 138.807 125.164 138.617 125.03C138.086 124.673 137.645 124.197 137.328 123.638C137.01 123.079 136.826 122.453 136.789 121.809C136.769 121.579 136.807 121.347 136.9 121.136C136.994 120.925 137.139 120.742 137.323 120.604Z" fill="#E6332A"/>
<path d="M146.894 125.425L147.592 124.988C147.8 124.894 148.028 124.856 148.255 124.878C148.482 124.899 148.699 124.981 148.886 125.113C149.416 125.47 149.858 125.946 150.175 126.505C150.492 127.064 150.677 127.69 150.714 128.334C150.74 128.565 150.705 128.799 150.611 129.011C150.517 129.223 150.368 129.406 150.18 129.539L149.44 129.976C149.627 129.836 149.774 129.649 149.868 129.434C149.962 129.219 149.998 128.983 149.974 128.75C149.934 128.11 149.748 127.488 149.431 126.933C149.114 126.377 148.674 125.904 148.146 125.549C147.967 125.419 147.757 125.338 147.537 125.316C147.317 125.294 147.095 125.332 146.894 125.425Z" fill="#2796F5"/>
<path d="M146.893 125.425C147.1 125.324 147.329 125.282 147.557 125.304C147.786 125.326 148.003 125.411 148.187 125.549C148.715 125.904 149.155 126.377 149.472 126.933C149.789 127.488 149.975 128.11 150.015 128.749C150.039 128.983 150.003 129.219 149.909 129.434C149.815 129.649 149.668 129.836 149.481 129.975C149.272 130.066 149.044 130.102 148.818 130.08C148.592 130.058 148.375 129.98 148.187 129.851C147.656 129.494 147.215 129.017 146.898 128.458C146.581 127.899 146.396 127.273 146.359 126.63C146.332 126.399 146.368 126.165 146.462 125.953C146.556 125.741 146.705 125.558 146.893 125.425Z" fill="#1D71B8"/>
</g>
<defs>
<clipPath id="clip0">
<rect width="77" height="215" fill="white"/>
</clipPath>
<clipPath id="clip1">
<rect width="71" height="209" fill="white" transform="translate(125 8)"/>
</clipPath>
</defs>
</svg>
