<svg width="278" height="249" viewBox="0 0 278 249" fill="none" xmlns="http://www.w3.org/2000/svg">
<g clip-path="url(#clip0)">
<path d="M232.043 160.76L276.278 135.248V104.029L232.043 129.539V160.76Z" fill="#07B5B8"/>
<path d="M230.79 130.274L277.742 103.197V102.72L230.79 129.8V130.274Z" fill="#0095A1"/>
<path d="M230.812 132.904L277.765 105.827V105.35L230.812 132.428V132.904Z" fill="#0095A1"/>
<path d="M230.831 135.532L277.786 108.455V107.978L230.831 135.058V135.532Z" fill="#0095A1"/>
<path d="M230.853 138.162L277.808 111.085V110.608L230.853 137.686V138.162Z" fill="#0095A1"/>
<path d="M230.875 140.79L277.828 113.713V113.236L230.875 140.316V140.79Z" fill="#0095A1"/>
<path d="M230.896 143.42L277.849 116.343V115.866L230.896 142.944V143.42Z" fill="#0095A1"/>
<path d="M230.919 146.048L277.872 118.971V118.496L230.919 145.574V146.048Z" fill="#0095A1"/>
<path d="M230.94 148.678L277.893 121.601V121.124L230.94 148.202V148.678Z" fill="#0095A1"/>
<path d="M230.96 151.306L277.915 124.229V123.752L230.96 150.832V151.306Z" fill="#0095A1"/>
<path d="M230.982 153.937L277.937 126.859V126.382L230.982 153.46V153.937Z" fill="#0095A1"/>
<path d="M231.004 156.565L277.957 129.487V129.013L231.004 156.09V156.565Z" fill="#0095A1"/>
<path d="M231.026 159.195L277.979 132.117V131.641L231.026 158.718V159.195Z" fill="#0095A1"/>
<path d="M231.048 161.823L278.001 134.745V134.268L231.048 161.348V161.823Z" fill="#0095A1"/>
<path d="M93.3455 79.9166L232.043 109.738L137.58 23.1859L93.3433 48.6959L93.3455 79.9166Z" fill="#07B5B8"/>
<path d="M92.0889 49.4327L139.044 22.3551V21.8785L92.0889 48.9561V49.4327Z" fill="#0095A1"/>
<path d="M92.1108 52.0606L139.066 24.9831V24.5064L92.1108 51.5862V52.0606Z" fill="#0095A1"/>
<path d="M92.1323 54.6908L139.085 27.6132V27.1366L92.1323 54.2142V54.6908Z" fill="#0095A1"/>
<path d="M92.1548 57.3188L139.107 30.2412V29.7646L92.1548 56.8443V57.3188Z" fill="#0095A1"/>
<path d="M92.1763 59.9489L139.129 32.8691V32.3947L92.1763 59.4723V59.9489Z" fill="#0095A1"/>
<path d="M92.1982 62.5769L139.151 35.4993V35.0227L92.1982 62.1024V62.5769Z" fill="#0095A1"/>
<path d="M92.2183 65.207L139.173 38.1294V37.6528L92.2183 64.7304V65.207Z" fill="#0095A1"/>
<path d="M92.2397 67.835L139.195 40.7574V40.2808L92.2397 67.3606V67.835Z" fill="#0095A1"/>
<path d="M92.2617 70.4651L139.214 43.3853V42.9109L92.2617 69.9885V70.4651Z" fill="#0095A1"/>
<path d="M92.2837 73.0931L139.236 46.0155V45.5389L92.2837 72.6187V73.0931Z" fill="#0095A1"/>
<path d="M92.3052 75.7232L139.258 48.6456V48.169L92.3052 75.2466V75.7232Z" fill="#0095A1"/>
<path d="M92.3252 78.3512L139.28 51.2736V50.797L92.3252 77.8768V78.3512Z" fill="#0095A1"/>
<path d="M92.3472 80.9813L233.764 109.235V108.759L92.3472 80.5047V80.9813Z" fill="#0095A1"/>
<path d="M93.3545 58.6852L127.838 38.8269L222.302 115.409L93.3632 79.9603L93.3545 58.6852Z" fill="#A5E8CC"/>
<path d="M222.337 118.523L222.61 118.363L128.147 36.1508L127.873 36.3104L222.337 118.523Z" fill="white"/>
<path d="M116.842 41.7609L229.934 120.604C229.934 120.604 228.421 121.872 227.872 121.953C227.323 122.034 110.582 43.3044 110.582 43.3044L116.842 41.7609Z" fill="#BAFFE2"/>
<path d="M220.704 117.639L110.308 45.388L109.483 46.103L220.187 118.829L220.704 117.639Z" fill="#BAFFE2"/>
<path d="M208.843 125.549L100.15 49.284L98.4497 50.5608L207.092 128.761L208.843 125.549Z" fill="#BAFFE2"/>
<path d="M203.894 130.366L92.3648 53.8316L90.5088 55.6156L199.409 133.309L203.894 130.366Z" fill="#BAFFE2"/>
<path d="M217.366 121.581L217.642 121.422L123.178 39.2095L122.902 39.3669L217.366 121.581Z" fill="white"/>
<path d="M212.397 124.638L212.67 124.48L118.209 42.2682L117.933 42.4256L212.397 124.638Z" fill="white"/>
<path d="M207.426 127.696L207.702 127.539L113.238 45.3268L112.965 45.4843L207.426 127.696Z" fill="white"/>
<path d="M202.458 130.755L202.731 130.598L108.27 48.3855L107.994 48.5429L202.458 130.755Z" fill="white"/>
<path d="M197.487 133.814L197.763 133.656L103.299 51.4419L103.026 51.6015L197.487 133.814Z" fill="white"/>
<path d="M98.0557 81.5388L98.3315 81.3814V54.5006L98.0557 54.6602V81.5388Z" fill="white"/>
<path d="M88.0332 68.2045L129.282 44.4173V44.0216L88.0332 67.8087V68.2045Z" fill="white"/>
<path d="M88.4473 76.53L129.694 52.7428V52.3471L88.4473 76.1343V76.53Z" fill="white"/>
<path d="M134.817 30.1646C134.196 31.1004 133.427 31.4262 133.427 31.8918C133.427 32.1367 133.736 32.0296 133.865 31.9596C134.896 31.3649 134.828 30.3767 135.227 30.1472C135.393 30.0488 135.461 30.1843 135.461 30.3658C135.461 30.6959 135.332 31.459 135.062 31.7847C134.679 32.2038 134.236 32.5653 133.749 32.8582C132.436 33.6103 131.906 33.0768 131.906 32.3116C131.919 31.8082 132.103 31.3241 132.427 30.9386C133.084 30.0641 133.845 29.758 133.845 29.2486C133.845 29.0146 133.659 29.0299 133.487 29.1305C132.904 29.4672 132.685 30.3308 132.309 30.5473C132.103 30.6675 131.978 30.5188 131.978 30.298C131.978 29.7558 132.405 29.0321 132.596 28.9228C132.714 28.855 132.793 28.8857 132.869 28.8419C133.135 28.5969 133.418 28.3711 133.716 28.1664C134.811 27.5389 135.362 28.0483 135.362 28.7217C135.321 29.2444 135.132 29.7447 134.817 30.1646Z" fill="#FFFF0F"/>
<path d="M127.537 33.5884C127.537 32.5609 127.476 32.6155 127.318 32.6286C127.207 32.6286 127.146 32.5674 127.146 32.4253C127.146 31.9727 127.89 31.5377 128.155 31.3846C129.269 30.7418 129.249 31.1179 129.249 31.2403C129.23 31.401 129.152 31.549 129.03 31.6557C128.958 31.7432 128.861 31.8438 128.861 32.5477C128.861 32.7489 128.861 32.8189 129.22 32.6068L129.507 32.4406C129.776 32.2854 129.921 32.2482 129.921 31.8853C129.921 31.3103 129.888 31.2534 129.748 31.2425C129.608 31.2316 129.529 31.2097 129.529 31.0108C129.529 30.6216 130.186 30.2149 130.415 30.0794C130.728 29.8979 131.665 29.4104 131.665 29.9089C131.644 30.0417 131.579 30.1635 131.479 30.2543C131.26 30.5035 131.249 30.3745 131.249 32.093C131.249 33.4441 131.322 33.3807 131.525 33.3764C131.549 33.3717 131.573 33.3726 131.596 33.3791C131.619 33.3856 131.64 33.3974 131.657 33.4137C131.675 33.4299 131.688 33.45 131.697 33.4724C131.705 33.4948 131.708 33.5188 131.705 33.5425C131.705 33.9798 130.925 34.4586 130.667 34.6073C130.409 34.7559 129.573 35.2085 129.573 34.7559C129.573 34.3034 129.921 34.4892 129.921 33.6037C129.921 33.0244 129.993 32.9478 129.209 33.407C128.929 33.5688 128.861 33.595 128.861 33.9448C128.861 35.2566 129.277 34.4673 129.253 34.9789C129.253 35.4162 128.538 35.8316 128.29 35.9737C127.196 36.6099 127.176 36.2929 127.176 36.1377C127.187 35.9908 127.256 35.8542 127.367 35.7573C127.428 35.6924 127.475 35.6156 127.504 35.5316C127.534 35.4477 127.546 35.3585 127.539 35.2697L127.537 33.5884Z" fill="#FFFF0F"/>
<path d="M124.819 37.9939C123.674 38.6498 122.61 38.3503 122.61 36.9598C122.61 36.1268 123.204 34.2137 124.751 33.3217C125.972 32.6177 126.918 33.0397 126.918 34.4149C126.918 35.7901 126.001 37.3118 124.819 37.9939ZM124.051 36.7827C124.051 37.1303 124.197 37.3905 124.539 37.1915C125.143 36.8439 125.48 35.1058 125.48 34.5679C125.48 34.2509 125.322 33.9667 125.009 34.1481C124.353 34.5133 124.051 36.1945 124.051 36.7827Z" fill="#FFFF0F"/>
<path d="M121.876 38.5842C121.876 39.1132 122.285 38.6585 122.285 39.0214C122.285 39.4412 121.456 39.9266 121.221 40.0621C120.987 40.1977 120.162 40.6524 120.162 40.2326C120.162 39.8588 120.571 39.9594 120.587 39.1395V38.7569C120.587 38.6869 120.565 38.6672 120.497 38.7066C120.346 38.794 120.177 38.9252 120.011 39.0192C119.232 39.4696 118.525 39.3581 118.525 38.3961C118.525 37.4342 119.26 36.5378 120.022 36.0983C120.145 36.0283 120.749 35.7747 121.554 35.3069C121.694 35.226 121.828 35.1363 121.968 35.0554C122.143 34.9549 122.388 34.8652 122.388 35.1232C122.388 35.5299 121.867 35.5605 121.867 36.0568L121.876 38.5842ZM119.821 37.6746C119.821 38.0704 119.965 38.3087 120.335 38.0944C120.637 37.9217 120.587 37.8015 120.587 37.6572V36.6886C120.587 36.5574 120.587 36.47 120.368 36.6034C120.191 36.7187 120.046 36.8781 119.949 37.0659C119.852 37.2537 119.806 37.4635 119.814 37.6746H119.821Z" fill="#FFFF0F"/>
<path d="M96.9038 54.6449L101.96 51.7283V44.8502L96.9038 47.7645V54.6449Z" fill="#FFFF0F"/>
<path d="M100.459 48.8446C99.8701 49.7191 99.1457 50.0361 99.1457 50.4756C99.1457 50.7073 99.4368 50.6067 99.5528 50.539C100.527 49.9771 100.463 49.0435 100.84 48.8271C100.997 48.7352 101.059 48.8642 101.059 49.0282C101.059 49.3409 100.938 50.058 100.684 50.3684C100.319 50.7647 99.8982 51.1057 99.4346 51.3807C98.2023 52.0934 97.6836 51.5797 97.6836 50.8647C97.6964 50.3898 97.8691 49.933 98.1739 49.5682C98.7889 48.744 99.5134 48.4554 99.5134 47.9722C99.5134 47.7536 99.3383 47.7689 99.1763 47.8629C98.6248 48.1799 98.419 48.9954 98.0644 49.1988C97.8674 49.3124 97.7514 49.1725 97.7514 48.9648C97.7514 48.451 98.1542 47.7689 98.3336 47.664C98.4453 47.6005 98.5197 47.6312 98.5941 47.5874C98.845 47.3568 99.112 47.1442 99.393 46.9512C100.42 46.3587 100.947 46.8397 100.947 47.4759C100.917 47.9689 100.747 48.4433 100.459 48.8446Z" fill="#0777B8"/>
<path d="M96.9087 53.4074L101.96 50.4952V51.7283L96.9087 54.6427V53.4074Z" fill="#305459"/>
<path d="M232.041 160.76L93.3433 79.9166V48.6959L232.041 129.539V160.76Z" fill="#007E94"/>
<path d="M233.295 130.274L91.8809 47.8651V47.3885L233.295 129.8V130.274Z" fill="#0095A1"/>
<path d="M233.275 132.904L91.8589 50.493V50.0186L233.275 132.428V132.904Z" fill="#005E75"/>
<path d="M233.253 135.532L91.8369 53.1232V52.6466L233.253 135.058V135.532Z" fill="#005E75"/>
<path d="M233.232 138.162L91.8154 55.7512V55.2767L233.232 137.686V138.162Z" fill="#005E75"/>
<path d="M233.209 140.79L91.793 58.3813V57.9047L233.209 140.316V140.79Z" fill="#005E75"/>
<path d="M233.188 143.42L91.7715 61.0092V60.5348L233.188 142.944V143.42Z" fill="#005E75"/>
<path d="M233.166 146.048L91.7495 63.6394V63.1628L233.166 145.574V146.048Z" fill="#005E75"/>
<path d="M233.146 148.678L91.7295 66.2674V65.7929L233.146 148.202V148.678Z" fill="#005E75"/>
<path d="M233.124 151.306L91.708 68.8975V68.4209L233.124 150.832V151.306Z" fill="#005E75"/>
<path d="M233.102 153.937L91.686 71.5255V71.0511L233.102 153.46V153.937Z" fill="#005E75"/>
<path d="M233.08 156.565L91.6636 74.1556V73.679L233.08 156.09V156.565Z" fill="#005E75"/>
<path d="M233.059 159.195L91.6426 76.7835V76.3091L233.059 158.718V159.195Z" fill="#005E75"/>
<path d="M233.037 161.823L91.6226 79.4137V78.937L233.037 161.348V161.823Z" fill="#0095A1"/>
<path d="M276.278 104.03L137.58 23.1859L93.3433 48.6959L232.041 129.539L276.278 104.03Z" fill="#41D7D9"/>
<path d="M271.515 104.029L137.58 25.9319L98.1079 48.6959L232.041 126.793L271.515 104.029Z" fill="#8DA1AD"/>
<path d="M137.58 29.1043L100.857 50.2832L98.1079 48.6959L137.58 25.9319L271.515 104.029L268.766 105.615L137.58 29.1043Z" fill="#007E94"/>
<path d="M174.462 105.256L145.463 88.6422V109.893L174.453 126.531L174.462 105.256Z" fill="#67BF9C"/>
<path d="M139.943 109.762L139.667 109.602L45.2061 27.3902L45.4796 27.5498L139.943 109.762Z" fill="white"/>
<path d="M144.912 112.821L144.638 112.661L50.1743 30.4489L50.4501 30.6085L144.912 112.821Z" fill="white"/>
<path d="M149.88 115.879L149.606 115.72V88.8411L149.882 88.9985L149.88 115.879Z" fill="white"/>
<path d="M154.85 118.938L154.575 118.778V91.8975L154.85 92.0571V118.938Z" fill="white"/>
<path d="M159.819 121.997L159.545 121.837V94.9562L159.821 95.1158L159.819 121.997Z" fill="white"/>
<path d="M164.79 125.053L164.514 124.896V98.0149L164.79 98.1745V125.053Z" fill="white"/>
<path d="M169.759 128.112L169.485 127.954V101.074L169.759 101.231V128.112Z" fill="white"/>
<path d="M44.0703 35.6567V35.261L179.781 114.379V114.777L44.0703 35.6567Z" fill="white"/>
<path d="M43.6587 43.9822V43.5865L179.369 122.707V123.103L43.6587 43.9822Z" fill="white"/>
<path d="M219.479 131.503L190.483 114.889L190.481 136.14L219.471 152.778L219.479 131.503Z" fill="#67BF9C"/>
<path d="M184.961 136.009L184.686 135.849L90.2241 53.637L90.4999 53.7966L184.961 136.009Z" fill="white"/>
<path d="M189.932 139.067L189.656 138.908L95.1948 56.6957L95.4684 56.8553L189.932 139.067Z" fill="white"/>
<path d="M194.9 142.124L194.625 141.966L194.627 115.086L194.9 115.245V142.124Z" fill="white"/>
<path d="M199.869 145.183L199.595 145.025V118.144L199.871 118.304L199.869 145.183Z" fill="white"/>
<path d="M204.839 148.241L204.563 148.084V121.203L204.839 121.36V148.241Z" fill="white"/>
<path d="M209.808 151.3L209.534 151.14V124.262L209.808 124.419V151.3Z" fill="white"/>
<path d="M214.779 154.359L214.503 154.199V127.32L214.779 127.478V154.359Z" fill="white"/>
<path d="M89.0903 61.9035V61.5078L224.801 140.626V141.022L89.0903 61.9035Z" fill="white"/>
<path d="M88.6763 70.229V69.8333L224.387 148.952V149.35L88.6763 70.229Z" fill="white"/>
<path d="M130.12 79.2847L101.305 62.3517L101.071 83.6027L129.875 100.558L130.12 79.2847Z" fill="#67BF9C"/>
<path d="M95.5513 83.4081L95.2799 83.2485L1.729 0L2.0026 0.161788L95.5513 83.4081Z" fill="white"/>
<path d="M100.487 86.5215L100.215 86.3597L6.66455 3.11334L6.93814 3.27513L100.487 86.5215Z" fill="white"/>
<path d="M105.423 89.6348L105.149 89.473L105.447 62.5943L105.72 62.7561L105.423 89.6348Z" fill="white"/>
<path d="M110.359 92.748L110.085 92.5863L110.383 65.7076L110.656 65.8694L110.359 92.748Z" fill="white"/>
<path d="M115.294 95.8614L115.02 95.6996L115.318 68.821L115.591 68.9827L115.294 95.8614Z" fill="white"/>
<path d="M120.229 98.9747L119.956 98.8129L120.253 71.9343L120.525 72.0961L120.229 98.9747Z" fill="white"/>
<path d="M125.165 102.086L124.891 101.924L125.189 75.0454L125.46 75.2072L125.165 102.086Z" fill="white"/>
<path d="M0.505859 8.25336L0.510237 7.85764L135.339 88.4651L135.334 88.863L0.505859 8.25336Z" fill="white"/>
<path d="M0 16.5745L0.00437747 16.1766L134.833 96.7862L134.828 97.1841L0 16.5745Z" fill="white"/>
<path d="M232.393 119.679L250.875 109.019V83.8672L232.391 94.5256L232.393 119.679Z" fill="#E1E1DF"/>
<path d="M211.579 107.63L232.394 119.679L232.391 94.5255L211.579 82.4789V107.63Z" fill="#C4C4AF"/>
<path d="M211.579 107.63L230.06 96.972V71.8206L211.579 82.4789V107.63Z" fill="#C4C4AF"/>
<path d="M243.396 94.6611L247.384 92.3589V89.3702L243.396 91.6702V94.6611Z" fill="#5F819C"/>
<path d="M235.451 99.2415L239.439 96.9414V93.9506L235.451 96.2528V99.2415Z" fill="#5F819C"/>
<path d="M250.875 83.8672L230.06 71.8206L211.579 82.4789L232.391 94.5256L250.875 83.8672Z" fill="#F5F5F3"/>
<path d="M253.152 81.5519L230.06 68.187L209.3 80.1592L232.391 93.5264L253.152 81.5519Z" fill="#87DFFF"/>
<path d="M250.875 81.5497L230.06 69.5031L211.579 80.1614L232.391 92.2102L250.875 81.5497Z" fill="#F5F5F3"/>
<path d="M253.151 81.5519L250.875 83.8673L232.391 94.5256V93.5264L253.151 81.5519Z" fill="#52C2EB"/>
<path d="M232.391 93.5264L209.3 80.1593L211.579 82.4789L232.391 94.5256V93.5264Z" fill="#279FCC"/>
<path d="M230.06 71.0991L212.958 80.9616L211.579 80.1614L230.06 69.5031L250.875 81.5497L249.494 82.3477L230.06 71.0991Z" fill="#279FCC"/>
<path d="M181.744 90.2294L200.225 79.5689V54.4175L181.744 65.0758V90.2294Z" fill="#E1E1DF"/>
<path d="M160.929 78.1806L181.744 90.2295V65.0758L160.929 53.0292V78.1806Z" fill="#C4C4AF"/>
<path d="M160.929 78.1807L179.411 67.5223V42.3709L160.929 53.0292V78.1807Z" fill="#C4C4AF"/>
<path d="M192.747 65.2114L196.734 62.9114V59.9205L192.747 62.2205V65.2114Z" fill="#5F819C"/>
<path d="M184.801 69.7917L188.789 67.4917V64.5008L184.801 66.8008V69.7917Z" fill="#5F819C"/>
<path d="M200.226 54.4175L179.411 42.3709L160.929 53.0292L181.744 65.0759L200.226 54.4175Z" fill="#F5F5F3"/>
<path d="M202.504 52.1022L179.413 38.7372L158.651 50.7095L181.742 64.0767L202.504 52.1022Z" fill="#87DFFF"/>
<path d="M200.226 52.1022L179.411 40.0534L160.929 50.7117L181.744 62.7605L200.226 52.1022Z" fill="#F5F5F3"/>
<path d="M202.504 52.1022L200.226 54.4175L181.744 65.0758L181.742 64.0767L202.504 52.1022Z" fill="#52C2EB"/>
<path d="M181.742 64.0767L158.651 50.7095L160.929 53.0292L181.744 65.0758L181.742 64.0767Z" fill="#279FCC"/>
<path d="M179.411 41.6494L162.308 51.5119L160.929 50.7117L179.411 40.0534L200.226 52.1022L198.845 52.898L179.411 41.6494Z" fill="#279FCC"/>
<path d="M136.386 64.8069L154.868 54.1464V28.995L136.384 39.6533L136.386 64.8069Z" fill="#E1E1DF"/>
<path d="M115.572 52.7581L136.387 64.8069L136.384 39.6533L115.572 27.6067V52.7581Z" fill="#C4C4AF"/>
<path d="M115.572 52.7581L134.053 42.0998V16.9483L115.572 27.6066V52.7581Z" fill="#C4C4AF"/>
<path d="M147.388 39.7889L151.378 37.4888V34.498L147.388 36.798V39.7889Z" fill="#5F819C"/>
<path d="M139.445 44.3692L143.433 42.0692V39.0783L139.445 41.3783V44.3692Z" fill="#5F819C"/>
<path d="M154.868 28.995L134.053 16.9483L115.572 27.6066L136.384 39.6533L154.868 28.995Z" fill="#F5F5F3"/>
<path d="M157.146 26.6796L134.055 13.3147L113.293 25.287L136.384 38.6541L157.146 26.6796Z" fill="#87DFFF"/>
<path d="M154.868 26.6797L134.053 14.6309L115.572 25.2892L136.384 37.338L154.868 26.6797Z" fill="#F5F5F3"/>
<path d="M157.147 26.6796L154.868 28.9949L136.384 39.6532V38.6541L157.147 26.6796Z" fill="#52C2EB"/>
<path d="M136.384 38.6541L113.293 25.287L115.571 27.6066L136.384 39.6533V38.6541Z" fill="#279FCC"/>
<path d="M134.053 16.2269L116.951 26.0894L115.572 25.2892L134.053 14.6309L154.868 26.6797L153.487 27.4755L134.053 16.2269Z" fill="#279FCC"/>
<path d="M28.0047 182.114C29.4094 182.114 30.5481 181.457 30.5481 180.647C30.5481 179.837 29.4094 179.18 28.0047 179.18C26.6001 179.18 25.4614 179.837 25.4614 180.647C25.4614 181.457 26.6001 182.114 28.0047 182.114Z" fill="#F0F0F0"/>
<path d="M42.556 181.591C43.9606 181.591 45.0993 180.935 45.0993 180.124C45.0993 179.314 43.9606 178.657 42.556 178.657C41.1514 178.657 40.0127 179.314 40.0127 180.124C40.0127 180.935 41.1514 181.591 42.556 181.591Z" fill="#F0F0F0"/>
<path d="M49.794 167.107H19.2983V181.294H49.794V167.107Z" fill="url(#paint0_linear)"/>
<path d="M34.554 189.974C42.983 189.974 49.8161 186.033 49.8161 181.172C49.8161 176.31 42.983 172.369 34.554 172.369C26.125 172.369 19.292 176.31 19.292 181.172C19.292 186.033 26.125 189.974 34.554 189.974Z" fill="url(#paint1_linear)"/>
<path d="M26.5887 170.174H22.4805V195.778H26.5887V170.174Z" fill="#DED6D6"/>
<path d="M34.554 176.261C42.983 176.261 49.8161 172.32 49.8161 167.459C49.8161 162.598 42.983 158.657 34.554 158.657C26.125 158.657 19.292 162.598 19.292 167.459C19.292 172.32 26.125 176.261 34.554 176.261Z" fill="#E8E3E3"/>
<path d="M31.6819 168.377C32.2972 168.377 32.796 168.09 32.796 167.735C32.796 167.38 32.2972 167.092 31.6819 167.092C31.0667 167.092 30.5679 167.38 30.5679 167.735C30.5679 168.09 31.0667 168.377 31.6819 168.377Z" fill="#F0F0F0"/>
<path d="M38.85 167.05C39.2877 167.302 39.2877 167.706 38.85 167.96C38.6059 168.084 38.3359 168.148 38.0621 168.148C37.7882 168.148 37.5182 168.084 37.2741 167.96C36.8364 167.708 36.8364 167.304 37.2741 167.05C37.5182 166.926 37.7882 166.861 38.0621 166.861C38.3359 166.861 38.6059 166.926 38.85 167.05Z" fill="#F0F0F0"/>
<path d="M41.2384 161.799H27.8652V168.021H41.2384V161.799Z" fill="#D1C9C9"/>
<path d="M34.5535 171.825C38.25 171.825 41.2467 170.097 41.2467 167.966C41.2467 165.835 38.25 164.107 34.5535 164.107C30.857 164.107 27.8604 165.835 27.8604 167.966C27.8604 170.097 30.857 171.825 34.5535 171.825Z" fill="#D1C9C9"/>
<path d="M31.0606 163.143H29.2593V174.37H31.0606V163.143Z" fill="#DED6D6"/>
<path d="M43.1641 155.31H37.2896V174.995H43.1641V155.31Z" fill="#B8AEAE"/>
<path d="M34.5535 165.813C38.25 165.813 41.2467 164.085 41.2467 161.954C41.2467 159.823 38.25 158.095 34.5535 158.095C30.857 158.095 27.8604 159.823 27.8604 161.954C27.8604 164.085 30.857 165.813 34.5535 165.813Z" fill="#FAF5F5"/>
<path d="M34.5535 164.625C37.1125 164.625 39.187 163.429 39.187 161.954C39.187 160.478 37.1125 159.282 34.5535 159.282C31.9944 159.282 29.9199 160.478 29.9199 161.954C29.9199 163.429 31.9944 164.625 34.5535 164.625Z" fill="#948D8D"/>
<path d="M10.6463 191.388C12.051 191.388 13.1896 190.731 13.1896 189.921C13.1896 189.111 12.051 188.454 10.6463 188.454C9.24171 188.454 8.10303 189.111 8.10303 189.921C8.10303 190.731 9.24171 191.388 10.6463 191.388Z" fill="#F0F0F0"/>
<path d="M25.1966 190.866C26.6013 190.866 27.7399 190.209 27.7399 189.399C27.7399 188.588 26.6013 187.932 25.1966 187.932C23.792 187.932 22.6533 188.588 22.6533 189.399C22.6533 190.209 23.792 190.866 25.1966 190.866Z" fill="#F0F0F0"/>
<path d="M32.4346 176.381H1.93896V190.568H32.4346V176.381Z" fill="url(#paint2_linear)"/>
<path d="M17.1947 199.25C25.6237 199.25 32.4567 195.309 32.4567 190.448C32.4567 185.587 25.6237 181.646 17.1947 181.646C8.76567 181.646 1.93262 185.587 1.93262 190.448C1.93262 195.309 8.76567 199.25 17.1947 199.25Z" fill="url(#paint3_linear)"/>
<path d="M17.1947 185.538C25.6237 185.538 32.4567 181.597 32.4567 176.736C32.4567 171.874 25.6237 167.933 17.1947 167.933C8.76567 167.933 1.93262 171.874 1.93262 176.736C1.93262 181.597 8.76567 185.538 17.1947 185.538Z" fill="#E8E3E3"/>
<path d="M15.1112 176.556C15.549 176.808 15.549 177.212 15.1112 177.466C14.8671 177.59 14.5971 177.654 14.3233 177.654C14.0494 177.654 13.7794 177.59 13.5353 177.466C13.0976 177.214 13.0976 176.81 13.5353 176.556C13.7794 176.432 14.0494 176.368 14.3233 176.368C14.5971 176.368 14.8671 176.432 15.1112 176.556Z" fill="#F0F0F0"/>
<path d="M21.4911 176.327C21.9289 176.578 21.9289 176.983 21.4911 177.236C21.247 177.36 20.977 177.425 20.7032 177.425C20.4293 177.425 20.1593 177.36 19.9152 177.236C19.4775 176.985 19.4775 176.58 19.9152 176.327C20.1593 176.203 20.4293 176.138 20.7032 176.138C20.977 176.138 21.247 176.203 21.4911 176.327Z" fill="#F0F0F0"/>
<path d="M23.879 171.073H10.5059V177.295H23.879V171.073Z" fill="#D1C9C9"/>
<path d="M17.1941 181.1C20.8906 181.1 23.8873 179.372 23.8873 177.241C23.8873 175.109 20.8906 173.382 17.1941 173.382C13.4976 173.382 10.501 175.109 10.501 177.241C10.501 179.372 13.4976 181.1 17.1941 181.1Z" fill="#D1C9C9"/>
<path d="M13.7012 172.417H11.8999V183.644H13.7012V172.417Z" fill="#DED6D6"/>
<path d="M25.8047 164.586H19.9302V184.272H25.8047V164.586Z" fill="#B8AEAE"/>
<path d="M17.1941 175.087C20.8906 175.087 23.8873 173.359 23.8873 171.228C23.8873 169.097 20.8906 167.369 17.1941 167.369C13.4976 167.369 10.501 169.097 10.501 171.228C10.501 173.359 13.4976 175.087 17.1941 175.087Z" fill="#FAF5F5"/>
<path d="M17.1951 173.9C19.7541 173.9 21.8286 172.704 21.8286 171.228C21.8286 169.753 19.7541 168.557 17.1951 168.557C14.636 168.557 12.5615 169.753 12.5615 171.228C12.5615 172.704 14.636 173.9 17.1951 173.9Z" fill="#948D8D"/>
<path d="M72.5129 173.213L134.358 137.041V116.819L72.5107 152.992L72.5129 173.213Z" fill="#E1E1DF"/>
<path d="M47.0166 158.458L72.5132 173.213L72.511 152.992L47.0166 138.237V158.458Z" fill="#C4C4AF"/>
<path d="M47.0166 158.458L69.6569 155.99L108.864 102.062L47.0166 138.237V158.458Z" fill="#C4C4AF"/>
<path d="M134.358 116.819L108.864 102.062L47.0166 138.237L72.511 152.992L134.358 116.819Z" fill="#F5F5F3"/>
<path d="M137.149 113.984L108.864 97.6127L44.2261 135.397L72.5111 151.768L137.149 113.984Z" fill="#87DFFF"/>
<path d="M134.358 113.982L108.864 99.224L47.0166 135.399L72.511 150.157L134.358 113.982Z" fill="#8684A1"/>
<path d="M137.148 113.984L134.358 116.819L72.5107 152.992V151.768L137.148 113.984Z" fill="#52C2EB"/>
<path d="M72.5111 151.768L44.2261 135.397L47.0167 138.237L72.5111 152.992V151.768Z" fill="#279FCC"/>
<path d="M108.864 101.179L48.7063 136.378L47.0166 135.399L108.864 99.224L134.358 113.982L132.668 114.957L108.864 101.179Z" fill="#279FCC"/>
<path d="M90.1808 49.2775H57.0762V135.143H90.1808V49.2775Z" fill="url(#paint4_linear)"/>
<path d="M73.6351 144.564C82.7858 144.564 90.2038 140.286 90.2038 135.01C90.2038 129.733 82.7858 125.455 73.6351 125.455C64.4845 125.455 57.0664 129.733 57.0664 135.01C57.0664 140.286 64.4845 144.564 73.6351 144.564Z" fill="url(#paint5_linear)"/>
<path d="M67.5047 49.3125H61.0742V147.572H67.5047V49.3125Z" fill="#DEE4EB"/>
<path d="M73.6351 59.2143C82.7858 59.2143 90.2038 54.9367 90.2038 49.6601C90.2038 44.3834 82.7858 40.1059 73.6351 40.1059C64.4845 40.1059 57.0664 44.3834 57.0664 49.6601C57.0664 54.9367 64.4845 59.2143 73.6351 59.2143Z" fill="#DEE4EB"/>
<path d="M73.6356 144.992C69.3151 144.992 64.9945 144.043 61.7026 142.15C58.4108 140.257 56.6313 137.732 56.6313 135.016H57.5068C57.5068 137.406 59.1528 139.671 62.1404 141.396C68.4877 145.051 78.7967 145.051 85.1353 141.396C88.0638 139.699 89.7009 137.478 89.7666 135.13L90.6421 135.15C90.5786 137.81 88.7795 140.292 85.573 142.146C82.2811 144.043 77.9584 144.992 73.6356 144.992Z" fill="#6E7999"/>
<path d="M73.6356 134.323C69.3151 134.323 64.9923 133.374 61.7026 131.481C58.413 129.588 56.6379 127.069 56.6313 124.358H57.5068C57.5068 126.745 59.1571 129.008 62.1404 130.729C68.4877 134.384 78.7967 134.384 85.1353 130.729C88.0944 129.021 89.7316 126.778 89.7666 124.413H90.6421C90.6115 127.097 88.8101 129.605 85.573 131.472C82.2789 133.381 77.9584 134.323 73.6356 134.323Z" fill="#6E7999"/>
<path d="M73.6354 123.654C69.3148 123.654 64.9943 122.705 61.7024 120.812C58.4106 118.918 56.6508 116.402 56.6333 113.704H57.5088C57.5088 116.087 59.1635 118.346 62.1423 120.064C68.4897 123.72 78.7986 123.72 85.1372 120.064C88.1248 118.341 89.7685 116.076 89.7664 113.689H90.6418C90.6418 116.402 88.8449 118.936 85.5749 120.818C82.305 122.701 77.9581 123.654 73.6354 123.654Z" fill="#6E7999"/>
<path d="M73.6354 112.985C69.3148 112.985 64.9943 112.038 61.7024 110.142C58.4478 108.264 56.6464 105.741 56.6333 103.039H57.5088C57.5219 105.418 59.1679 107.674 62.1423 109.39C68.4897 113.048 78.7986 113.048 85.1372 109.39C88.1533 107.652 89.797 105.368 89.7664 102.956L90.6419 102.945C90.6769 105.685 88.8778 108.243 85.5772 110.147C82.2765 112.051 77.9582 112.985 73.6354 112.985Z" fill="#6E7999"/>
<path d="M73.6354 102.315C69.3148 102.315 64.9921 101.369 61.7024 99.4732C58.4521 97.5974 56.6508 95.0787 56.6333 92.3808H57.5088C57.5263 94.7573 59.1722 97.0114 62.1423 98.7211C68.4897 102.377 78.7986 102.377 85.1372 98.7211C88.1796 96.9721 89.8233 94.6589 89.7642 92.2256L90.6397 92.2037C90.7075 94.9716 88.9084 97.5536 85.575 99.4754C82.2787 101.369 77.9582 102.315 73.6354 102.315Z" fill="#6E7999"/>
<path d="M73.6354 91.6484C69.3148 91.6484 64.9943 90.6995 61.7024 88.8061C58.4565 86.9303 56.6508 84.4073 56.6333 81.7203H57.5088C57.5307 84.0946 59.1766 86.3443 62.1423 88.0606C68.4897 91.7161 78.7986 91.7161 85.1372 88.0606C88.2014 86.2897 89.8517 83.9613 89.7642 81.5016L90.6397 81.471C90.7404 84.263 88.9434 86.8691 85.5771 88.8105C82.2809 90.6995 77.9581 91.6484 73.6354 91.6484Z" fill="#6E7999"/>
<path d="M73.6354 80.9791C69.3148 80.9791 64.9921 80.0302 61.7024 78.1369C58.4609 76.2676 56.6683 73.7642 56.6333 71.0663H57.5088C57.5351 73.4363 59.1788 75.6838 62.1423 77.3935C68.4897 81.0491 78.7986 81.0491 85.1372 77.3935C88.2365 75.6051 89.878 73.257 89.762 70.7799L90.6375 70.7384C90.771 73.5587 88.9741 76.1889 85.5771 78.1478C82.2787 80.0346 77.9582 80.9791 73.6354 80.9791Z" fill="#6E7999"/>
<path d="M73.6354 70.3098C69.3148 70.3098 64.9921 69.361 61.7024 67.4676C58.4653 65.6005 56.6683 63.095 56.6333 60.408H57.5088C57.5372 62.7736 59.1832 65.0168 62.1423 66.7243C68.4897 70.3798 78.7986 70.3798 85.1372 66.7243C88.2649 64.9206 89.9064 62.5506 89.7598 60.0517L90.6353 60.0014C90.7994 62.8042 88.9565 65.5306 85.5771 67.4786C82.2787 69.361 77.9581 70.3098 73.6354 70.3098Z" fill="#6E7999"/>
<path d="M73.6354 59.6406C69.3148 59.6406 64.9921 58.6918 61.7024 56.7984C58.4696 54.9335 56.6683 52.4258 56.6333 49.7453H57.5088C57.5416 52.1088 59.1876 54.3497 62.1423 56.0529C68.4897 59.7084 78.7986 59.7084 85.1372 56.0529C88.2474 54.2601 89.9327 51.8049 89.7598 49.3212L90.6353 49.26C90.8301 52.0913 88.9872 54.8416 85.5771 56.8093C82.2787 58.6918 77.9582 59.6406 73.6354 59.6406Z" fill="#6E7999"/>
<path d="M125.167 28.3085H92.0625V114.174H125.167V28.3085Z" fill="url(#paint6_linear)"/>
<path d="M108.622 123.595C117.773 123.595 125.191 119.317 125.191 114.041C125.191 108.764 117.773 104.486 108.622 104.486C99.4718 104.486 92.0537 108.764 92.0537 114.041C92.0537 119.317 99.4718 123.595 108.622 123.595Z" fill="url(#paint7_linear)"/>
<path d="M102.962 31.9509H96.5317V130.211H102.962V31.9509Z" fill="#DEE4EB"/>
<path d="M108.622 38.2453C117.773 38.2453 125.191 33.9677 125.191 28.6911C125.191 23.4144 117.773 19.1368 108.622 19.1368C99.4718 19.1368 92.0537 23.4144 92.0537 28.6911C92.0537 33.9677 99.4718 38.2453 108.622 38.2453Z" fill="#DEE4EB"/>
<path d="M108.622 124.023C104.302 124.023 99.9813 123.075 96.6895 121.181C93.3976 119.288 91.6182 116.765 91.6182 114.043H92.4937C92.4937 116.432 94.1396 118.697 97.1294 120.422C103.477 124.078 113.783 124.078 120.122 120.422C123.055 118.73 124.699 116.509 124.756 114.165L125.631 114.185C125.568 116.846 123.768 119.327 120.564 121.181C117.279 123.075 112.945 124.023 108.622 124.023Z" fill="#6E7999"/>
<path d="M108.622 113.354C104.302 113.354 99.9791 112.405 96.6895 110.512C93.3998 108.619 91.6247 106.1 91.6182 103.389H92.4937C92.4937 105.776 94.144 108.039 97.1294 109.76C103.477 113.415 113.783 113.415 120.122 109.76C123.081 108.052 124.718 105.809 124.753 103.444H125.629C125.598 106.128 123.797 108.636 120.562 110.503C117.266 112.405 112.945 113.354 108.622 113.354Z" fill="#6E7999"/>
<path d="M108.623 102.685C104.302 102.685 99.9816 101.736 96.6897 99.8426C93.4307 97.9624 91.6294 95.4372 91.6206 92.7305H92.4961C92.4961 95.1136 94.1508 97.3721 97.1318 99.0905C103.479 102.746 113.786 102.746 120.124 99.0905C123.112 97.3677 124.756 95.1027 124.754 92.7152H125.629C125.629 95.4285 123.832 97.9624 120.564 99.8448C117.297 101.727 112.945 102.685 108.623 102.685Z" fill="#6E7999"/>
<path d="M108.623 92.0157C104.302 92.0157 99.9816 91.0668 96.6897 89.1734C93.4351 87.2976 91.6337 84.7746 91.6206 82.0723H92.4961C92.5092 84.451 94.1552 86.7073 97.1318 88.4235C103.479 92.0813 113.786 92.0813 120.124 88.4235C123.141 86.6854 124.784 84.4007 124.754 81.9892H125.629C125.664 84.7287 123.865 87.2867 120.567 89.1888C117.268 91.0909 112.945 92.0157 108.623 92.0157Z" fill="#6E7999"/>
<path d="M108.623 81.3464C104.302 81.3464 99.9794 80.3997 96.6897 78.5042C93.4394 76.6283 91.6381 74.1097 91.6206 71.4118H92.4961C92.5136 73.7883 94.1595 76.0402 97.1318 77.7521C103.479 81.4076 113.786 81.4076 120.125 77.7521C123.167 76.003 124.811 73.6899 124.751 71.2565L125.627 71.2347C125.695 74.0026 123.896 76.5846 120.564 78.5064C117.266 80.3997 112.945 81.3464 108.623 81.3464Z" fill="#6E7999"/>
<path d="M108.623 70.6794C104.302 70.6794 99.9816 69.7305 96.6897 67.8371C93.4438 65.9657 91.6425 63.4492 91.6206 60.7557H92.4961C92.518 63.13 94.1639 65.3797 97.1318 67.096C103.479 70.7515 113.786 70.7515 120.124 67.096C123.189 65.3251 124.839 62.9966 124.751 60.537L125.627 60.5064C125.728 63.2983 123.931 65.9044 120.567 67.8459C117.279 69.7305 112.945 70.6794 108.623 70.6794Z" fill="#6E7999"/>
<path d="M108.623 60.0101C104.302 60.0101 99.9794 59.0612 96.6897 57.1679C93.4482 55.2986 91.6556 52.7952 91.6206 50.0973L92.4961 50.0864C92.5224 52.4564 94.1661 54.7039 97.1318 56.4136C103.479 60.0691 113.786 60.0691 120.125 56.4136C123.224 54.6252 124.865 52.2771 124.749 49.8L125.625 49.7585C125.758 52.5788 123.961 55.2089 120.567 57.1679C117.266 59.0612 112.945 60.0101 108.623 60.0101Z" fill="#6E7999"/>
<path d="M108.623 49.3409C104.302 49.3409 99.9794 48.392 96.6897 46.4987C93.4526 44.6316 91.6556 42.126 91.6206 39.439L92.4961 39.4281C92.5246 41.7937 94.1705 44.0369 97.1318 45.7444C103.479 49.3999 113.786 49.3999 120.124 45.7444C123.252 43.9407 124.894 41.5707 124.747 39.0717L125.623 39.0215C125.785 41.8243 123.942 44.5507 120.564 46.4987C117.266 48.392 112.945 49.3409 108.623 49.3409Z" fill="#6E7999"/>
<path d="M108.623 38.6716C104.302 38.6716 99.9794 37.7228 96.6897 35.8294C93.457 33.9667 91.6556 31.4568 91.6206 28.7786L92.4961 28.7676C92.5289 31.131 94.1749 33.372 97.1319 35.0751C103.479 38.7307 113.786 38.7307 120.125 35.0751C123.235 33.2824 124.92 30.8271 124.747 28.3413L125.623 28.2823C125.817 31.1245 123.975 33.8639 120.567 35.8294C117.266 37.7228 112.945 38.6716 108.623 38.6716Z" fill="#6E7999"/>
<path d="M35.0355 164.521C34.1252 164.521 33.2523 164.159 32.6087 163.517C31.9651 162.874 31.6035 162.002 31.6035 161.092V126.614C31.6035 125.705 31.9651 124.833 32.6087 124.19C33.2523 123.547 34.1252 123.186 35.0355 123.186C35.9457 123.186 36.8186 123.547 37.4622 124.19C38.1058 124.833 38.4674 125.705 38.4674 126.614V161.092C38.4674 162.002 38.1058 162.874 37.4622 163.517C36.8186 164.159 35.9457 164.521 35.0355 164.521Z" fill="#FFC847"/>
<path d="M16.6673 173.594C15.7571 173.594 14.8842 173.233 14.2405 172.59C13.5969 171.947 13.2354 171.075 13.2354 170.166V147.717C13.2402 143.888 14.2541 140.129 16.1752 136.816C18.0963 133.504 20.8568 130.755 24.179 128.846L60.5317 108.437C60.9248 108.213 61.3585 108.069 61.8076 108.013C62.2567 107.957 62.7125 107.99 63.1487 108.111C63.5849 108.231 63.993 108.437 64.3493 108.716C64.7056 108.995 65.0031 109.341 65.2248 109.735C65.4465 110.13 65.588 110.564 65.641 111.013C65.6941 111.462 65.6577 111.917 65.534 112.352C65.4103 112.787 65.2016 113.193 64.9201 113.547C64.6386 113.901 64.2897 114.196 63.8936 114.414L27.5606 134.809C25.2928 136.116 23.4089 137.996 22.0978 140.26C20.7867 142.524 20.0944 145.092 20.0905 147.708V170.166C20.0905 171.073 19.7301 171.944 19.0884 172.587C18.4467 173.229 17.576 173.592 16.6673 173.594Z" fill="#FFB60A"/>
<path d="M211.443 158.545V164.978L191.862 172.195L200.816 161.252L211.443 158.545Z" fill="#D1C3B6"/>
<path d="M211.443 164.977L65.7582 249L12.2983 218.168L157.985 134.146L211.443 164.977Z" fill="#D1C3B6"/>
<path d="M211.443 158.545L65.7582 242.566L12.2983 211.734L157.985 127.714L211.443 158.545Z" fill="#F1E7DE"/>
<path d="M200.834 159.015L65.3492 237.152L21.2769 211.734L156.76 133.597L200.834 159.015Z" fill="#6AC6E0"/>
<path d="M200.834 159.015L65.3492 237.152L21.2769 211.734L156.76 133.597L200.834 159.015Z" fill="#D1C3B6"/>
<path d="M200.834 165.762L65.3492 243.899L21.2769 218.481L156.76 140.344L200.834 165.762Z" fill="#53BFD4"/>
<path d="M12.2983 211.734V218.169L65.7582 249V242.566L12.2983 211.734Z" fill="#E0D2C5"/>
<path d="M156.759 133.597V140.344L194.808 162.31L200.834 159.015L156.759 133.597Z" fill="#E0D2C5"/>
<path d="M111.632 174.446L118.726 178.537V138.527C118.726 131.794 113.976 123.575 108.137 120.208L86.7222 108.291V116.472L108.137 128.389C110.065 129.502 111.639 132.213 111.639 134.437L111.632 174.446Z" fill="#C0CDCF"/>
<path d="M118.726 178.537L111.913 182.521L108.84 138.346L104.688 129.846L86.4861 119.476L79.9111 112.263L86.7225 108.277L108.166 124.609L114.029 134.251L115.016 139.903L118.726 178.537Z" fill="#C0CDCF"/>
<path d="M104.819 178.432L111.912 182.523V142.513C111.912 135.779 107.161 127.561 101.323 124.194L79.9087 112.276V120.457L101.323 132.375C103.249 133.488 104.825 136.199 104.825 138.422L104.819 178.432Z" fill="#E1E7E8"/>
<path d="M146.581 154.676L153.675 158.768V118.746C153.675 112.012 148.926 103.796 143.086 100.429L121.671 88.5088V96.6922L143.086 108.61C145.014 109.72 146.588 112.434 146.588 114.655L146.581 154.676Z" fill="#C0CDCF"/>
<path d="M153.675 158.766L146.862 162.752L143.789 118.577L139.637 110.075L121.435 99.705L114.86 92.4945L121.672 88.5088L143.115 104.838L148.978 114.482L149.965 120.132L153.675 158.766Z" fill="#C0CDCF"/>
<path d="M139.768 158.661L146.862 162.752V122.731C146.862 115.997 142.11 107.779 136.273 104.412L114.872 92.4966V100.68L136.286 112.598C138.212 113.708 139.788 116.421 139.788 118.643L139.768 158.661Z" fill="#E1E7E8"/>
<path d="M230.997 82.2494C231.046 82.2654 231.09 82.2969 231.12 82.3391C231.151 82.3813 231.168 82.4322 231.168 82.4844C231.168 82.5366 231.151 82.5875 231.12 82.6297C231.09 82.6719 231.046 82.7033 230.997 82.7194C230.871 82.7841 230.731 82.8178 230.589 82.8178C230.448 82.8178 230.308 82.7841 230.182 82.7194C230.133 82.7033 230.089 82.6719 230.059 82.6297C230.028 82.5875 230.011 82.5366 230.011 82.4844C230.011 82.4322 230.028 82.3813 230.059 82.3391C230.089 82.2969 230.133 82.2654 230.182 82.2494C230.309 82.1857 230.448 82.1526 230.589 82.1526C230.731 82.1526 230.87 82.1857 230.997 82.2494Z" fill="#F0F0F0"/>
<path d="M234.295 82.1314C234.344 82.1485 234.386 82.1803 234.416 82.2224C234.446 82.2645 234.462 82.3148 234.462 82.3664C234.462 82.418 234.446 82.4682 234.416 82.5103C234.386 82.5524 234.344 82.5843 234.295 82.6014C234.168 82.6651 234.029 82.6982 233.887 82.6982C233.745 82.6982 233.605 82.6651 233.479 82.6014C233.429 82.5853 233.386 82.5539 233.355 82.5117C233.324 82.4695 233.308 82.4186 233.308 82.3664C233.308 82.3142 233.324 82.2633 233.355 82.2211C233.386 82.1789 233.429 82.1474 233.479 82.1314C233.605 82.0677 233.745 82.0346 233.887 82.0346C234.029 82.0346 234.168 82.0677 234.295 82.1314Z" fill="#F0F0F0"/>
<path d="M235.528 79.4159H228.618V82.6298H235.528V79.4159Z" fill="#D1C9C9"/>
<path d="M234.519 81.1934C235.869 81.9717 235.869 83.2354 234.519 84.0138C233.168 84.7921 230.979 84.7943 229.629 84.0138C228.279 83.2332 228.279 81.9717 229.629 81.1934C230.979 80.4151 233.168 80.4151 234.519 81.1934Z" fill="#D1C9C9"/>
<path d="M230.268 80.1111H229.337V85.9136H230.268V80.1111Z" fill="#DED6D6"/>
<path d="M236.523 76.0642H233.487V86.2372H236.523V76.0642Z" fill="#B8AEAE"/>
<path d="M234.519 78.0866C235.869 78.8649 235.869 80.1286 234.519 80.907C233.168 81.6853 230.979 81.6853 229.629 80.907C228.279 80.1286 228.279 78.8649 229.629 78.0866C230.979 77.3083 233.168 77.3083 234.519 78.0866Z" fill="#FAF5F5"/>
<path d="M233.768 78.5195C234.702 79.0595 234.702 79.9341 233.768 80.4741C233.243 80.7392 232.663 80.8774 232.075 80.8774C231.487 80.8774 230.907 80.7392 230.382 80.4741C229.445 79.9341 229.445 79.0595 230.382 78.5195C230.907 78.2544 231.487 78.1162 232.075 78.1162C232.663 78.1162 233.243 78.2544 233.768 78.5195Z" fill="#948D8D"/>
<path d="M232.271 80.9091C231.771 80.9091 231.291 80.7108 230.938 80.3578C230.585 80.0048 230.386 79.526 230.386 79.0267V67.4633C230.386 67.2664 230.333 67.0732 230.235 66.9028C230.136 66.7324 229.994 66.591 229.824 66.4925L125.406 6.77321C125.234 6.67333 125.039 6.6207 124.841 6.6207C124.642 6.6207 124.448 6.67333 124.276 6.77321L110.776 14.6746C110.607 14.7729 110.467 14.9136 110.37 15.0828C110.272 15.2519 110.221 15.4436 110.22 15.6387V25.6958C110.22 26.1951 110.022 26.6739 109.668 27.0269C109.315 27.3799 108.835 27.5782 108.336 27.5782C107.836 27.5782 107.357 27.3799 107.003 27.0269C106.65 26.6739 106.451 26.1951 106.451 25.6958V15.6387C106.453 14.7871 106.677 13.9506 107.101 13.2118C107.525 12.473 108.135 11.8574 108.87 11.4257L122.372 3.52434C123.117 3.09141 123.963 2.86244 124.825 2.86052C125.687 2.8586 126.534 3.0838 127.281 3.51341L231.699 63.2327C232.444 63.6612 233.063 64.2774 233.494 65.0199C233.926 65.7623 234.154 66.6049 234.157 67.4633V79.0355C234.154 79.5334 233.954 80.0099 233.601 80.361C233.247 80.7121 232.769 80.9091 232.271 80.9091Z" fill="#668285"/>
<path d="M133.656 29.1634C133.974 29.1634 134.231 29.0146 134.231 28.831C134.231 28.6475 133.974 28.4987 133.656 28.4987C133.338 28.4987 133.08 28.6475 133.08 28.831C133.08 29.0146 133.338 29.1634 133.656 29.1634Z" fill="#F0F0F0"/>
<path d="M137.36 28.479C137.409 28.4962 137.451 28.528 137.481 28.5701C137.511 28.6122 137.527 28.6625 137.527 28.714C137.527 28.7656 137.511 28.8159 137.481 28.858C137.451 28.9001 137.409 28.9319 137.36 28.9491C137.234 29.0127 137.094 29.0459 136.952 29.0459C136.81 29.0459 136.671 29.0127 136.544 28.9491C136.495 28.9319 136.453 28.9001 136.423 28.858C136.393 28.8159 136.377 28.7656 136.377 28.714C136.377 28.6625 136.393 28.6122 136.423 28.5701C136.453 28.528 136.495 28.4962 136.544 28.479C136.671 28.4154 136.81 28.3822 136.952 28.3822C137.094 28.3822 137.234 28.4154 137.36 28.479Z" fill="#F0F0F0"/>
<path d="M138.593 25.7636H131.684V28.9775H138.593V25.7636Z" fill="#D1C9C9"/>
<path d="M135.139 30.9452C137.049 30.9452 138.598 30.0525 138.598 28.9513C138.598 27.85 137.049 26.9573 135.139 26.9573C133.229 26.9573 131.681 27.85 131.681 28.9513C131.681 30.0525 133.229 30.9452 135.139 30.9452Z" fill="#D1C9C9"/>
<path d="M133.334 26.4588H132.403V32.2613H133.334V26.4588Z" fill="#DED6D6"/>
<path d="M139.589 22.4098H136.553V32.5827H139.589V22.4098Z" fill="#B8AEAE"/>
<path d="M135.139 27.8362C137.049 27.8362 138.598 26.9435 138.598 25.8423C138.598 24.7411 137.049 23.8484 135.139 23.8484C133.229 23.8484 131.681 24.7411 131.681 25.8423C131.681 26.9435 133.229 27.8362 135.139 27.8362Z" fill="#FAF5F5"/>
<path d="M135.139 27.224C136.462 27.224 137.534 26.6054 137.534 25.8423C137.534 25.0792 136.462 24.4605 135.139 24.4605C133.817 24.4605 132.745 25.0792 132.745 25.8423C132.745 26.6054 133.817 27.224 135.139 27.224Z" fill="#948D8D"/>
<path d="M179.693 53.5452C179.742 53.5612 179.786 53.5927 179.817 53.6349C179.847 53.6771 179.864 53.728 179.864 53.7802C179.864 53.8324 179.847 53.8833 179.817 53.9255C179.786 53.9677 179.742 53.9991 179.693 54.0152C179.567 54.0788 179.427 54.112 179.286 54.112C179.144 54.112 179.005 54.0788 178.879 54.0152C178.829 53.9991 178.786 53.9677 178.755 53.9255C178.724 53.8833 178.708 53.8324 178.708 53.7802C178.708 53.728 178.724 53.6771 178.755 53.6349C178.786 53.5927 178.829 53.5612 178.879 53.5452C179.005 53.4815 179.144 53.4484 179.286 53.4484C179.427 53.4484 179.567 53.4815 179.693 53.5452Z" fill="#F0F0F0"/>
<path d="M182.992 53.4271C183.041 53.4432 183.085 53.4746 183.115 53.5168C183.146 53.5591 183.163 53.6099 183.163 53.6621C183.163 53.7144 183.146 53.7652 183.115 53.8074C183.085 53.8497 183.041 53.8811 182.992 53.8972C182.865 53.9608 182.725 53.994 182.583 53.994C182.442 53.994 182.302 53.9608 182.175 53.8972C182.127 53.88 182.084 53.8482 182.055 53.8061C182.025 53.764 182.009 53.7137 182.009 53.6621C182.009 53.6106 182.025 53.5603 182.055 53.5182C182.084 53.4761 182.127 53.4443 182.175 53.4271C182.302 53.3625 182.442 53.3287 182.583 53.3287C182.725 53.3287 182.865 53.3625 182.992 53.4271Z" fill="#F0F0F0"/>
<path d="M184.223 50.7117H177.313V53.9256H184.223V50.7117Z" fill="#D1C9C9"/>
<path d="M183.217 52.487C184.568 53.2653 184.568 54.529 183.217 55.3074C181.867 56.0857 179.676 56.0857 178.325 55.3074C176.975 54.529 176.975 53.2653 178.325 52.487C179.676 51.7087 181.867 51.7109 183.217 52.487Z" fill="#D1C9C9"/>
<path d="M178.964 51.4069H178.034V57.2094H178.964V51.4069Z" fill="#DED6D6"/>
<path d="M185.219 47.3579H182.184V57.5308H185.219V47.3579Z" fill="#B8AEAE"/>
<path d="M180.77 52.7843C182.68 52.7843 184.228 51.8916 184.228 50.7904C184.228 49.6892 182.68 48.7965 180.77 48.7965C178.86 48.7965 177.312 49.6892 177.312 50.7904C177.312 51.8916 178.86 52.7843 180.77 52.7843Z" fill="#FAF5F5"/>
<path d="M182.464 49.8153C183.398 50.3553 183.398 51.2298 182.464 51.7677C181.939 52.034 181.359 52.1728 180.771 52.1728C180.182 52.1728 179.602 52.034 179.078 51.7677C178.143 51.2298 178.143 50.3553 179.078 49.8153C179.602 49.549 180.182 49.4102 180.771 49.4102C181.359 49.4102 181.939 49.549 182.464 49.8153Z" fill="#948D8D"/>
<path d="M135.077 27.0994C134.578 27.0989 134.099 26.9003 133.746 26.5474C133.392 26.1945 133.194 25.7161 133.193 25.217V9.80127C133.184 9.54852 133.227 9.29663 133.318 9.06059C133.409 8.82455 133.546 8.6092 133.722 8.42735C133.898 8.24551 134.109 8.1009 134.342 8.00214C134.575 7.90338 134.825 7.85248 135.079 7.85248C135.332 7.85248 135.582 7.90338 135.815 8.00214C136.048 8.1009 136.259 8.24551 136.435 8.42735C136.611 8.6092 136.749 8.82455 136.839 9.06059C136.93 9.29663 136.973 9.54852 136.964 9.80127V25.217C136.964 25.7165 136.765 26.1953 136.411 26.5482C136.057 26.9012 135.577 27.0994 135.077 27.0994Z" fill="#668285"/>
<path d="M180.671 51.9688C180.423 51.9691 180.177 51.9205 179.948 51.8258C179.719 51.7311 179.51 51.5921 179.335 51.4168C179.159 51.2416 179.02 51.0334 178.925 50.8044C178.831 50.5754 178.782 50.3299 178.782 50.082V36.5137C178.799 36.0253 179.005 35.5624 179.357 35.2228C179.708 34.8831 180.179 34.6933 180.668 34.6933C181.157 34.6933 181.627 34.8831 181.979 35.2228C182.331 35.5624 182.537 36.0253 182.553 36.5137V50.082C182.554 50.5815 182.356 51.0607 182.003 51.4145C181.65 51.7683 181.171 51.9677 180.671 51.9688Z" fill="#668285"/>
</g>
<defs>
<linearGradient id="paint0_linear" x1="19.2983" y1="174.199" x2="49.794" y2="174.199" gradientUnits="userSpaceOnUse">
<stop offset="0.14" stop-color="#DEDBDA"/>
<stop offset="1" stop-color="#CCC2BE"/>
</linearGradient>
<linearGradient id="paint1_linear" x1="2709.69" y1="14760.3" x2="6966.58" y2="14760.3" gradientUnits="userSpaceOnUse">
<stop offset="0.14" stop-color="#DEDBDA"/>
<stop offset="1" stop-color="#CCC2BE"/>
</linearGradient>
<linearGradient id="paint2_linear" x1="272.13" y1="12082.1" x2="4521.09" y2="12082.1" gradientUnits="userSpaceOnUse">
<stop offset="0.14" stop-color="#DEDBDA"/>
<stop offset="1" stop-color="#CCC2BE"/>
</linearGradient>
<linearGradient id="paint3_linear" x1="271.46" y1="15516.5" x2="4528.35" y2="15516.5" gradientUnits="userSpaceOnUse">
<stop offset="0.14" stop-color="#DEDBDA"/>
<stop offset="1" stop-color="#CCC2BE"/>
</linearGradient>
<linearGradient id="paint4_linear" x1="57.0762" y1="92.2102" x2="90.1786" y2="92.2102" gradientUnits="userSpaceOnUse">
<stop offset="0.02" stop-color="#D8DDEB"/>
<stop offset="1" stop-color="#A0A9BD"/>
</linearGradient>
<linearGradient id="paint5_linear" x1="8697.32" y1="11925.3" x2="13714" y2="11925.3" gradientUnits="userSpaceOnUse">
<stop offset="0.02" stop-color="#D8DDEB"/>
<stop offset="1" stop-color="#A0A9BD"/>
</linearGradient>
<linearGradient id="paint6_linear" x1="14016.5" y1="28007.6" x2="19023.3" y2="28007.6" gradientUnits="userSpaceOnUse">
<stop offset="0.02" stop-color="#D8DDEB"/>
<stop offset="1" stop-color="#A0A9BD"/>
</linearGradient>
<linearGradient id="paint7_linear" x1="14029.3" y1="10071.7" x2="19046" y2="10071.7" gradientUnits="userSpaceOnUse">
<stop offset="0.02" stop-color="#D8DDEB"/>
<stop offset="1" stop-color="#A0A9BD"/>
</linearGradient>
<clipPath id="clip0">
<rect width="278" height="249" fill="white"/>
</clipPath>
</defs>
</svg>
