<svg width="35" height="35" viewBox="0 0 35 35" fill="none" xmlns="http://www.w3.org/2000/svg">
<path d="M29.873 18.3307H26.447C25.9807 18.3307 25.5293 18.3944 25.0996 18.5116C24.2521 16.8455 22.5218 15.7008 20.528 15.7008H14.472C12.4782 15.7008 10.7479 16.8455 9.90035 18.5116C9.47071 18.3944 9.01927 18.3307 8.55299 18.3307H5.12695C2.29995 18.3307 0 20.6307 0 23.4577V28.9345C0 30.6307 1.37997 32.0106 3.07617 32.0106H31.9238C33.62 32.0106 35 30.6307 35 28.9345V23.4577C35 20.6307 32.7001 18.3307 29.873 18.3307ZM9.34507 20.8279V29.9599H3.07617C2.51077 29.9599 2.05078 29.4999 2.05078 28.9345V23.4577C2.05078 21.7615 3.43075 20.3816 5.12695 20.3816H8.55299C8.83135 20.3816 9.10089 20.4194 9.35751 20.489C9.35013 20.6012 9.34507 20.714 9.34507 20.8279ZM23.6042 29.9599H11.3959V20.8278C11.3959 19.1316 12.7758 17.7516 14.472 17.7516H20.528C22.2242 17.7516 23.6042 19.1316 23.6042 20.8278V29.9599ZM32.9492 28.9345C32.9492 29.4999 32.4892 29.9599 31.9238 29.9599H25.6549V20.8278C25.6549 20.7138 25.6499 20.6011 25.6425 20.4889C25.8991 20.4194 26.1687 20.3815 26.447 20.3815H29.873C31.5692 20.3815 32.9492 21.7615 32.9492 23.4577V28.9345Z" fill="#00294A"/>
<path d="M6.84006 8.64771C4.32792 8.64771 2.28418 10.6914 2.28418 13.2036C2.28411 15.7157 4.32792 17.7595 6.84006 17.7595C9.35213 17.7595 11.3959 15.7157 11.3959 13.2036C11.3959 10.6914 9.3522 8.64771 6.84006 8.64771ZM6.83999 15.7087C5.45865 15.7087 4.33489 14.5849 4.33489 13.2036C4.33489 11.8222 5.45865 10.6985 6.83999 10.6985C8.22133 10.6985 9.34509 11.8222 9.34509 13.2036C9.34509 14.5849 8.22133 15.7087 6.83999 15.7087Z" fill="#00294A"/>
<path d="M17.5002 2.98928C14.144 2.98928 11.4136 5.71969 11.4136 9.07587C11.4136 12.432 14.144 15.1624 17.5002 15.1624C20.8563 15.1624 23.5867 12.432 23.5867 9.07587C23.5867 5.71976 20.8563 2.98928 17.5002 2.98928ZM17.5002 13.1117C15.2748 13.1117 13.4644 11.3012 13.4644 9.07587C13.4644 6.85056 15.2748 5.04006 17.5002 5.04006C19.7255 5.04006 21.536 6.85049 21.536 9.07587C21.536 11.3012 19.7255 13.1117 17.5002 13.1117Z" fill="#00294A"/>
<path d="M28.1599 8.64771C25.6478 8.64771 23.604 10.6914 23.604 13.2036C23.6041 15.7157 25.6478 17.7595 28.1599 17.7595C30.672 17.7595 32.7158 15.7157 32.7158 13.2036C32.7158 10.6914 30.672 8.64771 28.1599 8.64771ZM28.1599 15.7087C26.7786 15.7087 25.6548 14.5849 25.6548 13.2036C25.6549 11.8222 26.7786 10.6985 28.1599 10.6985C29.5412 10.6985 30.665 11.8222 30.665 13.2036C30.665 14.5849 29.5412 15.7087 28.1599 15.7087Z" fill="#00294A"/>
</svg>
