<svg width="20" height="21" viewBox="0 0 20 21" fill="none" xmlns="http://www.w3.org/2000/svg">
<path d="M4.995 10.9825C4.995 13.7403 7.241 15.9837 10.002 15.9837C12.763 15.9837 15.009 13.7403 15.009 10.9825C15.009 8.22474 12.763 5.98136 10.002 5.98136C7.241 5.98136 4.995 8.22474 4.995 10.9825ZM9 17.9744H11V20.9709H9V17.9744ZM9 0.994174H11V3.99068H9V0.994174ZM0 9.98369H3V11.9814H0V9.98369ZM17 9.98369H20V11.9814H17V9.98369Z" fill="#F3963B"/>
<path d="M3.63666 18.7515L2.22266 17.3391L4.34366 15.2206L5.75766 16.6329L3.63666 18.7515Z" fill="#F3963B"/>
<path d="M14.2422 5.33311L16.3642 3.21359L17.7782 4.62594L15.6562 6.74547L14.2422 5.33311Z" fill="#F3963B"/>
<path d="M4.34366 6.74646L2.22266 4.62694L3.63766 3.21458L5.75766 5.33411L4.34366 6.74646Z" fill="#F3963B"/>
<path d="M17.7782 17.3391L16.3642 18.7515L14.2422 16.6319L15.6562 15.2196L17.7782 17.3391Z" fill="#F3963B"/>
</svg>
