<svg width="35" height="35" viewBox="0 0 35 35" fill="none" xmlns="http://www.w3.org/2000/svg">
<path d="M34.3998 12.7714L32.688 11.0597C31.8884 10.26 30.5874 10.2601 29.7877 11.0597L26.1821 14.6653V3.07617C26.1821 1.37997 24.8022 0 23.106 0H3.07666C1.38046 0 0.000488281 1.37997 0.000488281 3.07617V31.9238C0.000488281 33.62 1.38046 35 3.07666 35H23.106C24.8022 35 26.1821 33.62 26.1821 31.9238V23.7868L34.3998 15.6717C35.1994 14.8721 35.1994 13.571 34.3998 12.7714ZM22.1362 24.9L19.0517 26.3395L20.4898 23.258L28.1443 15.6034L29.8367 17.2957L22.1362 24.9ZM24.1313 31.9238C24.1313 32.4892 23.6714 32.9492 23.106 32.9492H3.07666C2.51126 32.9492 2.05127 32.4892 2.05127 31.9238V3.07617C2.05127 2.51077 2.51126 2.05078 3.07666 2.05078H23.106C23.6714 2.05078 24.1313 2.51077 24.1313 3.07617V16.7161C18.4453 22.4021 18.8166 21.9936 18.7077 22.2269L16.0008 28.0275C15.8185 28.4183 15.9001 28.8813 16.2049 29.1862C16.5098 29.4911 16.973 29.5726 17.3636 29.3903L23.1642 26.6833C23.3769 26.5841 23.4119 26.5224 24.1313 25.8119V31.9238ZM31.2958 15.8548L29.5944 14.1533L31.2379 12.5098L32.9492 14.2221L31.2958 15.8548Z" fill="#00294A"/>
<path d="M5.46924 8.68164H20.7817C21.348 8.68164 21.8071 8.22254 21.8071 7.65625C21.8071 7.08996 21.348 6.63086 20.7817 6.63086H5.46924C4.90295 6.63086 4.44385 7.08996 4.44385 7.65625C4.44385 8.22254 4.90295 8.68164 5.46924 8.68164Z" fill="#00294A"/>
<path d="M5.46924 14.1504H17.5005C18.0668 14.1504 18.5259 13.6913 18.5259 13.125C18.5259 12.5587 18.0668 12.0996 17.5005 12.0996H5.46924C4.90295 12.0996 4.44385 12.5587 4.44385 13.125C4.44385 13.6913 4.90295 14.1504 5.46924 14.1504Z" fill="#00294A"/>
<path d="M14.2192 17.5684H5.46924C4.90295 17.5684 4.44385 18.0275 4.44385 18.5938C4.44385 19.16 4.90295 19.6191 5.46924 19.6191H14.2192C14.7855 19.6191 15.2446 19.16 15.2446 18.5938C15.2446 18.0275 14.7855 17.5684 14.2192 17.5684Z" fill="#00294A"/>
</svg>
