<svg width="237" height="191" viewBox="0 0 237 191" fill="none" xmlns="http://www.w3.org/2000/svg">
<g clip-path="url(#clip0)">
<path d="M112.792 140.025L188.692 96.1863V103.694L117.622 144.746L112.792 140.025Z" fill="#3E312C"/>
<path d="M87.2456 163.069L94.0782 167.008L97.5494 148.658L87.2456 147.121V163.069Z" fill="#3E312C"/>
<path d="M95.4367 166.981L120.133 152.624C120.639 152.292 121.061 151.846 121.363 151.322C121.666 150.798 121.841 150.209 121.875 149.605V139.132C121.875 138.021 121.093 137.568 120.133 138.131L95.4367 152.473C94.9322 152.806 94.5129 153.253 94.2126 153.777C93.9123 154.302 93.7395 154.889 93.708 155.493V165.965C93.708 167.077 94.4763 167.53 95.4367 166.981Z" fill="#695D59"/>
<path d="M208.998 83.2297L213.182 89.6256L222.169 94.8L223.225 86.2904L208.998 83.2297Z" fill="#3E312C"/>
<path d="M209.761 84.6721L195.91 108.671L203.122 112.836L216.973 88.8377L209.761 84.6721Z" fill="#1D1715"/>
<path d="M212.908 91.204C212.717 94.608 211.726 97.9188 210.014 100.867C208.302 103.815 205.918 106.317 203.057 108.168C197.637 111.284 193.261 108.745 193.261 102.5C193.451 99.0987 194.438 95.7899 196.142 92.8407C197.846 89.8914 200.219 87.3843 203.071 85.5218C208.545 82.3512 212.922 84.9453 212.908 91.204Z" fill="#1D1715"/>
<path d="M205.019 104.01C205.115 102.189 205.64 100.417 206.551 98.8383C207.461 97.2593 208.732 95.918 210.26 94.9236C213.168 93.2491 215.514 94.6079 215.514 97.9431C215.419 99.769 214.893 101.546 213.979 103.13C213.066 104.714 211.792 106.059 210.26 107.057C207.365 108.717 205.019 107.359 205.019 104.01Z" fill="#1D1715"/>
<path d="M210.26 112.3C213.111 110.44 215.484 107.936 217.188 104.989C218.893 102.041 219.88 98.7346 220.07 95.3353C220.07 89.0766 215.679 86.5375 210.274 89.6531C207.423 91.5156 205.049 94.0227 203.345 96.972C201.641 99.9212 200.654 103.23 200.464 106.631C200.464 112.876 204.854 115.415 210.26 112.3ZM210.26 94.004C213.594 92.0824 216.283 93.6471 216.283 97.5039C216.169 99.5972 215.563 101.634 214.514 103.449C213.465 105.264 212.003 106.805 210.246 107.949C206.912 109.87 204.223 108.306 204.223 104.449C204.339 102.354 204.947 100.317 205.998 98.5018C207.05 96.6868 208.515 95.1458 210.274 94.004H210.26Z" fill="#1D1715"/>
<path d="M210.26 108.992C212.278 107.676 213.959 105.903 215.165 103.817C216.371 101.73 217.069 99.3889 217.202 96.9823C217.202 92.5491 214.101 90.7511 210.273 92.9609C208.253 94.2779 206.571 96.053 205.365 98.142C204.159 100.231 203.462 102.575 203.331 104.984C203.331 109.404 206.432 111.174 210.26 108.992ZM210.26 93.8942C213.676 91.9315 216.447 93.5236 216.447 97.4764C216.326 99.6244 215.701 101.714 214.624 103.576C213.547 105.438 212.047 107.02 210.246 108.196C206.83 110.172 204.058 108.566 204.072 104.614C204.183 102.454 204.803 100.351 205.88 98.476C206.958 96.6013 208.463 95.0078 210.273 93.8255L210.26 93.8942Z" fill="#DADADA"/>
<path d="M210.26 105.89C211.497 105.085 212.527 103.999 213.266 102.721C214.005 101.442 214.432 100.008 214.513 98.5333C214.513 95.7883 212.619 94.704 210.273 96.0628C209.036 96.8709 208.006 97.9593 207.267 99.2398C206.528 100.52 206.101 101.957 206.02 103.433C206.006 106.151 207.913 107.249 210.26 105.89ZM210.26 97.8882C211.728 97.0373 212.921 97.7372 212.921 99.4392C212.872 100.367 212.603 101.269 212.138 102.073C211.673 102.877 211.025 103.559 210.246 104.065C208.778 104.916 207.584 104.229 207.584 102.514C207.635 101.585 207.906 100.682 208.373 99.8777C208.841 99.0737 209.492 98.3919 210.273 97.8882H210.26Z" fill="#EDEDED"/>
<path d="M210.259 104.065C211.038 103.559 211.687 102.877 212.152 102.073C212.617 101.269 212.885 100.367 212.935 99.4392C212.935 97.7372 211.741 97.0373 210.273 97.8882C209.494 98.3935 208.846 99.0759 208.381 99.8798C207.916 100.684 207.647 101.586 207.598 102.514C207.598 104.229 208.791 104.916 210.259 104.065ZM209.244 103.378C209.093 103.639 208.846 103.776 208.709 103.694C208.572 103.612 208.558 103.323 208.709 103.063C208.86 102.802 209.093 102.665 209.244 102.747C209.395 102.829 209.395 103.118 209.244 103.378ZM210.259 103.131C210.136 103.131 210.04 103.131 210.04 103.008C210.044 102.931 210.066 102.856 210.104 102.79C210.142 102.723 210.195 102.666 210.259 102.623C210.383 102.623 210.493 102.623 210.493 102.747C210.488 102.825 210.464 102.901 210.424 102.968C210.383 103.035 210.327 103.091 210.259 103.131ZM211.823 101.882C211.673 102.143 211.439 102.28 211.288 102.198C211.137 102.116 211.137 101.827 211.288 101.567C211.439 101.306 211.686 101.169 211.823 101.265C211.961 101.361 211.974 101.567 211.823 101.882ZM212.139 99.9058C212.129 99.9827 212.104 100.057 212.063 100.123C212.023 100.189 211.97 100.246 211.906 100.29C211.782 100.359 211.686 100.29 211.686 100.167C211.689 100.088 211.711 100.011 211.749 99.9416C211.787 99.8725 211.841 99.8133 211.906 99.7686C212.029 99.7 212.139 99.7548 212.139 99.9058ZM211.288 98.5333C211.439 98.2725 211.686 98.1353 211.837 98.2176C211.988 98.3 211.974 98.5882 211.837 98.8353C211.7 99.0823 211.439 99.2333 211.288 99.1509C211.137 99.0686 211.137 98.8215 211.288 98.5882V98.5333ZM210.273 98.7666C210.397 98.7666 210.493 98.7666 210.493 98.8902C210.489 98.969 210.468 99.046 210.43 99.1151C210.392 99.1842 210.338 99.2435 210.273 99.2882C210.25 99.3036 210.222 99.3122 210.194 99.3128C210.166 99.3135 210.138 99.3063 210.114 99.292C210.09 99.2778 210.07 99.257 210.057 99.232C210.044 99.2071 210.038 99.179 210.04 99.1509C210.054 99.083 210.082 99.0187 210.122 98.9621C210.162 98.9054 210.214 98.8576 210.273 98.8215V98.7666ZM210.273 99.7548C210.836 99.4254 211.288 99.7548 211.288 100.331C211.268 100.687 211.164 101.032 210.985 101.34C210.807 101.647 210.558 101.908 210.259 102.102C209.711 102.418 209.244 102.102 209.258 101.512C209.284 101.169 209.389 100.837 209.565 100.541C209.742 100.246 209.984 99.9956 210.273 99.8098V99.7548ZM208.709 100.016C208.86 99.7549 209.093 99.6176 209.244 99.7137C209.395 99.8098 209.395 100.071 209.244 100.331C209.093 100.592 208.86 100.729 208.709 100.647C208.558 100.565 208.544 100.331 208.709 100.071V100.016ZM208.627 101.608C208.75 101.608 208.846 101.608 208.846 101.745C208.842 101.822 208.82 101.896 208.782 101.963C208.744 102.03 208.691 102.087 208.627 102.129C208.503 102.129 208.407 102.129 208.407 101.992C208.42 101.925 208.446 101.862 208.483 101.805C208.521 101.748 208.57 101.7 208.627 101.663V101.608Z" fill="#DAD1D1"/>
<path d="M210.259 104.065C211.038 103.559 211.687 102.877 212.152 102.073C212.617 101.269 212.885 100.367 212.935 99.4392C212.935 97.7372 211.741 97.0373 210.273 97.8882C209.494 98.3935 208.846 99.0759 208.381 99.8798C207.916 100.684 207.647 101.586 207.598 102.514C207.598 104.229 208.791 104.916 210.259 104.065ZM209.244 103.378C209.093 103.639 208.846 103.776 208.709 103.694C208.572 103.612 208.558 103.323 208.709 103.063C208.86 102.802 209.093 102.665 209.244 102.747C209.395 102.829 209.395 103.118 209.244 103.378ZM210.259 103.131C210.136 103.131 210.04 103.131 210.04 103.008C210.044 102.931 210.066 102.856 210.104 102.79C210.142 102.723 210.195 102.666 210.259 102.623C210.383 102.623 210.493 102.623 210.493 102.747C210.488 102.825 210.464 102.901 210.424 102.968C210.383 103.035 210.327 103.091 210.259 103.131ZM211.823 101.882C211.673 102.143 211.439 102.28 211.288 102.198C211.137 102.116 211.137 101.827 211.288 101.567C211.439 101.306 211.686 101.169 211.823 101.265C211.961 101.361 211.974 101.567 211.823 101.882ZM212.139 99.9058C212.129 99.9827 212.104 100.057 212.063 100.123C212.023 100.189 211.97 100.246 211.906 100.29C211.782 100.359 211.686 100.29 211.686 100.167C211.689 100.088 211.711 100.011 211.749 99.9416C211.787 99.8725 211.841 99.8133 211.906 99.7686C212.029 99.7 212.139 99.7548 212.139 99.9058ZM211.288 98.5333C211.439 98.2725 211.686 98.1353 211.837 98.2176C211.988 98.3 211.974 98.5882 211.837 98.8353C211.7 99.0823 211.439 99.2333 211.288 99.1509C211.137 99.0686 211.137 98.8215 211.288 98.5882V98.5333ZM210.273 98.7666C210.397 98.7666 210.493 98.7666 210.493 98.8902C210.489 98.969 210.468 99.046 210.43 99.1151C210.392 99.1842 210.338 99.2435 210.273 99.2882C210.25 99.3036 210.222 99.3122 210.194 99.3128C210.166 99.3135 210.138 99.3063 210.114 99.292C210.09 99.2778 210.07 99.257 210.057 99.232C210.044 99.2071 210.038 99.179 210.04 99.1509C210.054 99.083 210.082 99.0187 210.122 98.9621C210.162 98.9054 210.214 98.8576 210.273 98.8215V98.7666ZM210.273 99.7548C210.836 99.4254 211.288 99.7548 211.288 100.331C211.268 100.687 211.164 101.032 210.985 101.34C210.807 101.647 210.558 101.908 210.259 102.102C209.711 102.418 209.244 102.102 209.258 101.512C209.284 101.169 209.389 100.837 209.565 100.541C209.742 100.246 209.984 99.9956 210.273 99.8098V99.7548ZM208.709 100.016C208.86 99.7549 209.093 99.6176 209.244 99.7137C209.395 99.8098 209.395 100.071 209.244 100.331C209.093 100.592 208.86 100.729 208.709 100.647C208.558 100.565 208.544 100.331 208.709 100.071V100.016ZM208.627 101.608C208.75 101.608 208.846 101.608 208.846 101.745C208.842 101.822 208.82 101.896 208.782 101.963C208.744 102.03 208.691 102.087 208.627 102.129C208.503 102.129 208.407 102.129 208.407 101.992C208.42 101.925 208.446 101.862 208.483 101.805C208.521 101.748 208.57 101.7 208.627 101.663V101.608Z" fill="#C6C6C6"/>
<path d="M210.26 108.127C212.055 106.956 213.552 105.38 214.629 103.525C215.706 101.671 216.333 99.5898 216.461 97.449C216.461 93.4962 213.717 91.9589 210.273 93.8667C208.475 95.0438 206.978 96.6271 205.903 98.489C204.828 100.351 204.206 102.439 204.085 104.586C204.072 108.498 206.843 110.104 210.26 108.127ZM206.034 107.029C205.704 107.427 205.307 107.578 205.142 107.345C204.977 107.112 205.142 106.604 205.444 106.192C205.746 105.78 206.171 105.643 206.336 105.876C206.5 106.11 206.363 106.617 206.034 107.057V107.029ZM206.034 103.433C206.114 101.957 206.542 100.52 207.28 99.2398C208.019 97.9594 209.049 96.871 210.287 96.0628C212.633 94.6903 214.54 95.8157 214.526 98.5333C214.446 100.008 214.019 101.442 213.28 102.721C212.541 103.999 211.511 105.085 210.273 105.89C207.913 107.249 206.006 106.151 206.02 103.433H206.034ZM208.174 107.757C207.982 108.251 207.598 108.621 207.323 108.594C207.049 108.566 206.967 108.155 207.159 107.674C207.351 107.194 207.721 106.81 208.009 106.837C208.298 106.865 208.339 107.276 208.16 107.757H208.174ZM210.273 107.757C209.958 107.935 209.697 107.757 209.697 107.304C209.696 107.084 209.748 106.867 209.848 106.671C209.948 106.475 210.094 106.306 210.273 106.178C210.602 105.986 210.863 106.178 210.863 106.631C210.87 106.863 210.819 107.093 210.713 107.299C210.608 107.506 210.452 107.682 210.26 107.812L210.273 107.757ZM213.237 105.135C212.949 105.478 212.578 105.547 212.386 105.272C212.297 105.092 212.266 104.889 212.295 104.691C212.324 104.492 212.414 104.307 212.551 104.161C212.825 103.818 213.209 103.749 213.401 104.023C213.493 104.213 213.525 104.426 213.493 104.634C213.461 104.843 213.367 105.036 213.223 105.19L213.237 105.135ZM215.405 101.443C215.345 101.634 215.229 101.803 215.073 101.928C214.916 102.052 214.726 102.127 214.526 102.143C214.197 102.143 214.06 101.759 214.225 101.333C214.288 101.142 214.407 100.974 214.565 100.849C214.724 100.725 214.916 100.65 215.116 100.633C215.404 100.661 215.542 101.031 215.405 101.443ZM216.2 97.5725C216.181 97.7931 216.108 98.0057 215.989 98.1921C215.869 98.3785 215.706 98.5333 215.514 98.6431C215.144 98.8627 214.842 98.7392 214.842 98.3549C214.86 98.1356 214.931 97.9239 215.048 97.7376C215.165 97.5512 215.325 97.3958 215.514 97.2843C215.871 97.0784 216.173 97.202 216.173 97.5725H216.2ZM214.526 94.9373C214.856 94.5256 215.254 94.3883 215.418 94.6079C215.476 94.8117 215.478 95.0271 215.425 95.2321C215.372 95.4371 215.266 95.6243 215.116 95.7745C214.787 96.1726 214.389 96.3098 214.225 96.0902C214.163 95.8911 214.156 95.6791 214.205 95.4763C214.253 95.2736 214.354 95.0874 214.499 94.9373H214.526ZM212.4 94.1961C212.592 93.7158 212.976 93.3315 213.25 93.3589C213.525 93.3864 213.607 93.7981 213.415 94.2922C213.223 94.7863 212.853 95.1432 212.564 95.1295C212.276 95.1157 212.194 94.704 212.372 94.1961H212.4ZM210.301 94.1961C210.616 94.004 210.891 94.1961 210.891 94.6491C210.884 94.8691 210.827 95.0847 210.725 95.2797C210.623 95.4746 210.478 95.6438 210.301 95.7745C209.971 95.953 209.711 95.7745 209.711 95.3216C209.701 95.0959 209.748 94.8713 209.846 94.6677C209.944 94.4642 210.091 94.2881 210.273 94.155L210.301 94.1961ZM207.351 96.8039C207.625 96.4608 208.009 96.3922 208.188 96.6667C208.276 96.8468 208.308 97.0496 208.279 97.2483C208.249 97.4469 208.16 97.6318 208.023 97.7784C207.749 98.1353 207.365 98.1902 207.173 97.9294C207.077 97.7423 207.041 97.5309 207.068 97.3228C207.095 97.1146 207.184 96.9195 207.323 96.7628L207.351 96.8039ZM205.183 100.551C205.243 100.36 205.358 100.191 205.515 100.066C205.671 99.9415 205.862 99.8665 206.061 99.8509C206.39 99.8509 206.528 100.249 206.363 100.661C206.3 100.85 206.184 101.017 206.028 101.141C205.872 101.265 205.683 101.342 205.485 101.361C205.128 101.292 204.991 100.935 205.156 100.51L205.183 100.551ZM205.073 103.296C205.444 103.09 205.759 103.214 205.759 103.584C205.734 103.803 205.66 104.014 205.541 104.199C205.422 104.385 205.262 104.541 205.073 104.655C204.689 104.874 204.387 104.751 204.387 104.367C204.406 104.151 204.475 103.943 204.59 103.759C204.704 103.575 204.861 103.421 205.046 103.31L205.073 103.296Z" fill="#DAD1D1"/>
<path d="M187.004 95.9255L191.189 102.321L200.161 107.51L201.232 98.9862L187.004 95.9255Z" fill="#3E312C"/>
<path d="M187.216 97.9702L173.366 121.969L180.578 126.134L194.428 102.136L187.216 97.9702Z" fill="#1D1715"/>
<path d="M190.379 104.49C190.189 107.889 189.202 111.196 187.498 114.143C185.794 117.09 183.42 119.595 180.57 121.454C175.164 124.57 170.773 122.031 170.773 115.786C170.966 112.387 171.954 109.081 173.658 106.134C175.362 103.188 177.734 100.683 180.583 98.8215C185.989 95.6922 190.379 98.2313 190.379 104.49Z" fill="#1D1715"/>
<path d="M182.477 117.296C182.572 115.473 183.098 113.7 184.012 112.12C184.925 110.541 186.2 109.201 187.731 108.21C190.626 106.535 192.972 107.894 192.972 111.229C192.875 113.051 192.35 114.825 191.439 116.406C190.528 117.987 189.258 119.331 187.731 120.329C184.823 122.003 182.477 120.645 182.477 117.296Z" fill="#1D1715"/>
<path d="M187.718 125.586C190.576 123.731 192.958 121.228 194.669 118.281C196.381 115.334 197.374 112.024 197.569 108.621C197.569 102.363 193.192 99.8235 187.773 102.939C184.921 104.8 182.548 107.307 180.846 110.257C179.144 113.207 178.161 116.516 177.977 119.917C177.922 126.162 182.312 128.701 187.718 125.586ZM187.718 107.29C191.052 105.368 193.741 106.933 193.741 110.79C193.627 112.883 193.021 114.92 191.972 116.735C190.923 118.55 189.461 120.092 187.704 121.235C184.384 123.156 181.681 121.592 181.681 117.735C181.797 115.64 182.405 113.603 183.456 111.788C184.508 109.973 185.972 108.432 187.732 107.29H187.718Z" fill="#1D1715"/>
<path d="M187.718 122.278C189.739 120.965 191.421 119.192 192.627 117.105C193.834 115.018 194.53 112.676 194.66 110.268C194.66 105.835 191.559 104.037 187.8 106.247C185.779 107.564 184.098 109.339 182.892 111.428C181.685 113.517 180.988 115.861 180.858 118.27C180.789 122.69 183.849 124.488 187.718 122.278ZM187.718 107.18C191.134 105.217 193.905 106.81 193.905 110.762C193.784 112.91 193.159 115 192.082 116.862C191.005 118.724 189.505 120.306 187.704 121.482C184.288 123.458 181.53 121.852 181.53 117.9C181.632 115.73 182.248 113.616 183.326 111.731C184.404 109.846 185.914 108.244 187.731 107.057L187.718 107.18Z" fill="#DADADA"/>
<path d="M187.718 119.176C188.957 118.371 189.989 117.286 190.73 116.008C191.471 114.73 191.901 113.295 191.984 111.819C191.984 109.074 190.077 107.99 187.731 109.349C186.494 110.157 185.464 111.245 184.725 112.526C183.986 113.806 183.559 115.243 183.478 116.719C183.478 119.409 185.371 120.535 187.718 119.176ZM187.718 111.174C189.186 110.323 190.393 111.023 190.393 112.725C190.337 113.651 190.066 114.551 189.601 115.354C189.137 116.157 188.492 116.84 187.718 117.351C186.236 118.201 184.974 117.515 184.974 115.8C185.032 114.865 185.313 113.957 185.793 113.153C186.272 112.349 186.937 111.67 187.731 111.174H187.718Z" fill="#EDEDED"/>
<path d="M187.731 117.351C188.506 116.84 189.151 116.157 189.615 115.354C190.08 114.551 190.351 113.651 190.407 112.725C190.407 111.023 189.199 110.323 187.731 111.174C186.94 111.672 186.278 112.351 185.801 113.155C185.323 113.959 185.045 114.866 184.987 115.8C185.056 117.515 186.25 118.201 187.731 117.351ZM186.702 116.664C186.551 116.925 186.318 117.062 186.167 116.98C186.016 116.898 186.016 116.609 186.167 116.349C186.318 116.088 186.551 115.951 186.702 116.033C186.853 116.115 186.853 116.403 186.702 116.664ZM187.731 116.417C187.608 116.486 187.498 116.417 187.498 116.294C187.505 116.216 187.529 116.141 187.57 116.074C187.61 116.008 187.666 115.951 187.731 115.909C187.855 115.909 187.951 115.909 187.951 116.033C187.949 116.11 187.928 116.186 187.89 116.253C187.851 116.32 187.797 116.376 187.731 116.417ZM189.295 115.168C189.144 115.429 188.898 115.566 188.747 115.484C188.596 115.402 188.596 115.113 188.747 114.853C188.898 114.592 189.144 114.455 189.295 114.551C189.446 114.647 189.433 114.907 189.337 115.168H189.295ZM189.597 113.192C189.59 113.269 189.566 113.345 189.525 113.411C189.485 113.478 189.43 113.534 189.364 113.576C189.343 113.592 189.317 113.602 189.29 113.604C189.264 113.606 189.237 113.6 189.214 113.586C189.19 113.573 189.171 113.554 189.159 113.53C189.147 113.506 189.142 113.479 189.144 113.453C189.151 113.373 189.176 113.296 189.216 113.227C189.256 113.158 189.312 113.099 189.378 113.055C189.487 112.986 189.597 113.041 189.597 113.192ZM188.747 111.819C188.898 111.559 189.144 111.421 189.295 111.504C189.446 111.586 189.446 111.874 189.295 112.121C189.144 112.368 188.898 112.519 188.747 112.437C188.596 112.355 188.609 112.121 188.747 111.874V111.819ZM187.731 112.053C187.855 111.984 187.951 112.053 187.951 112.176C187.949 112.255 187.928 112.333 187.89 112.402C187.851 112.471 187.797 112.53 187.731 112.574C187.608 112.574 187.512 112.574 187.512 112.437C187.524 112.37 187.549 112.306 187.587 112.249C187.625 112.193 187.674 112.144 187.731 112.108V112.053ZM187.731 113.041C188.294 112.711 188.747 112.972 188.747 113.617C188.729 113.972 188.628 114.317 188.451 114.624C188.275 114.932 188.028 115.194 187.731 115.388C187.169 115.704 186.716 115.388 186.716 114.798C186.742 114.455 186.847 114.123 187.024 113.827C187.2 113.532 187.442 113.282 187.731 113.096V113.041ZM186.167 113.302C186.318 113.041 186.551 112.904 186.702 113C186.853 113.096 186.853 113.356 186.702 113.617C186.551 113.878 186.318 114.015 186.167 113.933C186.016 113.851 186.016 113.617 186.167 113.356V113.302ZM186.085 114.894C186.208 114.894 186.304 114.894 186.304 115.031C186.3 115.108 186.278 115.182 186.24 115.249C186.202 115.316 186.149 115.373 186.085 115.415C185.961 115.484 185.865 115.415 185.865 115.292C185.876 115.222 185.901 115.156 185.939 115.097C185.977 115.038 186.027 114.988 186.085 114.949V114.894Z" fill="#DAD1D1"/>
<path d="M187.731 117.351C188.506 116.84 189.151 116.157 189.615 115.354C190.08 114.551 190.351 113.651 190.407 112.725C190.407 111.023 189.199 110.323 187.731 111.174C186.94 111.672 186.278 112.351 185.801 113.155C185.323 113.959 185.045 114.866 184.987 115.8C185.056 117.515 186.25 118.201 187.731 117.351ZM186.702 116.664C186.551 116.925 186.318 117.062 186.167 116.98C186.016 116.898 186.016 116.609 186.167 116.349C186.318 116.088 186.551 115.951 186.702 116.033C186.853 116.115 186.853 116.403 186.702 116.664ZM187.731 116.417C187.608 116.486 187.498 116.417 187.498 116.294C187.505 116.216 187.529 116.141 187.57 116.074C187.61 116.008 187.666 115.951 187.731 115.909C187.855 115.909 187.951 115.909 187.951 116.033C187.949 116.11 187.928 116.186 187.89 116.253C187.851 116.32 187.797 116.376 187.731 116.417ZM189.295 115.168C189.144 115.429 188.898 115.566 188.747 115.484C188.596 115.402 188.596 115.113 188.747 114.853C188.898 114.592 189.144 114.455 189.295 114.551C189.446 114.647 189.433 114.907 189.337 115.168H189.295ZM189.597 113.192C189.59 113.269 189.566 113.345 189.525 113.411C189.485 113.478 189.43 113.534 189.364 113.576C189.343 113.592 189.317 113.602 189.29 113.604C189.264 113.606 189.237 113.6 189.214 113.586C189.19 113.573 189.171 113.554 189.159 113.53C189.147 113.506 189.142 113.479 189.144 113.453C189.151 113.373 189.176 113.296 189.216 113.227C189.256 113.158 189.312 113.099 189.378 113.055C189.487 112.986 189.597 113.041 189.597 113.192ZM188.747 111.819C188.898 111.559 189.144 111.421 189.295 111.504C189.446 111.586 189.446 111.874 189.295 112.121C189.144 112.368 188.898 112.519 188.747 112.437C188.596 112.355 188.609 112.121 188.747 111.874V111.819ZM187.731 112.053C187.855 111.984 187.951 112.053 187.951 112.176C187.949 112.255 187.928 112.333 187.89 112.402C187.851 112.471 187.797 112.53 187.731 112.574C187.608 112.574 187.512 112.574 187.512 112.437C187.524 112.37 187.549 112.306 187.587 112.249C187.625 112.193 187.674 112.144 187.731 112.108V112.053ZM187.731 113.041C188.294 112.711 188.747 112.972 188.747 113.617C188.729 113.972 188.628 114.317 188.451 114.624C188.275 114.932 188.028 115.194 187.731 115.388C187.169 115.704 186.716 115.388 186.716 114.798C186.742 114.455 186.847 114.123 187.024 113.827C187.2 113.532 187.442 113.282 187.731 113.096V113.041ZM186.167 113.302C186.318 113.041 186.551 112.904 186.702 113C186.853 113.096 186.853 113.356 186.702 113.617C186.551 113.878 186.318 114.015 186.167 113.933C186.016 113.851 186.016 113.617 186.167 113.356V113.302ZM186.085 114.894C186.208 114.894 186.304 114.894 186.304 115.031C186.3 115.108 186.278 115.182 186.24 115.249C186.202 115.316 186.149 115.373 186.085 115.415C185.961 115.484 185.865 115.415 185.865 115.292C185.876 115.222 185.901 115.156 185.939 115.097C185.977 115.038 186.027 114.988 186.085 114.949V114.894Z" fill="#C6C6C6"/>
<path d="M187.717 121.413C189.519 120.238 191.018 118.655 192.096 116.793C193.173 114.931 193.797 112.842 193.919 110.694C193.919 106.741 191.175 105.204 187.731 107.112C185.933 108.289 184.436 109.872 183.361 111.734C182.286 113.596 181.663 115.684 181.543 117.831C181.543 121.784 184.301 123.39 187.717 121.413ZM183.492 120.315C183.162 120.713 182.765 120.864 182.614 120.631C182.463 120.398 182.614 119.89 182.902 119.478C183.19 119.066 183.629 118.929 183.794 119.162C183.958 119.396 183.848 119.903 183.492 120.315ZM183.492 116.719C183.572 115.243 183.999 113.806 184.738 112.526C185.477 111.245 186.507 110.157 187.745 109.349C190.091 107.976 191.998 109.102 191.998 111.819C191.915 113.295 191.485 114.73 190.744 116.008C190.002 117.286 188.97 118.371 187.731 119.176C185.371 120.535 183.478 119.409 183.478 116.664L183.492 116.719ZM185.632 121.043C185.44 121.537 185.069 121.907 184.781 121.88C184.493 121.852 184.425 121.441 184.617 120.96C184.809 120.48 185.193 120.096 185.467 120.123C185.742 120.15 185.81 120.562 185.618 121.043H185.632ZM187.731 121.043C187.416 121.221 187.155 121.043 187.155 120.59C187.154 120.37 187.205 120.152 187.306 119.957C187.406 119.761 187.552 119.592 187.731 119.464C188.06 119.272 188.321 119.464 188.321 119.917C188.328 120.149 188.277 120.379 188.171 120.585C188.066 120.791 187.91 120.968 187.717 121.098L187.731 121.043ZM190.708 118.476C190.42 118.819 190.05 118.888 189.858 118.613C189.773 118.432 189.743 118.23 189.772 118.033C189.802 117.835 189.889 117.65 190.022 117.502C190.297 117.158 190.681 117.09 190.873 117.364C190.958 117.545 190.988 117.747 190.958 117.945C190.929 118.143 190.842 118.327 190.708 118.476ZM192.862 114.729C192.803 114.92 192.687 115.089 192.531 115.214C192.374 115.338 192.184 115.413 191.984 115.429C191.655 115.429 191.518 115.045 191.683 114.619C191.746 114.428 191.865 114.26 192.023 114.135C192.182 114.011 192.374 113.936 192.574 113.919C192.876 113.919 193 114.317 192.835 114.729H192.862ZM193.672 110.859C193.647 111.078 193.572 111.288 193.453 111.474C193.334 111.659 193.175 111.815 192.986 111.929C192.602 112.149 192.3 112.025 192.3 111.641C192.319 111.42 192.392 111.208 192.512 111.021C192.631 110.835 192.794 110.68 192.986 110.57C193.329 110.364 193.645 110.488 193.645 110.859H193.672ZM191.984 108.223C192.314 107.812 192.712 107.674 192.876 107.894C193.041 108.113 192.876 108.649 192.574 109.061C192.273 109.472 191.847 109.61 191.696 109.376C191.545 109.143 191.641 108.621 191.957 108.223H191.984ZM189.871 107.482C190.05 107.002 190.434 106.617 190.708 106.645C190.983 106.672 191.065 107.084 190.873 107.578C190.681 108.072 190.311 108.443 190.022 108.415C189.734 108.388 189.652 107.962 189.844 107.482H189.871ZM187.759 107.482C188.088 107.29 188.349 107.482 188.349 107.935C188.342 108.155 188.285 108.371 188.183 108.566C188.081 108.761 187.936 108.93 187.759 109.061C187.429 109.239 187.169 109.06 187.169 108.608C187.159 108.382 187.206 108.157 187.304 107.954C187.402 107.75 187.549 107.574 187.731 107.441L187.759 107.482ZM184.809 110.09C185.083 109.747 185.467 109.678 185.659 109.953C185.741 110.134 185.769 110.336 185.74 110.533C185.71 110.73 185.625 110.914 185.495 111.064C185.207 111.421 184.823 111.476 184.644 111.215C184.543 111.031 184.502 110.819 184.527 110.61C184.552 110.401 184.641 110.205 184.781 110.049L184.809 110.09ZM182.641 113.837C182.704 113.648 182.82 113.481 182.976 113.357C183.132 113.232 183.321 113.156 183.519 113.137C183.848 113.137 183.986 113.535 183.821 113.947C183.76 114.137 183.644 114.305 183.487 114.429C183.331 114.554 183.142 114.629 182.943 114.647C182.586 114.578 182.476 114.221 182.614 113.796L182.641 113.837ZM182.476 116.664C182.847 116.458 183.162 116.582 183.162 116.952C183.138 117.172 183.063 117.382 182.944 117.568C182.825 117.753 182.665 117.909 182.476 118.023C182.092 118.243 181.79 118.119 181.79 117.735C181.81 117.514 181.883 117.302 182.002 117.115C182.121 116.929 182.284 116.774 182.476 116.664Z" fill="#DAD1D1"/>
<path d="M193.014 100.194L194.386 99.3843C194.906 99.1 195.473 98.9096 196.06 98.8215C196.428 98.7566 196.807 98.7714 197.169 98.865C197.532 98.9586 197.87 99.1289 198.161 99.3643C198.452 99.5997 198.69 99.8947 198.857 100.23C199.025 100.565 199.119 100.932 199.133 101.306L199.805 105.423V105.506L201.726 106.617C201.973 105.135 202.261 103.721 202.604 102.376C205.348 92.1648 211.618 85.5081 222.086 82.9003L212.949 77.6161C204.113 79.7984 197.432 85.3983 194.056 96.2275C193.672 97.449 193.316 98.8215 193.014 100.194Z" fill="#3E312C"/>
<path d="M201.753 106.59L204.772 104.847L205.129 102.335L205.746 97.9294C205.746 97.7921 205.746 97.6823 205.746 97.5725C206.223 95.1808 207.398 92.984 209.121 91.2589C209.649 90.7271 210.244 90.2657 210.891 89.8864L216.379 86.7296C216.896 86.4273 217.463 86.2182 218.053 86.112C218.421 86.0469 218.799 86.0617 219.16 86.1554C219.522 86.2491 219.86 86.4195 220.15 86.6551C220.44 86.8907 220.676 87.186 220.842 87.5209C221.008 87.8558 221.1 88.2226 221.112 88.5963L221.798 92.7138L222.155 94.8138L225.187 93.0707L224.776 90.6276V90.408L224.09 86.2904C223.938 85.2119 223.459 84.2059 222.718 83.4081C221.346 81.9121 218.958 81.7885 216.365 83.2846L210.877 86.4414C207.989 88.2746 205.7 90.913 204.292 94.0314C203.576 95.5488 203.086 97.1625 202.837 98.8215L202.165 103.653L201.753 106.59Z" fill="#514845"/>
<path d="M190.969 90.2982C180.816 92.7961 166.959 96.5157 164.243 110.817L179.733 119.286C181.681 106.672 188.225 98.5196 200.079 95.5686L190.969 90.2982Z" fill="#3E312C"/>
<path d="M179.732 119.3L182.751 117.543L183.108 115.031L183.725 110.625C183.725 110.488 183.725 110.378 183.725 110.282C184.191 107.882 185.367 105.678 187.1 103.955C187.626 103.426 188.216 102.965 188.856 102.582L192.972 100.235L194.344 99.4254C194.875 99.1222 195.456 98.9176 196.059 98.8215C196.428 98.7565 196.806 98.7714 197.169 98.865C197.531 98.9586 197.87 99.1288 198.161 99.3642C198.452 99.5996 198.689 99.8947 198.857 100.23C199.025 100.565 199.119 100.931 199.133 101.306L199.805 105.423V105.506L200.148 107.523L201.726 106.617L203.194 105.78L202.768 103.351V103.117L202.631 102.376L202.082 99.0274C201.921 97.9519 201.443 96.9487 200.71 96.1451C199.338 94.6628 196.951 94.5255 194.358 96.0353L194.029 96.2274L188.897 99.1784C186.774 100.59 184.96 102.419 183.566 104.555C182.172 106.69 181.227 109.087 180.789 111.6L180.117 116.417L179.732 119.3Z" fill="#514845"/>
<path d="M64.6901 168.751L220.824 78.1651V80.718L64.6901 171.304L6.92871 137.897L9.12392 136.621L64.6901 168.751Z" fill="#514845"/>
<path d="M220.824 78.1651L64.6901 168.751L9.12392 136.621L6.92871 135.344L163.022 44.7854L220.824 78.1651Z" fill="#695D59"/>
<path d="M228.11 76.3848C239.962 69.5399 239.962 47.3447 228.111 26.8104C216.26 6.27611 197.045 -4.82129 185.194 2.02365C173.343 8.86859 173.342 31.0638 185.193 51.5981C197.044 72.1324 216.259 83.2298 228.11 76.3848Z" fill="#3F76AB"/>
<path d="M184.268 2.46153L44.8818 82.9667L87.8393 157.399L227.226 76.894L184.268 2.46153Z" fill="#3F76AB"/>
<path d="M87.8521 157.4C99.7034 150.555 99.7036 128.36 87.8526 107.825C76.0016 87.2912 56.7871 76.1938 44.9358 83.0387C33.0844 89.8837 33.0842 112.079 44.9352 132.613C56.7862 153.147 76.0007 164.245 87.8521 157.4Z" fill="#305A82"/>
<path d="M63.7433 72.0711L71.2619 67.734V67.8163C76.7499 64.6321 84.3234 65.0713 92.7063 69.9163C101.089 74.7613 108.69 83.065 114.178 92.5766C119.666 102.088 123.055 112.821 123.055 122.511C123.055 132.201 119.652 138.982 114.164 142.138L106.522 146.585C109.631 146.614 112.69 145.809 115.383 144.254C118.076 142.7 120.303 140.453 121.834 137.746C124.387 133.085 125.643 127.824 125.47 122.511C125.47 112.711 122.204 101.663 116.264 91.3688C110.323 81.0749 102.448 72.7437 93.9686 67.83C89.4118 64.9865 84.1643 63.4439 78.7942 63.3693C75.7352 63.3606 72.7282 64.1608 70.0779 65.689C67.4275 67.2171 65.228 69.4188 63.7021 72.0711H63.7433Z" fill="#305A82"/>
<path d="M71.8384 67.3908L79.357 63.0536V63.136C84.845 59.9654 92.4184 60.3909 100.801 65.2497C109.184 70.1084 116.84 78.3847 122.328 87.8413C127.816 97.298 131.205 108.086 131.205 117.776C131.205 127.466 127.802 134.246 122.314 137.403L114.672 141.85C117.769 141.891 120.82 141.105 123.511 139.573C126.203 138.041 128.437 135.818 129.984 133.135C132.537 128.473 133.793 123.212 133.62 117.9C133.62 108.1 130.354 97.051 124.414 86.7571C118.473 76.4631 110.543 68.0496 102.064 63.136C97.5327 60.3039 92.3136 58.7661 86.9716 58.689C83.8948 58.6807 80.8704 59.4856 78.2045 61.0223C75.5692 62.5607 73.3762 64.7545 71.8384 67.3908Z" fill="#305A82"/>
<path d="M142.688 26.4759L150.207 22.1388V22.2211C155.695 19.0506 163.269 19.4761 171.651 24.3348C180.034 29.1935 187.635 37.4698 193.123 46.9814C198.611 56.493 202.041 67.2535 202.041 76.8612C202.041 86.4688 198.639 93.3314 193.151 96.5019L185.509 100.935C188.617 100.963 191.677 100.159 194.369 98.6043C197.062 97.05 199.289 94.8028 200.82 92.0961C203.364 87.4323 204.61 82.171 204.429 76.8612C204.429 67.0614 201.163 56.0126 195.222 45.7324C189.282 35.4522 181.379 27.1347 172.873 22.2348C168.334 19.426 163.117 17.9075 157.781 17.8428C154.728 17.8423 151.729 18.6421 149.082 20.1623C146.444 21.6817 144.241 23.8563 142.688 26.4759Z" fill="#305A82"/>
<path d="M150.77 21.8094L158.302 17.4585V17.5408C163.79 14.3703 171.363 14.7958 179.746 19.6545C188.129 24.5133 195.73 32.7896 201.232 42.3011C206.734 51.8127 210.109 62.5595 210.109 72.2358C210.109 81.9121 206.693 88.7061 201.218 91.8766L193.562 96.3098C196.671 96.3381 199.73 95.5333 202.423 93.979C205.116 92.4246 207.343 90.1774 208.874 87.4708C211.434 82.8117 212.695 77.5496 212.524 72.2358C212.524 62.4497 209.258 51.3872 203.317 41.107C197.377 30.8269 189.474 22.4545 181.009 17.5546C176.454 14.7087 171.204 13.1704 165.834 13.1076C162.775 13.0961 159.767 13.8951 157.116 15.4235C154.465 16.9519 152.266 19.1552 150.742 21.8094H150.77Z" fill="#305A82"/>
<path d="M155.558 41.4364H125.854V46.254H155.558V41.4364Z" fill="#F59D00"/>
<path d="M130.203 40.1874C124.413 43.5364 124.413 48.9716 130.203 52.3205C133.458 53.9713 137.056 54.8315 140.706 54.8315C144.355 54.8315 147.954 53.9713 151.209 52.3205C157.012 48.9716 157.012 43.5364 151.209 40.1874C147.954 38.5367 144.355 37.6765 140.706 37.6765C137.056 37.6765 133.458 38.5367 130.203 40.1874Z" fill="#305A82"/>
<path d="M130.203 35.3699C124.413 38.7188 124.413 44.154 130.203 47.503C133.458 49.1537 137.056 50.014 140.706 50.014C144.355 50.014 147.954 49.1537 151.209 47.503C157.012 44.154 157.012 38.7188 151.209 35.3699C147.954 33.7191 144.355 32.8589 140.706 32.8589C137.056 32.8589 133.458 33.7191 130.203 35.3699Z" fill="#F9BF57"/>
<path d="M158.714 36.811H122.712V40.5855H158.714V36.811Z" fill="#61A8ED"/>
<path d="M127.981 33.2425C120.956 37.36 120.956 43.8932 127.981 47.9422C135.006 51.9911 146.407 52.0597 153.445 47.9422C160.484 43.8246 160.47 37.3051 153.445 33.2425C146.421 29.1798 135.006 29.1798 127.981 33.2425Z" fill="#61A8ED"/>
<path d="M127.981 28.9602C120.956 33.0778 120.956 39.5972 127.981 43.6599C135.006 47.7226 146.407 47.7775 153.445 43.6599C160.484 39.5423 160.47 33.0229 153.445 28.9602C146.421 24.8975 135.006 24.8975 127.981 28.9602Z" fill="#4C8FCF"/>
<path d="M122.74 37.2091C122.726 37.0126 122.726 36.8154 122.74 36.6189C122.877 30.0857 131.054 24.8701 140.987 24.9662C150.92 25.0623 158.823 30.4563 158.741 36.9483C158.741 37.0306 158.741 37.113 158.741 37.2091H122.74Z" fill="#4C8FCF"/>
<path d="M77.2163 159.24L81.4009 165.622L90.3738 170.81L91.4303 162.301L77.2163 159.24Z" fill="#3E312C"/>
<path d="M77.8914 160.9L64.041 184.899L71.2533 189.064L85.1037 165.066L77.8914 160.9Z" fill="#1D1715"/>
<path d="M81.0581 167.448C80.8701 170.847 79.8839 174.155 78.1796 177.102C76.4752 180.05 74.1006 182.554 71.2483 184.412C65.7602 187.541 61.4521 185.002 61.4521 178.743C61.6423 175.344 62.6294 172.037 64.3335 169.09C66.0377 166.143 68.4111 163.639 71.262 161.779C76.6677 158.622 81.0581 161.161 81.0581 167.448Z" fill="#1D1715"/>
<path d="M73.1553 180.226C73.2531 178.404 73.7801 176.631 74.6934 175.052C75.6066 173.473 76.8801 172.133 78.4101 171.14C81.305 169.465 83.6511 170.824 83.6511 174.173C83.5526 175.993 83.0268 177.764 82.1162 179.343C81.2056 180.921 79.9359 182.263 78.4101 183.259C75.4602 184.934 73.1553 183.575 73.1553 180.226Z" fill="#1D1715"/>
<path d="M78.3962 188.516C81.2468 186.659 83.6202 184.157 85.3245 181.212C87.0288 178.267 88.0159 174.963 88.206 171.565C88.206 165.306 83.8293 162.767 78.4099 165.897C75.5571 167.751 73.1819 170.252 71.4773 173.198C69.7728 176.143 68.787 179.449 68.6001 182.847C68.6001 189.106 72.9905 191.645 78.3962 188.516ZM78.3962 170.234C81.7302 168.312 84.4193 169.877 84.4193 173.72C84.3073 175.814 83.7021 177.851 82.653 179.667C81.6038 181.482 80.1405 183.023 78.3825 184.165C75.0622 186.086 72.3594 184.522 72.3594 180.679C72.4665 178.577 73.0708 176.53 74.1227 174.707C75.1745 172.884 76.6439 171.337 78.4099 170.193L78.3962 170.234Z" fill="#1D1715"/>
<path d="M78.3964 185.29C80.4169 183.973 82.0985 182.198 83.3047 180.109C84.511 178.02 85.2078 175.676 85.3387 173.267C85.3387 168.834 82.238 167.036 78.4101 169.246C76.4022 170.553 74.7284 172.313 73.5228 174.384C72.3172 176.456 71.6134 178.78 71.4678 181.173C71.4678 185.634 74.5685 187.432 78.3964 185.29ZM78.3964 170.193C81.8127 168.216 84.5841 169.822 84.5841 173.761C84.4647 175.911 83.8411 178.004 82.7638 179.868C81.6864 181.733 80.1856 183.317 78.3827 184.494C74.9664 186.457 72.1949 184.851 72.2087 180.898C72.3111 178.729 72.9267 176.615 74.0048 174.73C75.0829 172.845 76.5927 171.243 78.4101 170.055L78.3964 170.193Z" fill="#DADADA"/>
<path d="M78.3965 182.12C79.6359 181.312 80.668 180.224 81.4093 178.944C82.1505 177.664 82.5802 176.227 82.6634 174.749C82.6634 172.004 80.7564 170.934 78.4102 172.279C77.1726 173.087 76.1426 174.175 75.4037 175.456C74.6648 176.736 74.2377 178.173 74.157 179.649C74.0884 182.367 76.0504 183.465 78.3965 182.12ZM78.3965 174.104C79.8646 173.253 81.0582 173.953 81.0582 175.655C80.9998 176.59 80.7206 177.498 80.2436 178.305C79.7667 179.111 79.1055 179.793 78.3142 180.294C76.8462 181.145 75.6525 180.445 75.6525 178.743C75.7091 177.806 75.989 176.896 76.4687 176.089C76.9484 175.282 77.6141 174.602 78.4102 174.104H78.3965Z" fill="#EDEDED"/>
<path d="M78.3962 180.294C79.1875 179.793 79.8487 179.111 80.3257 178.305C80.8026 177.498 81.0818 176.59 81.1402 175.655C81.1402 173.953 79.9466 173.253 78.4785 174.104C77.6977 174.611 77.0481 175.295 76.583 176.102C76.118 176.908 75.8507 177.814 75.8031 178.743C75.7345 180.445 76.9282 181.173 78.3962 180.294ZM77.3809 179.594C77.23 179.855 76.983 179.992 76.8458 179.91C76.7086 179.828 76.6949 179.539 76.8458 179.279C76.9968 179.018 77.23 178.881 77.3809 178.977C77.5318 179.073 77.5318 179.334 77.3809 179.594ZM78.4099 179.347C78.2864 179.43 78.1767 179.347 78.1767 179.224C78.1835 179.146 78.208 179.071 78.2485 179.004C78.2889 178.938 78.3442 178.881 78.4099 178.839C78.4312 178.823 78.4568 178.814 78.4835 178.812C78.5102 178.81 78.5369 178.816 78.5602 178.829C78.5836 178.842 78.6026 178.862 78.6149 178.886C78.6272 178.909 78.6322 178.936 78.6294 178.963C78.6242 179.039 78.6018 179.114 78.5637 179.18C78.5257 179.247 78.4731 179.304 78.4099 179.347ZM79.974 178.098C79.8231 178.359 79.5761 178.496 79.4252 178.414C79.2743 178.332 79.2743 178.043 79.4252 177.796C79.5761 177.549 79.8231 177.398 79.974 177.481C80.1249 177.563 80.1112 177.851 79.974 178.098ZM80.2758 176.122C80.2691 176.2 80.2445 176.275 80.204 176.341C80.1636 176.408 80.1084 176.464 80.0426 176.506C79.9191 176.575 79.8231 176.506 79.8231 176.383C79.825 176.305 79.8461 176.23 79.8844 176.163C79.9227 176.096 79.9771 176.039 80.0426 175.998C80.1661 175.93 80.2758 175.985 80.2758 176.122ZM79.4252 174.749C79.5761 174.489 79.8231 174.351 79.974 174.434C80.1249 174.516 80.1112 174.804 79.974 175.065C79.8368 175.326 79.5761 175.463 79.4252 175.367C79.2743 175.271 79.2743 175.065 79.4252 174.804V174.749ZM78.4099 174.983C78.5334 174.983 78.6294 174.983 78.6294 175.12C78.6252 175.197 78.6032 175.271 78.5651 175.338C78.527 175.405 78.4739 175.462 78.4099 175.504C78.2864 175.504 78.1904 175.504 78.1904 175.367C78.2023 175.3 78.228 175.236 78.2657 175.179C78.3035 175.123 78.3526 175.074 78.4099 175.038V174.983ZM78.4099 175.971C78.9724 175.641 79.4252 175.971 79.4252 176.561C79.4021 176.912 79.2986 177.253 79.1225 177.558C78.9464 177.863 78.7026 178.123 78.4099 178.318C77.8474 178.647 77.3946 178.318 77.3946 177.728C77.4208 177.385 77.5261 177.053 77.7022 176.757C77.8784 176.462 78.1206 176.212 78.4099 176.026V175.971ZM76.8458 176.245C76.9968 175.985 77.23 175.834 77.3809 175.93C77.5318 176.026 77.5318 176.287 77.3809 176.547C77.23 176.808 76.9968 176.945 76.8458 176.863C76.6949 176.781 76.6949 176.547 76.8321 176.3L76.8458 176.245ZM76.8321 177.892C76.9556 177.824 77.0516 177.892 77.0516 178.016C77.0518 178.097 77.0318 178.178 76.9935 178.249C76.9552 178.321 76.8998 178.382 76.8321 178.428C76.7086 178.496 76.6126 178.428 76.6126 178.304C76.6098 178.222 76.6287 178.141 76.6672 178.069C76.7057 177.997 76.7626 177.936 76.8321 177.892Z" fill="#DAD1D1"/>
<path d="M78.3962 180.294C79.1875 179.793 79.8487 179.111 80.3257 178.305C80.8026 177.498 81.0818 176.59 81.1402 175.655C81.1402 173.953 79.9466 173.253 78.4785 174.104C77.6977 174.611 77.0481 175.295 76.583 176.102C76.118 176.908 75.8507 177.814 75.8031 178.743C75.7345 180.445 76.9282 181.173 78.3962 180.294ZM77.3809 179.594C77.23 179.855 76.983 179.992 76.8458 179.91C76.7086 179.828 76.6949 179.539 76.8458 179.279C76.9968 179.018 77.23 178.881 77.3809 178.977C77.5318 179.073 77.5318 179.334 77.3809 179.594ZM78.4099 179.347C78.2864 179.43 78.1767 179.347 78.1767 179.224C78.1835 179.146 78.208 179.071 78.2485 179.004C78.2889 178.938 78.3442 178.881 78.4099 178.839C78.4312 178.823 78.4568 178.814 78.4835 178.812C78.5102 178.81 78.5369 178.816 78.5602 178.829C78.5836 178.842 78.6026 178.862 78.6149 178.886C78.6272 178.909 78.6322 178.936 78.6294 178.963C78.6242 179.039 78.6018 179.114 78.5637 179.18C78.5257 179.247 78.4731 179.304 78.4099 179.347ZM79.974 178.098C79.8231 178.359 79.5761 178.496 79.4252 178.414C79.2743 178.332 79.2743 178.043 79.4252 177.796C79.5761 177.549 79.8231 177.398 79.974 177.481C80.1249 177.563 80.1112 177.851 79.974 178.098ZM80.2758 176.122C80.2691 176.2 80.2445 176.275 80.204 176.341C80.1636 176.408 80.1084 176.464 80.0426 176.506C79.9191 176.575 79.8231 176.506 79.8231 176.383C79.825 176.305 79.8461 176.23 79.8844 176.163C79.9227 176.096 79.9771 176.039 80.0426 175.998C80.1661 175.93 80.2758 175.985 80.2758 176.122ZM79.4252 174.749C79.5761 174.489 79.8231 174.351 79.974 174.434C80.1249 174.516 80.1112 174.804 79.974 175.065C79.8368 175.326 79.5761 175.463 79.4252 175.367C79.2743 175.271 79.2743 175.065 79.4252 174.804V174.749ZM78.4099 174.983C78.5334 174.983 78.6294 174.983 78.6294 175.12C78.6252 175.197 78.6032 175.271 78.5651 175.338C78.527 175.405 78.4739 175.462 78.4099 175.504C78.2864 175.504 78.1904 175.504 78.1904 175.367C78.2023 175.3 78.228 175.236 78.2657 175.179C78.3035 175.123 78.3526 175.074 78.4099 175.038V174.983ZM78.4099 175.971C78.9724 175.641 79.4252 175.971 79.4252 176.561C79.4021 176.912 79.2986 177.253 79.1225 177.558C78.9464 177.863 78.7026 178.123 78.4099 178.318C77.8474 178.647 77.3946 178.318 77.3946 177.728C77.4208 177.385 77.5261 177.053 77.7022 176.757C77.8784 176.462 78.1206 176.212 78.4099 176.026V175.971ZM76.8458 176.245C76.9968 175.985 77.23 175.834 77.3809 175.93C77.5318 176.026 77.5318 176.287 77.3809 176.547C77.23 176.808 76.9968 176.945 76.8458 176.863C76.6949 176.781 76.6949 176.547 76.8321 176.3L76.8458 176.245ZM76.8321 177.892C76.9556 177.824 77.0516 177.892 77.0516 178.016C77.0518 178.097 77.0318 178.178 76.9935 178.249C76.9552 178.321 76.8998 178.382 76.8321 178.428C76.7086 178.496 76.6126 178.428 76.6126 178.304C76.6098 178.222 76.6287 178.141 76.6672 178.069C76.7057 177.997 76.7626 177.936 76.8321 177.892Z" fill="#C6C6C6"/>
<path d="M78.3962 184.357C80.1992 183.18 81.7 181.595 82.7773 179.731C83.8546 177.866 84.4782 175.774 84.5977 173.624C84.5977 169.685 81.8537 168.134 78.41 170.055C76.6132 171.231 75.1172 172.812 74.0425 174.672C72.9678 176.531 72.3443 178.617 72.2222 180.761C72.2085 184.714 74.9799 186.32 78.3962 184.357ZM74.1705 183.245C73.8412 183.643 73.4433 183.794 73.2787 183.561C73.114 183.328 73.2787 182.82 73.5805 182.408C73.8823 181.996 74.3077 181.859 74.4723 182.092C74.6369 182.326 74.4997 182.834 74.1705 183.245ZM74.1705 179.649C74.2511 178.173 74.6782 176.736 75.4171 175.456C76.1561 174.175 77.186 173.087 78.4237 172.279C80.7698 170.906 82.6769 172.032 82.6769 174.749C82.5936 176.227 82.164 177.664 81.4227 178.944C80.6814 180.224 79.6494 181.312 78.41 182.12C76.0501 183.465 74.0881 182.367 74.1567 179.649H74.1705ZM76.2971 183.918C76.105 184.412 75.7208 184.783 75.4464 184.755C75.172 184.728 75.0897 184.316 75.2818 183.835C75.4739 183.355 75.8443 182.971 76.1324 182.998C76.4206 183.026 76.4892 183.492 76.2971 183.918ZM78.3962 183.918C78.0807 184.11 77.82 183.918 77.82 183.465C77.8188 183.245 77.8705 183.028 77.9708 182.832C78.0711 182.636 78.217 182.467 78.3962 182.339C78.7255 182.147 78.9862 182.339 78.9862 182.792C79.0045 183.032 78.9597 183.272 78.8562 183.489C78.7526 183.706 78.594 183.891 78.3962 184.028V183.918ZM81.3598 181.296C81.0716 181.653 80.7012 181.708 80.5091 181.447C80.4212 181.265 80.3898 181.06 80.4192 180.859C80.4485 180.659 80.5372 180.472 80.6738 180.322C80.9482 179.979 81.3323 179.91 81.5244 180.185C81.6302 180.379 81.6713 180.603 81.6417 180.822C81.6121 181.042 81.5134 181.246 81.3598 181.406V181.296ZM83.5138 177.549C83.4558 177.741 83.3407 177.911 83.1838 178.036C83.027 178.161 82.8358 178.236 82.6357 178.249C82.3064 178.249 82.1692 177.865 82.3339 177.44C82.3977 177.248 82.5162 177.08 82.6748 176.956C82.8333 176.831 83.0249 176.756 83.2257 176.74C83.555 176.891 83.6922 177.247 83.5138 177.659V177.549ZM84.3096 173.679C84.29 173.899 84.2174 174.112 84.098 174.298C83.9785 174.485 83.8158 174.64 83.6236 174.749C83.2531 174.969 82.9513 174.845 82.9513 174.475C82.9708 174.254 83.0434 174.042 83.1629 173.855C83.2823 173.669 83.4451 173.514 83.6373 173.404C84.0077 173.295 84.3096 173.418 84.3096 173.789V173.679ZM82.6357 171.044C82.965 170.632 83.3629 170.495 83.5275 170.728C83.6922 170.961 83.5275 171.469 83.2257 171.881C82.9239 172.293 82.4985 172.43 82.3339 172.197C82.1692 171.963 82.3202 171.565 82.6357 171.153V171.044ZM80.5228 170.302C80.7012 169.822 81.0854 169.438 81.3598 169.465C81.6342 169.493 81.7165 169.918 81.5244 170.399C81.3323 170.879 80.9619 171.263 80.6738 171.236C80.3856 171.208 80.3308 170.906 80.5228 170.412V170.302ZM78.41 170.302C78.7392 170.11 78.9999 170.302 78.9999 170.755C78.9996 170.977 78.9457 171.195 78.843 171.391C78.7403 171.586 78.5917 171.755 78.41 171.881C78.0807 172.073 77.82 171.881 77.82 171.428C77.831 171.218 77.89 171.014 77.9922 170.831C78.0945 170.648 78.2374 170.49 78.41 170.371V170.302ZM75.4601 172.938C75.7345 172.581 76.1187 172.526 76.3108 172.787C76.3934 172.971 76.4205 173.176 76.3888 173.376C76.3571 173.576 76.2681 173.762 76.1324 173.912C75.858 174.255 75.4739 174.324 75.2955 174.049C75.2068 173.869 75.1751 173.666 75.2045 173.468C75.2339 173.269 75.3231 173.084 75.4601 172.938ZM73.2924 176.685C73.3487 176.492 73.4633 176.321 73.6205 176.195C73.7777 176.07 73.9698 175.996 74.1705 175.985C74.4997 175.985 74.6369 176.369 74.4723 176.781C74.4117 176.973 74.2962 177.142 74.1401 177.269C73.9841 177.396 73.7943 177.474 73.5942 177.494C73.2649 177.508 73.1277 177.151 73.2924 176.74V176.685ZM73.1826 179.43C73.5531 179.21 73.8686 179.334 73.8686 179.704C73.8437 179.923 73.769 180.134 73.65 180.319C73.5311 180.505 73.3712 180.661 73.1826 180.775C72.7985 180.994 72.4966 180.871 72.4966 180.5C72.5323 180.299 72.6124 180.109 72.7311 179.942C72.8498 179.776 73.004 179.638 73.1826 179.539V179.43Z" fill="#DAD1D1"/>
<path d="M3.55758 160.436L2.87158 161.625L4.72516 162.695L5.41116 161.507L3.55758 160.436Z" fill="#E75C5B"/>
<path d="M3.7182 155.658L20.5801 145.94V145.734C20.8511 144.057 21.369 142.429 22.1168 140.903C23.524 137.788 25.8076 135.151 28.6887 133.313L34.1767 130.156C36.7698 128.66 39.1022 128.784 40.5291 130.28C41.2641 131.087 41.7418 132.095 41.9011 133.176L42.5871 137.293V137.513L42.9987 139.956L41.805 142.701L39.9665 141.63L39.6098 139.531L38.9238 135.413C38.9118 135.039 38.8197 134.673 38.6536 134.338C38.4875 134.003 38.2513 133.707 37.9612 133.472C37.671 133.236 37.3336 133.066 36.9718 132.972C36.61 132.878 36.2323 132.864 35.8643 132.929C35.2783 133.033 34.7159 133.242 34.2041 133.546L28.7161 136.703C28.0742 137.089 27.4801 137.55 26.9462 138.076C25.2278 139.802 24.0583 141.999 23.5848 144.389C23.5848 144.499 23.5848 144.609 23.5848 144.746L22.9674 149.152L22.6107 151.664L19.4825 153.448L6.76405 160.805C4.65116 162.012 2.4834 162.369 2.4834 160.805V157.84C2.50114 157.404 2.62241 156.979 2.83714 156.599C3.05187 156.22 3.3539 155.897 3.7182 155.658Z" fill="#695D59"/>
<path d="M5.55663 156.714L22.3774 146.997V146.791C22.6484 145.114 23.1662 143.486 23.914 141.96C25.3212 138.845 27.6049 136.208 30.4859 134.37L35.974 131.227C38.567 129.717 40.8995 129.854 42.3126 131.337C43.0534 132.14 43.532 133.15 43.6846 134.233L44.3569 138.35V138.57L44.7685 141.013L41.7364 142.742L41.3797 140.629L40.6937 136.511C40.6794 136.138 40.5858 135.772 40.419 135.439C40.2522 135.105 40.0161 134.811 39.7265 134.575C39.4368 134.34 39.1004 134.17 38.7395 134.075C38.3787 133.98 38.0018 133.964 37.6341 134.027C37.0458 134.13 36.4824 134.344 35.974 134.658L30.4859 137.801C29.8414 138.184 29.2469 138.645 28.7161 139.174C27.0023 140.9 25.8416 143.098 25.3821 145.487C25.3722 145.601 25.3722 145.716 25.3821 145.83L24.6961 150.25L24.3394 152.762L21.3072 154.518L8.58876 161.861C6.47587 163.083 4.30811 163.426 4.30811 161.861V158.883C4.32951 158.448 4.45389 158.025 4.67097 157.648C4.88804 157.271 5.19161 156.951 5.55663 156.714Z" fill="#695D59"/>
<path d="M6.14648 142.468L7.18921 162.946L54.1804 190.094L53.1376 169.616L6.14648 142.468Z" fill="#F39200"/>
<path d="M88.8509 114.564L41.9832 87.4982C41.5295 87.2919 41.0294 87.2086 40.5333 87.2568C40.0372 87.305 39.5625 87.4829 39.1569 87.7727L14.9959 101.731C13.7977 102.514 12.8007 103.568 12.0856 104.808C11.3705 106.048 10.9574 107.439 10.8799 108.868V110.241L57.871 137.376L88.8509 114.564Z" fill="#FFB60A"/>
<path d="M58.914 137.98L36.0427 123.692L10.8939 110.241C10.6051 110.899 10.3978 111.591 10.2764 112.3L9.97461 114.207L56.9657 141.37L58.914 137.98Z" fill="#FFB60A"/>
<path d="M53.1101 185.29V171.359C53.122 167.806 53.411 164.258 53.9745 160.75L57.2536 139.434C57.4616 138.207 57.9212 137.035 58.6036 135.993C59.2859 134.952 60.1763 134.062 61.2186 133.382L86.0931 119.011C88.3294 117.735 90.1268 115.951 90.1268 118.517V118.737L82.4298 123.184V162.85L77.8611 165.499C76.2505 166.554 74.878 167.934 73.8314 169.551C72.7848 171.167 72.0871 172.985 71.7831 174.887L70.7952 181.983L57.0752 189.861C54.8525 191.151 53.0415 190.108 53.0415 187.528L53.1101 185.29Z" fill="#FFB60A"/>
<path d="M82.4302 161.463V123.184L90.1271 118.737V161.463H82.4302Z" fill="#F39200"/>
<path d="M61.9871 128.88L86.1481 114.921C88.357 113.645 90.1269 114.674 90.1269 117.213V118.737L57.8711 137.376V136.003C57.9475 134.575 58.3602 133.186 59.0755 131.948C59.7908 130.71 60.7884 129.659 61.9871 128.88Z" fill="#F39200"/>
<path d="M6.14648 142.481L53.1376 169.616L57.0616 167.351C57.4204 167.116 57.7191 166.8 57.9335 166.428C58.148 166.056 58.2722 165.639 58.2964 165.21V142.015C58.2964 141.219 57.7476 140.903 57.0616 141.301H56.9792L9.97438 114.207C8.56121 120.013 6.14648 134.219 6.14648 142.481Z" fill="#8FD1CF"/>
<path opacity="0.5" d="M8.39688 142.125L7.5874 141.658C8.03425 133.167 9.16757 124.726 10.9763 116.417L33.2439 129.291C28.3494 129.117 23.4924 130.206 19.1406 132.453C14.7887 134.701 11.0887 138.032 8.39688 142.125Z" fill="white"/>
<path d="M70.4795 170.11C69.977 171.316 69.1145 172.337 68.0099 173.034L63.0295 175.916C61.7673 176.643 60.7383 176.053 60.7383 174.543V142.262C60.7926 141.318 61.0696 140.401 61.5465 139.585C62.0235 138.769 62.6869 138.078 63.4823 137.568L75.3913 130.705C76.8868 129.841 78.1353 130.54 78.1353 132.27V158.224C78.078 159.292 77.8054 160.338 77.3338 161.298C76.8622 162.258 76.2015 163.112 75.3913 163.81C73.2831 165.496 71.6006 167.654 70.4795 170.11Z" fill="#F39200"/>
<path d="M63.5651 157.14L74.5412 148.562C75.3435 147.917 76.002 147.111 76.4746 146.196C76.9472 145.281 77.2233 144.278 77.2852 143.25V132.764C77.2852 131.611 76.462 131.144 75.4604 131.721L63.5514 138.583C63.0209 138.929 62.5792 139.395 62.2622 139.944C61.9452 140.492 61.7617 141.108 61.7266 141.74V156.371C61.6306 157.579 62.5498 157.936 63.5651 157.14Z" fill="#8FD1CF"/>
<path opacity="0.5" d="M63.1123 141.754C63.1441 141.373 63.2589 141.004 63.4485 140.672C63.6381 140.34 63.898 140.053 64.2099 139.832L71.4404 135.715C68.3534 140.258 67.4204 146.146 67.6948 152.185L63.1123 155.726V141.754Z" fill="white"/>
<path d="M73.1006 151.65C73.1006 151.993 73.3338 152.13 73.6357 151.966L75.5702 150.84C75.7251 150.739 75.8542 150.604 75.9472 150.444C76.0401 150.284 76.0943 150.105 76.1053 149.92C76.1053 149.591 75.8583 149.454 75.5702 149.619L73.6357 150.744C73.4802 150.841 73.3505 150.974 73.2573 151.131C73.1642 151.289 73.1104 151.467 73.1006 151.65Z" fill="#1D1715"/>
<path d="M84.6114 124.323C84.6114 124.625 84.8309 124.748 85.0916 124.597L88.3158 122.731C88.4582 122.641 88.5764 122.518 88.6601 122.372C88.7438 122.226 88.7905 122.062 88.796 121.894C88.796 121.592 88.5902 121.468 88.3158 121.619L85.0642 123.527C84.9242 123.619 84.8078 123.743 84.7244 123.888C84.641 124.034 84.5929 124.197 84.584 124.364L84.6114 124.323Z" fill="#1D1715"/>
<path d="M84.6114 126.368C84.6114 126.684 84.8309 126.807 85.0916 126.643L88.3158 124.79C88.4566 124.698 88.5736 124.575 88.6571 124.429C88.7406 124.283 88.7882 124.12 88.796 123.952C88.796 123.65 88.5902 123.513 88.3158 123.678L85.0642 125.531C84.9264 125.625 84.8117 125.75 84.7285 125.895C84.6454 126.04 84.596 126.201 84.584 126.368H84.6114Z" fill="#1D1715"/>
<path d="M84.6114 128.427C84.6114 128.729 84.8309 128.852 85.0916 128.701L88.3158 126.835C88.4563 126.746 88.5734 126.625 88.657 126.482C88.7406 126.338 88.7883 126.177 88.796 126.011C88.796 125.695 88.5902 125.572 88.3158 125.723L85.0642 127.644C84.9242 127.737 84.8078 127.86 84.7244 128.006C84.641 128.151 84.5929 128.314 84.584 128.482L84.6114 128.427Z" fill="#1D1715"/>
<path d="M84.6114 130.472C84.6114 130.788 84.8309 130.911 85.0916 130.76L88.3158 128.893C88.4582 128.804 88.5764 128.681 88.6601 128.535C88.7438 128.389 88.7905 128.224 88.796 128.056C88.796 127.754 88.5902 127.631 88.3158 127.782L85.0642 129.648C84.9252 129.738 84.8094 129.86 84.726 130.003C84.6426 130.146 84.5939 130.307 84.584 130.472H84.6114Z" fill="#1D1715"/>
<path d="M84.6114 132.531C84.6114 132.833 84.8309 132.97 85.0916 132.805L88.3158 130.952C88.4558 130.86 88.5722 130.736 88.6556 130.591C88.739 130.445 88.7871 130.282 88.796 130.115C88.796 129.799 88.5902 129.676 88.3158 129.84L85.0642 131.762C84.9264 131.856 84.8117 131.981 84.7285 132.126C84.6454 132.271 84.596 132.433 84.584 132.599L84.6114 132.531Z" fill="#1D1715"/>
<path d="M84.6114 134.589C84.6114 134.891 84.8309 135.015 85.0916 134.864L88.3158 132.997C88.4582 132.908 88.5764 132.784 88.6601 132.638C88.7438 132.493 88.7905 132.328 88.796 132.16C88.796 131.858 88.5902 131.735 88.3158 131.886L85.0642 133.752C84.9242 133.844 84.8078 133.968 84.7244 134.114C84.641 134.259 84.5929 134.422 84.584 134.589H84.6114Z" fill="#1D1715"/>
<path d="M84.6114 136.634C84.6114 136.95 84.8309 137.074 85.0916 136.923L88.3158 135.056C88.4566 134.965 88.5736 134.841 88.6571 134.695C88.7406 134.55 88.7882 134.387 88.796 134.219C88.796 133.917 88.5902 133.793 88.3158 133.944L85.0642 135.88C84.9252 135.97 84.8094 136.091 84.726 136.234C84.6426 136.377 84.5939 136.538 84.584 136.703L84.6114 136.634Z" fill="#1D1715"/>
<path d="M52.1987 188.524L51.5127 189.713L53.3663 190.783L54.0523 189.595L52.1987 188.524Z" fill="#695D59"/>
<path d="M51.1206 185.881V188.873C51.1206 189.82 51.8889 190.08 52.9591 189.875C53.8198 189.675 54.6439 189.342 55.4013 188.886L68.1197 181.543L71.1519 179.8L71.5086 177.302L72.126 172.896C72.1173 172.778 72.1173 172.658 72.126 172.54C72.3588 171.198 72.8231 169.907 73.498 168.724C74.029 167.813 74.6745 166.973 75.4188 166.226C75.9469 165.694 76.5418 165.232 77.1887 164.854L82.6767 161.71C83.1915 161.402 83.7591 161.193 84.3505 161.093C84.826 160.992 85.3207 161.036 85.7708 161.22C86.2209 161.403 86.6055 161.718 86.875 162.122C87.5035 162.187 88.0882 162.474 88.5234 162.932C88.9587 163.39 89.2159 163.989 89.2486 164.62L89.9346 168.738L90.2913 170.851L91.485 168.106L91.0734 165.677V165.457L90.3736 161.34C90.2252 160.26 89.7458 159.253 89.0016 158.458C87.6296 156.962 85.2424 156.838 82.6355 158.334L77.1475 161.477C75.0315 162.881 73.222 164.699 71.8284 166.823C70.4347 168.946 69.4858 171.329 69.039 173.83V174.036L52.2182 183.767C51.8883 184.014 51.6183 184.332 51.4283 184.698C51.2383 185.064 51.1331 185.468 51.1206 185.881Z" fill="#695D59"/>
<path d="M52.959 186.937V189.929C52.959 191.522 55.1268 191.165 57.2259 189.929L69.9718 182.545L73.004 180.802L73.3607 178.29L73.9781 173.885C73.9781 173.747 73.9781 173.638 73.9781 173.528C74.4554 171.136 75.6298 168.939 77.3532 167.214C77.8816 166.682 78.4765 166.221 79.1231 165.842L84.6111 162.685C85.1286 162.383 85.6952 162.174 86.285 162.067C86.5128 162.04 86.7431 162.04 86.971 162.067C87.5994 162.132 88.1841 162.419 88.6194 162.877C89.0546 163.335 89.3118 163.934 89.3445 164.565L90.0305 168.683L90.3872 170.796L93.4194 169.04L93.0078 166.61V166.391L92.3218 162.273C92.1725 161.19 91.6935 160.179 90.9498 159.377C90.4592 158.852 89.8243 158.485 89.125 158.32C87.5519 158.033 85.9288 158.368 84.5974 159.254L79.1094 162.41C76.6935 163.917 74.701 166.014 73.3195 168.504C73.0314 168.985 72.7707 169.479 72.5238 169.987C71.7901 171.517 71.2773 173.144 71.0008 174.818V175.038L54.1938 184.81C53.8367 185.044 53.5392 185.358 53.3248 185.728C53.1105 186.097 52.9852 186.511 52.959 186.937Z" fill="#514845"/>
<path d="M6.31132 156.275C3.23803 155.397 3.12827 158.554 3.03223 161.765L51.5051 189.751L53.1104 183.328L6.31132 156.275Z" fill="#695D59"/>
<g opacity="0.2">
<path opacity="0.2" d="M19.208 138.844C19.2853 140.224 19.6887 141.565 20.3852 142.758C21.0817 143.951 22.0513 144.962 23.2143 145.707C23.8121 146.068 24.492 146.271 25.1899 146.297C25.5733 146.287 25.9507 146.199 26.299 146.038C26.6474 145.878 26.9594 145.648 27.2161 145.363C27.4728 145.078 27.6688 144.744 27.7922 144.38C27.9157 144.017 27.9639 143.633 27.934 143.25C27.934 143.168 27.934 143.085 27.934 142.989C27.8567 141.61 27.4532 140.268 26.7568 139.075C26.0603 137.882 25.0907 136.872 23.9277 136.127C23.3314 135.762 22.6506 135.559 21.952 135.536C21.3554 135.536 20.7765 135.74 20.312 136.114C19.8476 136.489 19.5257 137.012 19.4001 137.595C19.2766 138 19.2119 138.421 19.208 138.844ZM20.58 138.844C20.5824 138.548 20.6192 138.253 20.6898 137.966C20.741 137.682 20.8897 137.425 21.1102 137.24C21.3307 137.054 21.6091 136.952 21.8971 136.95C22.3488 136.976 22.7871 137.112 23.1731 137.348C24.0434 137.929 24.7824 138.686 25.3424 139.57C25.9025 140.454 26.2712 141.446 26.4248 142.481C26.4382 142.673 26.4382 142.866 26.4248 143.058C26.4248 143.621 26.2876 144.952 25.0527 144.952C24.6011 144.927 24.1628 144.79 23.7768 144.554C22.8426 143.91 22.0686 143.061 21.5143 142.071C20.9601 141.081 20.6404 139.977 20.58 138.844Z" fill="#3C3C3B"/>
<path opacity="0.2" d="M6.14648 142.481L53.1376 169.616L57.0616 167.351C57.4204 167.116 57.7191 166.8 57.9335 166.428C58.148 166.056 58.2722 165.639 58.2964 165.21V162.108C48.6923 155.603 27.9339 143.703 27.8927 143.676C26.6031 140.313 19.6607 137.183 16.7658 139.146C15.2443 138.879 13.7001 138.764 12.1559 138.803C12.1559 138.803 6.40717 142.138 6.14648 142.481Z" fill="#575756"/>
</g>
<path d="M45.2764 162.205C45.2764 163.152 45.8526 163.577 46.6484 163.179C46.7544 163.115 46.8442 163.027 46.9108 162.922C46.9774 162.817 47.019 162.699 47.0325 162.575L47.2795 154.889C47.2795 154.669 47.1423 154.56 46.9502 154.669H46.8542C46.4609 154.929 46.1326 155.276 45.8947 155.683C45.6568 156.09 45.5157 156.546 45.4822 157.016L45.2764 162.205Z" fill="#F39200"/>
<path d="M47.1834 154.642L45.8389 163.316L48.967 165.114L50.4351 156.522L47.1834 154.642Z" fill="#F39200"/>
<path d="M48.4863 164.057C48.4863 165.018 49.0763 165.43 49.8583 165.032C49.9673 164.971 50.0595 164.884 50.1265 164.778C50.1936 164.673 50.2334 164.553 50.2425 164.428L50.5032 156.756C50.5032 156.522 50.366 156.426 50.1739 156.522H50.0778C49.6663 156.77 49.3197 157.112 49.0668 157.52C48.8139 157.928 48.6619 158.391 48.6235 158.869L48.4863 164.057Z" fill="#FFB60A"/>
<path d="M56.1289 137.17L52.0129 139.572C50.4571 140.536 49.1839 141.895 48.3222 143.511C47.4965 144.981 47.1107 146.658 47.2108 148.342L47.4304 155.548L49.0082 156.454L49.3649 154.669V147.587C49.3912 146.622 49.6372 145.675 50.0841 144.819C50.5311 143.962 51.1672 143.219 51.9443 142.646L55.3468 140.381L57.7204 138.076L56.1289 137.17Z" fill="#F39200"/>
<path d="M57.7202 138.076L53.6042 140.478C52.0513 141.446 50.7789 142.804 49.9135 144.417C49.0878 145.887 48.702 147.564 48.8022 149.248L48.9805 156.467L49.6391 156.083L49.886 148.479C50.0216 147.419 50.3757 146.398 50.926 145.481C51.4762 144.564 52.2106 143.772 53.0828 143.154L56.9244 141.315L57.7202 138.076Z" fill="#FFB60A"/>
<path d="M0 135.88C0 136.84 0.576242 137.252 1.372 136.854C1.47872 136.79 1.56906 136.703 1.63577 136.598C1.70248 136.493 1.74371 136.374 1.75617 136.25L2.00313 128.564C2.00313 128.344 1.86593 128.248 1.68756 128.344H1.5778C1.18234 128.602 0.852397 128.948 0.614214 129.356C0.376031 129.763 0.236185 130.22 0.205801 130.691L0 135.88Z" fill="#F39200"/>
<path d="M1.90706 128.331L0.5625 137.005L3.69067 138.803L5.15871 130.211L1.90706 128.331Z" fill="#F39200"/>
<path d="M3.21045 137.76C3.21045 138.707 3.80041 139.132 4.58245 138.721C4.68962 138.661 4.78061 138.576 4.84755 138.473C4.91449 138.37 4.95536 138.253 4.96661 138.13L5.24102 130.389C5.24102 130.156 5.10381 130.06 4.91173 130.156H4.81569C4.40493 130.404 4.0589 130.746 3.80608 131.154C3.55325 131.562 3.40084 132.025 3.36137 132.503L3.21045 137.76Z" fill="#FFB60A"/>
<path d="M10.8663 110.859L6.75031 113.26C5.17947 114.22 3.89158 115.579 3.01846 117.2C2.19274 118.67 1.80698 120.347 1.90714 122.031L2.12666 129.237L3.70446 130.156L4.11606 128.358V121.29C4.14029 120.322 4.38527 119.372 4.8323 118.514C5.27933 117.655 5.91659 116.91 6.69543 116.335L10.098 114.084L12.4716 111.764L10.8663 110.859Z" fill="#F39200"/>
<path d="M12.4439 111.764L8.23183 114.166C6.67557 115.136 5.40254 116.5 4.54114 118.119C3.71469 119.589 3.32888 121.267 3.42981 122.95L3.64933 130.156L4.32161 129.758L4.60974 122.154C4.74548 121.096 5.09976 120.077 5.65008 119.162C6.2004 118.248 6.93475 117.458 7.80651 116.843L11.6481 114.99L12.4439 111.764Z" fill="#FFB60A"/>
<path d="M15.4765 155.864L8.80852 152.02C8.65371 151.913 8.52516 151.772 8.4325 151.608C8.33983 151.444 8.28546 151.261 8.27344 151.073V146.695C8.27344 146.352 8.5204 146.215 8.80852 146.379L15.4765 150.222C15.6313 150.33 15.7598 150.471 15.8525 150.635C15.9451 150.799 15.9995 150.981 16.0115 151.169V155.548C16.0115 155.891 15.7646 156.028 15.4765 155.864Z" fill="#FFC734"/>
<path d="M15.7093 156.234C15.5719 156.232 15.4383 156.189 15.3251 156.111L8.67091 152.268C8.46515 152.141 8.29365 151.966 8.17161 151.758C8.04956 151.55 7.98072 151.315 7.97119 151.073V146.695C7.96312 146.577 7.98862 146.458 8.04475 146.354C8.10089 146.249 8.18539 146.162 8.28855 146.104C8.3917 146.045 8.50933 146.016 8.62793 146.021C8.74653 146.026 8.86129 146.065 8.95903 146.132L15.6132 149.975C15.819 150.102 15.9905 150.277 16.1125 150.485C16.2346 150.693 16.3034 150.928 16.313 151.169V155.548C16.3225 155.633 16.3141 155.72 16.2883 155.802C16.2624 155.884 16.2197 155.96 16.1629 156.025C16.1061 156.089 16.0363 156.141 15.9582 156.177C15.8801 156.213 15.7953 156.233 15.7093 156.234ZM8.57487 146.599C8.57166 146.631 8.57166 146.663 8.57487 146.695V151.073C8.58578 151.21 8.62718 151.343 8.69603 151.462C8.76488 151.58 8.85943 151.682 8.97275 151.76L15.627 155.603H15.723C15.7262 155.571 15.7262 155.539 15.723 155.507V151.128C15.7102 150.992 15.6681 150.86 15.5994 150.742C15.5307 150.623 15.4371 150.521 15.3251 150.442L8.67091 146.599H8.57487Z" fill="white"/>
<path d="M50.2293 175.902L43.5751 172.059C43.4181 171.954 43.2879 171.814 43.195 171.649C43.102 171.485 43.049 171.301 43.04 171.112V166.734C43.04 166.391 43.2733 166.253 43.5751 166.418L50.2293 170.275C50.3886 170.375 50.5216 170.513 50.617 170.675C50.7125 170.837 50.7677 171.02 50.7781 171.208V175.587C50.7644 175.93 50.5312 176.081 50.2293 175.902Z" fill="#FFC734"/>
<path d="M50.4764 176.273C50.3413 176.268 50.2093 176.231 50.0922 176.163L43.4243 172.32C43.2232 172.187 43.0563 172.008 42.9371 171.798C42.8179 171.588 42.7498 171.353 42.7383 171.112V166.734C42.7302 166.615 42.7557 166.497 42.8118 166.392C42.868 166.288 42.9525 166.201 43.0556 166.142C43.1588 166.084 43.2764 166.055 43.395 166.06C43.5136 166.065 43.6284 166.104 43.7261 166.171L50.3803 170.014C50.5861 170.14 50.7576 170.315 50.8796 170.524C51.0017 170.732 51.0705 170.967 51.0801 171.208V175.587C51.0896 175.672 51.0812 175.759 51.0554 175.841C51.0295 175.923 50.9868 175.999 50.93 176.063C50.8731 176.128 50.8034 176.18 50.7253 176.216C50.6472 176.252 50.5624 176.271 50.4764 176.273ZM43.342 166.651C43.3364 166.679 43.3364 166.707 43.342 166.734V171.112C43.3529 171.249 43.3943 171.382 43.4631 171.5C43.532 171.619 43.6265 171.721 43.7398 171.798L50.3941 175.641H50.4901V171.167C50.4799 171.032 50.4402 170.9 50.3738 170.781C50.3075 170.663 50.216 170.56 50.1059 170.481L43.438 166.638C43.4054 166.63 43.3712 166.635 43.342 166.651Z" fill="white"/>
<path d="M12.5267 157.977L8.80852 155.863C8.6533 155.76 8.5242 155.622 8.43136 155.46C8.33852 155.298 8.28446 155.117 8.27344 154.93V153.558C8.27344 153.201 8.5204 153.064 8.80852 153.242L12.5267 155.342C12.6837 155.447 12.8139 155.587 12.9068 155.752C12.9997 155.916 13.0528 156.1 13.0617 156.289V157.661C13.0617 158.005 12.8285 158.142 12.5267 157.977Z" fill="white"/>
<path d="M50.2288 179.718L46.5244 177.618C46.3648 177.514 46.2319 177.375 46.1366 177.21C46.0412 177.046 45.9861 176.861 45.9756 176.671V175.298C45.9756 174.955 46.2225 174.818 46.5244 174.983L50.2288 177.096C50.3884 177.2 50.5212 177.34 50.6166 177.504C50.712 177.669 50.7671 177.853 50.7776 178.043V179.416C50.7639 179.8 50.5306 179.896 50.2288 179.718Z" fill="white"/>
<path d="M36.9619 163.454C36.9619 163.728 36.7698 163.852 36.5228 163.701L21.2936 154.889C21.1634 154.808 21.0544 154.698 20.9757 154.567C20.8969 154.435 20.8507 154.287 20.8408 154.134C20.8408 153.846 21.0466 153.736 21.2936 153.873L36.5228 162.685C36.6523 162.768 36.7597 162.882 36.8361 163.016C36.9125 163.149 36.9557 163.3 36.9619 163.454Z" fill="#1D1715"/>
<path d="M36.9619 165.183C36.9619 165.471 36.7698 165.581 36.5228 165.444L21.2936 156.632C21.1624 156.549 21.0529 156.436 20.9741 156.303C20.8954 156.169 20.8497 156.018 20.8408 155.863C20.8408 155.589 21.0466 155.465 21.2936 155.616L36.5228 164.428C36.6512 164.509 36.7581 164.62 36.8345 164.752C36.9109 164.883 36.9546 165.031 36.9619 165.183Z" fill="#1D1715"/>
<path d="M36.9619 166.926C36.9619 167.214 36.7698 167.324 36.5228 167.187L21.2936 158.375C21.1646 158.29 21.0568 158.177 20.9783 158.043C20.8999 157.91 20.8528 157.761 20.8408 157.607C20.8408 157.318 21.0466 157.209 21.2936 157.346L36.5228 166.157C36.65 166.243 36.7557 166.357 36.8318 166.491C36.9079 166.624 36.9524 166.773 36.9619 166.926Z" fill="#1D1715"/>
<path d="M36.9619 168.669C36.9619 168.944 36.7698 169.067 36.5228 168.916L21.2936 160.105C21.1624 160.022 21.0529 159.909 20.9741 159.775C20.8954 159.641 20.8497 159.491 20.8408 159.336C20.8408 159.061 21.0466 158.952 21.2936 159.089L36.5228 167.901C36.6523 167.984 36.7597 168.097 36.8361 168.231C36.9125 168.365 36.9557 168.515 36.9619 168.669Z" fill="#1D1715"/>
<path d="M36.9619 170.398C36.9619 170.687 36.7698 170.797 36.5228 170.659L21.2936 161.848C21.1624 161.765 21.0529 161.652 20.9741 161.518C20.8954 161.385 20.8497 161.234 20.8408 161.079C20.8408 160.791 21.0466 160.681 21.2936 160.818L36.5228 169.63C36.65 169.716 36.7557 169.83 36.8318 169.963C36.9079 170.096 36.9524 170.245 36.9619 170.398Z" fill="#1D1715"/>
<path opacity="0.25" d="M54.5918 98.8901L41.8871 91.4923C41.4699 91.2513 40.9967 91.1245 40.5151 91.1245C40.0334 91.1245 39.5602 91.2513 39.1431 91.4923L11.8813 106.453C27.8103 98.8215 42.381 95.2941 54.5918 98.8901Z" fill="white"/>
<path d="M175.751 99.076C180.96 90.0496 180.959 80.2927 175.749 77.2833C170.539 74.274 162.092 79.1518 156.882 88.1782C151.673 97.2046 151.674 106.962 156.884 109.971C162.094 112.98 170.541 108.102 175.751 99.076Z" fill="white"/>
<path d="M167.124 81.418C167.124 81.418 160.826 94.3471 160.826 101.237C160.826 105.712 163.57 106.892 167.124 104.888C169.004 103.726 170.564 102.114 171.664 100.197C172.763 98.2792 173.367 96.1177 173.421 93.9079C173.421 87.0728 167.124 81.418 167.124 81.418Z" fill="#5FDCED"/>
<g opacity="0.05">
<path opacity="0.05" d="M167.604 81.8846C169.741 85.1637 170.963 88.9545 171.143 92.8648C171.161 95.224 170.594 97.5508 169.492 99.637C168.391 101.723 166.79 103.504 164.832 104.819C164.25 105.17 163.616 105.425 162.953 105.574C163.65 105.761 164.38 105.793 165.091 105.668C165.803 105.542 166.477 105.262 167.069 104.847C168.949 103.685 170.509 102.073 171.609 100.155C172.708 98.238 173.312 96.0765 173.366 93.8667C173.421 88.2394 169.072 83.3669 167.604 81.8846Z" fill="black"/>
</g>
<path d="M164.174 99.5078C164.218 100.104 164.131 100.703 163.92 101.262C163.709 101.821 163.379 102.328 162.953 102.747C162.267 103.145 161.718 102.321 161.718 100.935C161.676 100.338 161.765 99.7387 161.978 99.1793C162.191 98.6199 162.524 98.1137 162.953 97.6961C163.625 97.298 164.174 98.1078 164.174 99.5078Z" fill="white"/>
</g>
<defs>
<clipPath id="clip0">
<rect width="237" height="191" fill="white"/>
</clipPath>
</defs>
</svg>
