<svg width="35" height="35" viewBox="0 0 35 35" fill="none" xmlns="http://www.w3.org/2000/svg">
<path d="M5.79398 26.1228C5.42504 25.9035 4.94858 25.9374 4.61539 26.209C4.28194 26.4808 4.158 26.944 4.30046 27.3473C4.44285 27.7503 4.839 28.0273 5.26638 28.0273C5.75146 28.0273 6.17693 27.6755 6.27338 27.2022C6.35862 26.7833 6.16134 26.3412 5.79398 26.1228Z" fill="#00294A"/>
<path d="M5.26608 7.51953H11.045C11.6121 7.51953 12.0718 7.06043 12.0718 6.49414C12.0718 5.92785 11.6121 5.46875 11.045 5.46875H5.26608C4.69897 5.46875 4.23926 5.92785 4.23926 6.49414C4.23926 7.06043 4.69904 7.51953 5.26608 7.51953Z" fill="#00294A"/>
<path d="M33.7179 5.54586C31.7858 3.30189 28.3289 2.99544 26.0118 4.86254L24.1205 6.38647C24.1064 6.39789 24.0854 6.38777 24.0854 6.36966V1.02539C24.0854 0.459102 23.6257 0 23.0586 0H1.02683C0.459717 0 0 0.459102 0 1.02539V29.42C0 32.4968 2.57503 35 5.74014 35H25.9083C27.857 35 29.4424 33.4474 29.4424 31.539C29.4424 29.6382 27.8633 28.0856 25.9224 28.0621H24.1069C24.095 28.062 24.0853 28.0524 24.0853 28.0405V19.9316C24.1086 19.9332 24.1318 19.9347 24.155 19.9347C24.3878 19.9347 24.6159 19.8555 24.7998 19.7073L33.0116 13.0902C34.149 12.1736 34.8474 10.8804 34.978 9.44863C35.1077 8.02628 34.6603 6.64022 33.7179 5.54586ZM21.9775 13.8132L19.5077 15.8403C19.4936 15.8519 19.4724 15.8419 19.4724 15.8236L19.4718 12.778C19.4718 12.7714 19.4748 12.7653 19.4799 12.7612L21.9496 10.7711C21.9637 10.7598 21.9847 10.7698 21.9847 10.7879L21.9854 13.7965C21.9854 13.803 21.9825 13.8091 21.9775 13.8132ZM27.3887 31.539C27.3887 32.3166 26.7246 32.9492 25.9083 32.9492H10.2095C10.1913 32.9492 10.1816 32.9283 10.1931 32.9142C10.8469 32.1216 11.2836 31.2081 11.4143 30.1474C11.4156 30.1367 11.4247 30.1286 11.4356 30.1286H25.9144C26.7273 30.1319 27.3887 30.7645 27.3887 31.539ZM10.5062 28.0621C10.4567 28.0621 10.4072 28.0643 10.3584 28.0723C9.99189 28.1323 9.65043 28.3374 9.49375 28.6867C9.38021 28.9399 9.40188 29.2181 9.40181 29.4884C9.40181 31.4344 7.75913 32.9492 5.74014 32.9492C3.7074 32.9492 2.05365 31.366 2.05365 29.42V2.07238C2.05365 2.06049 2.06329 2.05078 2.07525 2.05078H22.0101C22.022 2.05078 22.0317 2.06042 22.0317 2.07238V8.05943C22.0317 8.066 22.0288 8.07215 22.0237 8.07625L20.1754 9.5656C20.1707 9.56724 20.1665 9.56874 20.1618 9.57038H5.26668C4.69957 9.57038 4.23985 10.0295 4.23985 10.5958C4.23985 11.1621 4.69957 11.6212 5.26668 11.6212H17.6135C17.6315 11.6212 17.641 11.6414 17.63 11.6557C17.4943 11.8327 17.418 12.0505 17.418 12.2779L17.4183 13.6503C17.4183 13.6622 17.4087 13.6719 17.3967 13.6719H5.26668C4.69957 13.6719 4.23985 14.131 4.23985 14.6973C4.23985 15.2636 4.69957 15.7227 5.26668 15.7227H17.3972C17.4091 15.7227 17.4188 15.7324 17.4188 15.7443L17.4191 17.5444C17.4191 17.5509 17.4163 17.557 17.4113 17.5611L17.1585 17.7686C17.1538 17.7703 17.1495 17.7718 17.1448 17.7735H5.26668C4.69957 17.7735 4.23985 18.2326 4.23985 18.7989C4.23985 19.3652 4.69957 19.8243 5.26668 19.8243H14.5936C14.6139 19.8243 14.623 19.8497 14.6072 19.8626L12.1613 21.8701C12.1566 21.8719 12.1522 21.8734 12.1475 21.8751H5.26668C4.69957 21.8751 4.23985 22.3342 4.23985 22.9005C4.23985 23.4667 4.69957 23.9258 5.26668 23.9258H12.5513C12.8665 23.9258 13.1484 23.7837 13.3367 23.5603C13.3375 23.5595 13.3383 23.5588 13.3392 23.5579L18.8705 19.0179C18.8754 19.0139 18.8818 19.0122 18.888 19.0133L22.0139 19.5697C22.0242 19.5716 22.0317 19.5805 22.0317 19.591V28.0405C22.0317 28.0524 22.022 28.0621 22.0101 28.0621C22.0101 28.0621 11.4937 28.0621 10.5062 28.0621ZM23.8648 17.816L21.01 17.3079C20.9919 17.3047 20.9859 17.2817 21.0001 17.27L23.3683 15.3262C23.3732 15.3222 23.3796 15.3206 23.3858 15.3217L26.2767 15.8362C26.2949 15.8395 26.3009 15.8627 26.2864 15.8743L23.8822 17.8116C23.8761 17.8132 23.8708 17.8145 23.8648 17.816ZM32.9328 9.26263C32.8531 10.1368 32.4231 10.9293 31.722 11.4942L28.4484 14.1321C28.4424 14.1337 28.4371 14.135 28.4311 14.1366L25.5078 13.6163C25.4897 13.6131 25.4837 13.59 25.4979 13.5784L28.8417 10.8338C29.2798 10.4742 29.3431 9.8281 28.9829 9.3906C28.6228 8.95303 27.9757 8.88986 27.5377 9.2495L24.0739 12.0925C24.0598 12.1041 24.0386 12.0941 24.0386 12.0758L24.038 9.09863C24.038 9.09207 24.0409 9.08592 24.046 9.08182L27.3014 6.45859C28.7643 5.27974 30.9442 5.47005 32.1608 6.88297C32.7374 7.55275 33.0117 8.39788 32.9328 9.26263Z" fill="#00294A"/>
</svg>
